<svg xmlns="http://www.w3.org/2000/svg" width="19.477" height="19.687" viewBox="0 0 19.477 19.687">
  <path id="Path_855" data-name="Path 855" d="M5.646,18.113a8.838,8.838,0,0,1-.49-3.984c-.067-3.43.054-3.742-3.172-2.486-.253.1-.516.171-.775.255-.657.213-1.048-.027-1.155-.7A4.6,4.6,0,0,1,0,10.382,39.415,39.415,0,0,1,1.763.506.819.819,0,0,1,2.313,0c.4-.03.631.3.7.672C3.286,2.1,3.5,3.53,3.8,4.947c.241,1.145.632,1.362,1.707.988.855-.3,1.675-.7,2.531-1,.968-.336,1.583.126,1.544,1.19a9.511,9.511,0,0,1-.316,1.865,70.467,70.467,0,0,1-2.93,9.318C6.2,17.646,6.067,17.989,5.646,18.113Z" transform="matrix(0.719, 0.695, -0.695, 0.719, 12.582, 0)" fill="#d52316"/>
</svg>
