<svg xmlns="http://www.w3.org/2000/svg" viewBox="0 0 22.81 22.81"><defs><style>.cls-1{fill:#fff;}</style></defs><title>instagram</title><g id="Layer_2" data-name="Layer 2"><g id="Layer_1-2" data-name="Layer 1"><path class="cls-1" d="M11.4,2.06A40.76,40.76,0,0,1,16,2.17,3.83,3.83,0,0,1,18,2.61a3.28,3.28,0,0,1,1.3.87,3.39,3.39,0,0,1,.87,1.3,9.85,9.85,0,0,1,.43,2.06,40.87,40.87,0,0,1,.11,4.56A40.76,40.76,0,0,1,20.63,16,3.86,3.86,0,0,1,20.2,18a3.39,3.39,0,0,1-.87,1.3,3.39,3.39,0,0,1-1.3.87,10,10,0,0,1-2.07.43,40.76,40.76,0,0,1-4.56.11,40.87,40.87,0,0,1-4.56-.11,3.81,3.81,0,0,1-2.06-.43,3.39,3.39,0,0,1-1.3-.87A3.28,3.28,0,0,1,2.61,18,10.51,10.51,0,0,1,2.17,16a40.76,40.76,0,0,1-.11-4.56,40.87,40.87,0,0,1,.11-4.56,3.79,3.79,0,0,1,.44-2.06,3.28,3.28,0,0,1,.87-1.3,3.28,3.28,0,0,1,1.3-.87,10.36,10.36,0,0,1,2.06-.44,40.87,40.87,0,0,1,4.56-.11M11.4,0A42.14,42.14,0,0,0,6.73.11,8.09,8.09,0,0,0,4,.65,6.2,6.2,0,0,0,2,2,6.2,6.2,0,0,0,.65,4,8.74,8.74,0,0,0,.11,6.73,43.36,43.36,0,0,0,0,11.4a43.24,43.24,0,0,0,.11,4.67,8.1,8.1,0,0,0,.54,2.72A6.06,6.06,0,0,0,2,20.85,6,6,0,0,0,4,22.15a8.43,8.43,0,0,0,2.71.55,43.36,43.36,0,0,0,4.67.11,42,42,0,0,0,4.67-.11,7.83,7.83,0,0,0,2.72-.55,5.52,5.52,0,0,0,3.36-3.36,8.44,8.44,0,0,0,.55-2.72,43.24,43.24,0,0,0,.11-4.67,43.36,43.36,0,0,0-.11-4.67A7.82,7.82,0,0,0,22.15,4,6,6,0,0,0,20.85,2,6.06,6.06,0,0,0,18.79.65,8.75,8.75,0,0,0,16.07.11,42,42,0,0,0,11.4,0Zm0,5.54a5.87,5.87,0,1,0,5.87,5.86A5.91,5.91,0,0,0,11.4,5.54Zm0,9.66a3.8,3.8,0,0,1,0-7.6,3.8,3.8,0,0,1,0,7.6ZM17.48,4a1.41,1.41,0,1,0,0,2.82A1.44,1.44,0,0,0,18.9,5.43,1.37,1.37,0,0,0,17.48,4Z"/></g></g></svg>