<svg xmlns="http://www.w3.org/2000/svg" width="29.21" height="23.814" viewBox="0 0 29.21 23.814">
  <path id="Path_2" data-name="Path 2" d="M87.37,2.839A14.351,14.351,0,0,1,84.385,5.98v.7a17.684,17.684,0,0,1-1.117,6.053,17.513,17.513,0,0,1-3.287,5.531,16.835,16.835,0,0,1-5.322,4.007,16.376,16.376,0,0,1-7.295,1.545,16.255,16.255,0,0,1-4.853-.72A17.934,17.934,0,0,1,58.16,21.08a5.255,5.255,0,0,0,.7.052h.751A11.445,11.445,0,0,0,67.03,18.6a5.94,5.94,0,0,1-5.573-4.185,4.287,4.287,0,0,0,1.1.146,6.578,6.578,0,0,0,.824-.052,7.66,7.66,0,0,0,.772-.146,6.137,6.137,0,0,1-3.465-2.066,5.727,5.727,0,0,1-1.367-3.809V8.411a8.078,8.078,0,0,0,1.273.5,5.236,5.236,0,0,0,1.524.2,5.537,5.537,0,0,1-1.993-2.087,5.953,5.953,0,0,1-.7-2.891A6.167,6.167,0,0,1,60.216,1.1a17.012,17.012,0,0,0,5.427,4.456,16,16,0,0,0,6.919,1.816,5.067,5.067,0,0,1-.146-1.294,6.111,6.111,0,0,1,.47-2.369,5.969,5.969,0,0,1,1.294-1.941A6.032,6.032,0,0,1,76.068.47,5.493,5.493,0,0,1,78.353,0,5.658,5.658,0,0,1,80.8.522a6.876,6.876,0,0,1,1.941,1.367,8.893,8.893,0,0,0,1.993-.553C85.4,1.075,86,.783,86.577.49a6.63,6.63,0,0,1-2.64,3.287,9.762,9.762,0,0,0,1.795-.344A15.362,15.362,0,0,0,87.37,2.839Z" transform="translate(-58.16 0)" fill="#ffffff"/>
</svg>
