<svg xmlns="http://www.w3.org/2000/svg" width="1666.918" height="1192.763" viewBox="0 0 1666.918 1192.763">
  <g id="Group_515" data-name="Group 515" opacity="0.297">
    <g id="Group_490" data-name="Group 490">
      <g id="Group_492" data-name="Group 492">
        <path id="Path_953" data-name="Path 953" d="M777.186,1192.763H722.76c.026-7.988.2-15.982.03-23.97a155.366,155.366,0,0,0-1.1-15.628,122.9,122.9,0,0,0-24.284-59.964,172.543,172.543,0,0,0-33.68-33.29c-17.691-13.489-37-24.211-57.263-33.273-25.312-11.317-51.632-19.685-78.422-26.654-33.921-8.824-68.325-15.334-102.858-21.186-24.079-4.083-48.2-7.938-72.3-11.856-22.138-3.6-44.223-7.475-66.143-12.239a267.933,267.933,0,0,1-33.749-9.231,77.8,77.8,0,0,1-15.423-7.188,28.394,28.394,0,0,1-7.019-5.921c-3.719-4.559-4.136-9.442-1.25-14.557a28.128,28.128,0,0,1,6.632-7.6,70.81,70.81,0,0,1,11.872-7.915,170.355,170.355,0,0,1,20.558-9.3c16.075-6.176,32.582-11,49.126-15.694,28.215-8,56.489-15.8,84.641-24.016a1438.961,1438.961,0,0,0,192.141-70.987c40.7-18.491,81.127-37.552,121.5-56.737,24-11.406,47.989-22.849,71.374-35.5,20.564-11.132,40.659-23.037,59.352-37.138a638.256,638.256,0,0,0,76.68-67.684,331.965,331.965,0,0,0,41.678-52.74,226.741,226.741,0,0,0,28.823-66.54A270.2,270.2,0,0,0,1000.8,422.8a211.118,211.118,0,0,0-.112-39.585,111.573,111.573,0,0,0-17.923-50.31c-4.225-6.411-8.758-12.639-13.486-18.69-8.523-10.9-17.318-21.583-25.967-32.381-9.9-12.362-19.467-24.971-28.35-38.094-16.455-24.31-29.924-50.1-39.006-78.1a318.875,318.875,0,0,0-11.641-30.08c-8.18-18.587-17.665-36.51-27.481-54.267-4.982-9.009-9.968-18.022-14.812-27.1A179.41,179.41,0,0,1,810.8,28.936c-3.27-9.373-5.4-18.911-4.1-28.936h73.8a6.549,6.549,0,0,0,1.455.952c6.559,2.139,13.109,4.324,19.708,6.328,14.841,4.5,29.8,8.513,45.328,9.872,10.51.916,20.872.341,30.9-3.2,8.077-2.857,15.222-7.181,20.69-13.949h34.133a90.334,90.334,0,0,1-16.967,30.387,63.958,63.958,0,0,1-25.269,18.035,83.843,83.843,0,0,1-19.586,5.035c-9.763,1.359-19.592,1.64-29.432,1.888-5.372.136-10.748.479-16.1.975a36.22,36.22,0,0,0-12,3.078c-6.146,2.857-9.459,7.72-9.8,14.445a43.17,43.17,0,0,0,.5,8.252,69.326,69.326,0,0,0,4.529,15.443A259.2,259.2,0,0,0,920.459,122.5c6.477,12.395,12.818,24.852,18.521,37.631,7.915,17.728,14.329,35.938,18.214,55.008A184.028,184.028,0,0,0,964.041,240c4.807,13.545,11.486,26.155,19.047,38.315,5.763,9.264,11.8,18.359,17.529,27.646,3.627,5.878,7.108,11.866,10.305,17.992a116.969,116.969,0,0,1,12.395,43.149c1.326,13.512.757,27.035-.222,40.53-1.074,14.868-2.718,29.683-5.171,44.4a341.292,341.292,0,0,1-8.884,40.011c-9.872,33.683-25.616,64.46-46.114,92.85-21.083,29.2-45.787,55.034-73.258,78.254-18.141,15.337-38.014,28.155-58.681,39.79-22.237,12.524-45.212,23.576-68.477,34.034q-48.328,21.717-96.742,43.248c-34.493,15.417-68.894,31.042-103.5,46.2-36.017,15.78-72.825,29.613-109.56,43.615-17.506,6.672-35.012,13.354-52.122,21.014a201.766,201.766,0,0,0-23.775,12.173,56.561,56.561,0,0,0-10.616,8.08,19.135,19.135,0,0,0-4.235,5.981,8.315,8.315,0,0,0,.661,8.351,19.5,19.5,0,0,0,3.994,4.4,36.672,36.672,0,0,0,6.989,4.417,142.478,142.478,0,0,0,13.631,5.568c12.954,4.434,26.294,7.449,39.687,10.173,24.532,4.986,49.1,9.776,73.635,14.736,26.046,5.263,51.923,11.251,77.474,18.574,27.352,7.839,54.109,17.311,79.857,29.5,19.067,9.029,37.393,19.328,54.35,31.951A183.875,183.875,0,0,1,748.35,1079.7a132.488,132.488,0,0,1,27.633,69.757c.721,7.482.8,15.036,1.005,22.561C777.176,1178.934,777.13,1185.85,777.186,1192.763Z" transform="translate(524.429)" fill="#801b2e"/>
        <path id="Path_955" data-name="Path 955" d="M835.251,0c-.162,1.818.965,3.2,1.68,4.685,6.044,12.606,12.292,25.12,18.19,37.8,6.867,14.762,13.873,29.484,20.055,44.541,12.1,29.458,27.924,56.754,46.283,82.677a987.282,987.282,0,0,0,72.884,90.427c16.683,18.488,33.667,36.705,50.5,55.061,7.171,7.819,14.187,15.774,20.561,24.267,8.077,10.762,14.749,22.284,18.948,35.141a127.048,127.048,0,0,1,5.789,47.282,189.453,189.453,0,0,1-8.024,44.8,178.5,178.5,0,0,1-23.312,47.9c-11.426,16.878-24.829,32.067-39.42,46.247a597.87,597.87,0,0,1-45.549,39.648c-12.527,9.928-25.213,19.655-37.912,29.362C915,645.82,892.732,659.743,869.737,672.534,841,688.52,811.681,703.378,782.25,718.017,742.777,737.649,703,756.637,662.441,773.931a1114.363,1114.363,0,0,1-186.369,60.6c-22.148,5.121-44.455,9.469-66.861,13.337-18.762,3.243-37.525,6.52-56.241,10.031-17.222,3.23-34.222,7.373-50.6,13.757A151.92,151.92,0,0,0,270.964,888a97.071,97.071,0,0,0-16.752,14.4,49.431,49.431,0,0,0-9.833,14.941c-1.61,4.04-2.6,8.2-1.964,12.6a22.951,22.951,0,0,0,6.242,12.6A48,48,0,0,0,261.637,952a130.153,130.153,0,0,0,24.009,9.32,384.172,384.172,0,0,0,39.939,9.171c21.3,3.914,42.7,7.211,64.13,10.358q27.583,4.052,55.134,8.285c23.07,3.584,46.148,7.118,69.165,11.013,32.714,5.535,65.214,12.14,97.188,21.117,21.46,6.024,42.55,13.119,62.91,22.257,19.417,8.719,37.833,19.136,54.459,32.529a155.425,155.425,0,0,1,29.038,30.122,115.307,115.307,0,0,1,21.543,57.57c.909,9.674.585,19.348.75,29.022H726.4c-.251-6.447-.4-12.9-.78-19.341A105.732,105.732,0,0,0,717.7,1139c-6.7-16.184-16.947-29.871-29.643-41.8-12.864-12.091-27.458-21.7-43.023-29.908-19.632-10.348-40.269-18.24-61.405-24.856-35.538-11.125-71.912-18.667-108.561-24.968-15.741-2.708-31.518-5.22-47.3-7.667q-20.72-3.209-41.492-6.05c-13.089-1.789-26.211-3.336-39.32-4.982q-24.236-3.05-48.472-6.087c-16.005-2-31.967-4.3-47.781-7.512-12.358-2.506-24.562-5.574-36.315-10.219a86.071,86.071,0,0,1-19.1-10.094,44.438,44.438,0,0,1-9.36-8.831,29.8,29.8,0,0,1-5.9-24.743,57.209,57.209,0,0,1,7.27-18.326,129.825,129.825,0,0,1,16.633-22.046,291.779,291.779,0,0,1,60.238-49.794A216.915,216.915,0,0,1,298.061,823.5c14.5-5.892,29.488-9.631,45.189-9.991,7.677-.179,15.364-.129,23.044.026,20.594.413,41.178.959,61.759-.658,13.949-1.1,27.828-2.731,41.625-4.982,21.837-3.561,43.427-8.335,64.811-14.015A897.194,897.194,0,0,0,659.23,750.464a1801.692,1801.692,0,0,0,172.35-85.782c21.421-12.087,42.537-24.687,62.536-39.039q32.4-23.254,64.563-46.842a560.533,560.533,0,0,0,47.645-38.57A255.775,255.775,0,0,0,1039.6,503.9c16.253-22,26.231-46.392,28.562-73.807a105.177,105.177,0,0,0-1.9-31.161,113.607,113.607,0,0,0-16.633-38.735A178.207,178.207,0,0,0,1028.563,334q-19.093-19.7-38.576-39.026c-28.83-28.565-57.663-57.124-85.451-86.714-27.051-28.81-53.428-58.208-77.966-89.217a518.413,518.413,0,0,1-37.925-53.877c-11.568-19.192-20.7-39.429-26.439-61.134-.347-1.316-.506-2.688-.751-4.034Z" transform="translate(413.784)" fill="#801b2e"/>
        <path id="Path_957" data-name="Path 957" d="M0,581.162V530.425c1.468-.443,2.936-.9,4.407-1.332a36.389,36.389,0,0,1,28.552,2.863,57.91,57.91,0,0,1,12.854,9.667,118.127,118.127,0,0,1,15.179,18.508,247.277,247.277,0,0,1,16.6,28.707c7.684,15.4,15.241,30.86,23.795,45.8a275.7,275.7,0,0,0,29.114,42c9.1,10.686,19.02,20.508,30.546,28.6a89.6,89.6,0,0,0,25.368,12.884q39.089,11.887,67.195-17.837a80.677,80.677,0,0,0,14-21.024c5.961-12.517,8.943-25.788,10.021-39.532.77-9.809,1.111-19.635,1.16-29.481.033-6.6.311-13.211.648-19.807a135.679,135.679,0,0,1,9.866-43.86c7.35-18.3,17.989-34.573,30.658-49.583,13.241-15.691,28.314-29.455,44.422-42.127,23.011-18.1,47.688-33.654,73.215-47.9,29.8-16.633,60.629-31.19,91.713-45.228,23.094-10.424,46.2-20.812,69.215-31.419a317.1,317.1,0,0,0,38.861-21.087,137.36,137.36,0,0,0,18.389-13.856c5.716-5.207,10.785-10.957,14.379-17.87a41.292,41.292,0,0,0,4.49-25.881,62.347,62.347,0,0,0-5.518-17.509,121.413,121.413,0,0,0-14.9-23.236A240.738,240.738,0,0,0,620.9,177.158a417.3,417.3,0,0,0-46.885-34.229c-15.318-9.694-30.883-18.994-46.366-28.423-11.029-6.712-22-13.506-32.281-21.348A135.312,135.312,0,0,1,477.2,76.865a63.26,63.26,0,0,1-16.818-41.836,102.885,102.885,0,0,1,1.2-19.3C462.4,10.438,463.059,5.082,464.93,0h31.362a65.716,65.716,0,0,0,11.393,31.25A92.98,92.98,0,0,0,525.1,50.207,163.906,163.906,0,0,0,546.48,65.442c12.372,7.449,24.78,14.841,37.327,21.986,24.456,13.922,48.4,28.648,71.268,45.056,33.769,24.221,65.518,50.922,96.325,78.766a236.467,236.467,0,0,1,23.616,24.6,127.465,127.465,0,0,1,13.2,18.862,65.073,65.073,0,0,1,6.351,15.278,38.6,38.6,0,0,1,.932,16.888,39.421,39.421,0,0,1-9.628,19.1,76.545,76.545,0,0,1-15,12.878,165.016,165.016,0,0,1-23.8,13.1c-17.467,8.034-35.561,14.441-53.8,20.412-26.555,8.689-53.193,17.126-79.741,25.834a1012.429,1012.429,0,0,0-95.152,36.054c-27.7,12.286-54.6,26.079-80.122,42.481-18.528,11.912-36.123,25.034-52.059,40.3-12.712,12.17-24.079,25.444-33.23,40.534a132.678,132.678,0,0,0-17.506,45.3c-1.908,10.447-3.045,20.981-4.182,31.518a285.6,285.6,0,0,1-7.723,42.58c-7.68,28.972-21.755,54.367-43.069,75.589a99.089,99.089,0,0,1-25.56,18.713,78.413,78.413,0,0,1-49.275,7.3,105.5,105.5,0,0,1-37.981-14.739A157.448,157.448,0,0,1,140.611,722.4c-13.287-12.9-24.72-27.349-35.412-42.418-10.233-14.425-19.417-29.521-28.463-44.706-6.447-10.828-12.937-21.632-20.32-31.862a90.865,90.865,0,0,0-14.392-16.137,48.537,48.537,0,0,0-13.211-8.3,30.246,30.246,0,0,0-23.768-.046C3.346,579.638,1.68,580.418,0,581.162Z" fill="#801b2e"/>
        <path id="Path_960" data-name="Path 960" d="M637.7,1192.763c-.01-11.836.119-23.672-.066-35.505a187.246,187.246,0,0,0-5.128-42,136.647,136.647,0,0,0-35.26-63.247c-12.14-12.563-25.878-23.13-40.544-32.533-19.708-12.639-40.587-23.047-62.017-32.391a768.843,768.843,0,0,0-87.042-31.366c-17.5-5.237-35.042-10.345-52.482-15.787-7.608-2.377-15.043-5.333-22.472-8.242a78.742,78.742,0,0,1-9.469-4.728,38.906,38.906,0,0,1-5.69-3.908c-7.822-6.434-8.523-13.211-2.109-21.156a42.628,42.628,0,0,1,6.13-6.226,127.281,127.281,0,0,1,11.819-8.8c6.725-4.3,13.575-8.434,20.555-12.306,21.9-12.147,44.385-23.166,66.917-34.087,48.931-23.718,98.623-45.741,148.893-66.471,25.557-10.54,50.849-21.7,75.539-34.163Q668.743,728,691.007,714.023a312.752,312.752,0,0,0,82.383-75.718,353.287,353.287,0,0,0,64.781-138.793,464.771,464.771,0,0,0,8.13-47.672q3.06-26.086,5.634-52.234c1.058-10.851,2.013-21.738,2.354-32.629a157.307,157.307,0,0,0-13.142-68.689c-3.382-7.74-6.629-15.539-9.862-23.345a124.426,124.426,0,0,1-9.161-36.98c-1.736-19.8-7.393-38.573-15.116-56.764-4.443-10.461-9.2-20.789-13.856-31.157-3.273-7.293-6.546-14.584-8.2-22.462a38.435,38.435,0,0,1-.833-11.9,23.883,23.883,0,0,1,6.136-14.127,71.969,71.969,0,0,1,8.457-7.786c4.1-3.227,8.421-6.183,12.709-9.171A116.915,116.915,0,0,0,852.774,33.22c1.26-2.966,2.47-5.958,3.607-8.976A226.828,226.828,0,0,0,863.708,0H884c-.638,2.513-1.365,5.009-1.9,7.541-4.477,21.1-10.543,41.707-19.44,61.382-4.43,9.793-9.462,19.311-14.144,28.992-2.605,5.389-5.287,10.765-7.531,16.306a47.771,47.771,0,0,0-.774,35.125c1.974,5.492,4.209,10.887,6.371,16.306,4.271,10.7,8.778,21.3,12.808,32.093a122.848,122.848,0,0,1,7.846,44.693,152.31,152.31,0,0,0,3.329,31.114c3.352,17.043,6.464,34.1,7.343,51.51a283.469,283.469,0,0,1-.952,40.98c-1.051,11.162-2.714,22.264-3.882,33.419-1.98,18.948-3.726,37.922-5.68,56.873-1.4,13.6-2.84,27.2-4.51,40.768a458.132,458.132,0,0,1-11.211,58.337,366.546,366.546,0,0,1-36.761,91.191c-16.21,28.3-36.563,53.1-61.9,73.744a390.249,390.249,0,0,1-44.927,31.409,634.035,634.035,0,0,1-67.436,35.032c-24.36,10.977-48.888,21.576-73.351,32.334-20.247,8.9-40.418,17.969-59.9,28.489a307.615,307.615,0,0,0-35.273,21.781,108.265,108.265,0,0,0-15.1,12.808,57.722,57.722,0,0,0-5.6,6.718,33.633,33.633,0,0,0-3.686,6.874,17.131,17.131,0,0,0,1.362,15.506,37.32,37.32,0,0,0,9.707,10.375,119.247,119.247,0,0,0,17.569,10.976c12.229,6.473,24.9,12.011,37.555,17.562,19.553,8.576,39.148,17.047,58.225,26.658,18.686,9.413,36.864,19.682,53.874,31.918,13.145,9.459,25.325,19.982,35.846,32.367a120.216,120.216,0,0,1,28.489,67.257,304.9,304.9,0,0,1,1.418,32.688c-.093,16.448-.271,32.893-.423,49.341-.007.764-.1,1.531-.155,2.295Z" transform="translate(717.418)" fill="#801b2e"/>
        <path id="Path_961" data-name="Path 961" d="M770.788,0c-.314,1.666.721,2.946,1.316,4.318a283.646,283.646,0,0,0,19.52,36.566c12.048,19.351,25.788,37.459,40.365,54.952,22.456,26.949,46.491,52.449,71.086,77.434,27.937,28.374,56.674,55.927,85.745,83.134q35.181,32.929,70.4,65.823a400.958,400.958,0,0,1,30.218,31.048,153.358,153.358,0,0,1,21.249,31.157,99.189,99.189,0,0,1,8.831,25.133,88.138,88.138,0,0,1-.532,35.25,113.238,113.238,0,0,1-16.726,39.677,182.794,182.794,0,0,1-27.2,31.835,353.278,353.278,0,0,1-38.57,31.438c-14.888,10.619-29.98,20.951-44.984,31.405-13.489,9.4-27.111,18.627-40.441,28.248a845.033,845.033,0,0,1-78.1,49.761A1368.412,1368.412,0,0,1,725.12,730.1a733.134,733.134,0,0,1-90.48,31.293,457.088,457.088,0,0,1-52.671,11.281,251.26,251.26,0,0,1-40.871,3.1,136.175,136.175,0,0,1-24.257-2.529,87.2,87.2,0,0,1-25.788-9.628c-3.888-2.175-7.746-4.4-11.615-6.612-9.654-5.518-20.019-6.543-30.794-4.807a124.8,124.8,0,0,0-25.6,7.452c-16.779,6.576-32.695,14.9-48.247,23.937a661.646,661.646,0,0,0-101.238,72.908,485.188,485.188,0,0,0-35.9,33.815,197.3,197.3,0,0,0-23.765,30.509A104.411,104.411,0,0,0,203,943.131a47,47,0,0,0-2.6,16.3A27.409,27.409,0,0,0,208.23,978.1a47.234,47.234,0,0,0,12.649,9.135,117.9,117.9,0,0,0,20.554,8.067,394.555,394.555,0,0,0,59.293,13.185c15.823,2.245,31.69,4.053,47.6,5.538s31.822,2.926,47.708,4.648c18.323,1.987,36.655,3.984,54.919,6.463,39.122,5.316,78,12.074,116.463,21.064,25.593,5.984,50.823,13.2,75.258,22.984,16.293,6.523,32.037,14.134,46.749,23.771a156.914,156.914,0,0,1,27.1,22.1c14.1,14.6,23.742,31.627,27.878,51.606a108.8,108.8,0,0,1,2.394,26.1H692.376c.364-5.908-.952-11.621-2.225-17.3-4.143-18.5-13.383-34.209-26.555-47.7-10.609-10.87-22.832-19.6-35.961-27.124a294.92,294.92,0,0,0-47.391-21.394c-30.437-10.9-61.739-18.578-93.406-24.806-15.215-3-30.523-5.544-45.84-7.984-10.464-1.666-21-2.883-31.528-4.126-9.611-1.134-19.245-2.093-28.879-3.018-9.485-.909-18.977-1.7-28.473-2.506-8.88-.75-17.771-1.405-26.651-2.175-8.573-.744-17.142-1.514-25.7-2.394-9.323-.955-18.644-1.944-27.944-3.111-15.241-1.914-30.45-4.077-45.695-5.954-10.828-1.332-21.649-2.691-32.357-4.791-9.214-1.8-18.273-4.133-26.81-8.176a42.261,42.261,0,0,1-12.451-8.6,25.122,25.122,0,0,1-7.168-14.157,37.273,37.273,0,0,1,.436-12.841,79.675,79.675,0,0,1,8.008-21.034,189.717,189.717,0,0,1,15.036-23.742A433.9,433.9,0,0,1,225.7,868.332c12.944-12.054,26.638-23.239,40.253-34.516a931.034,931.034,0,0,1,134.71-93.4,784.31,784.31,0,0,1,72.68-36.946c10.7-4.678,21.513-9.065,32.88-11.9a63.939,63.939,0,0,1,16.382-2.318c9.271.122,16.247,4.024,20.439,12.468.956,1.927,1.875,3.872,2.78,5.822,1.1,2.367,2.176,4.748,3.263,7.121,5.055,11.069,13.588,18,25.263,21.14,2.073.555,4.186.985,6.3,1.359,10.385,1.848,20.842,1.534,31.26.572a272.747,272.747,0,0,0,41.668-7.545,568.952,568.952,0,0,0,72.511-24.082c35.69-14.3,70.233-31.028,104.085-49.2a842.826,842.826,0,0,0,95.889-59.514c12.193-8.831,24.71-17.225,37.237-25.58,15.344-10.229,30.883-20.161,46.283-30.3a458.893,458.893,0,0,0,37.376-26.972,192.6,192.6,0,0,0,29.5-29.081,106.85,106.85,0,0,0,16.571-28.076c7.819-20.224,7.531-40.21-1.637-59.974a140.665,140.665,0,0,0-15.589-25.52,245.892,245.892,0,0,0-28.182-31.035q-19.668-18.463-39.74-36.493c-36.523-32.953-73.278-65.647-109.642-98.772-30.807-28.056-60.7-57.078-89.26-87.438C788.109,95.955,768.259,72.9,750.244,48.31A398.434,398.434,0,0,1,721.774,4.176c-.721-1.319-1.858-2.493-1.723-4.176Z" transform="translate(338.954)" fill="#801b2e"/>
        <path id="Path_965" data-name="Path 965" d="M748.991,0c18.184,29.2,39.79,55.782,62.559,81.461,27.871,31.435,57.607,61.029,88.361,89.624,34.123,31.726,69.3,62.258,104.531,92.725q38.2,33.029,76.273,66.206a449.809,449.809,0,0,1,34.873,33.568,204.349,204.349,0,0,1,19.331,24.069,107.7,107.7,0,0,1,11.036,20.184c6.193,15.427,6.087,30.853.03,46.28A85.241,85.241,0,0,1,1135.7,472.6a137.708,137.708,0,0,1-18.452,20.558,242.865,242.865,0,0,1-32.784,25.375q-22.208,14.466-44.742,28.43c-22.591,14.031-44.852,28.549-66.467,44.055-28.777,20.647-59.289,38.444-90.777,54.585-27.636,14.167-55.878,26.965-85.174,37.346A361.068,361.068,0,0,1,752.2,696a170.114,170.114,0,0,1-27.838,3.706,69.9,69.9,0,0,1-18.333-1.405A43.824,43.824,0,0,1,699,696.163a25.986,25.986,0,0,1-14.683-14.5,62.691,62.691,0,0,1-3.488-12.395c-.926-4.672-1.756-9.363-2.83-14a34.845,34.845,0,0,0-2.3-6.5c-2.972-6.523-8.173-10.14-15.165-11.42-5.858-1.074-11.651-.506-17.417.516-11.228,1.99-22.042,5.492-32.774,9.244-25.428,8.887-49.85,20.072-73.751,32.42a1122.094,1122.094,0,0,0-189.44,123.2c-17.238,13.886-34.411,27.861-51.312,42.15-22.69,19.189-43.41,40.434-63.525,62.272-12.087,13.119-23.867,26.5-34.89,40.537a246.782,246.782,0,0,0-17.01,24.1,103.412,103.412,0,0,0-8.5,16.848,46.046,46.046,0,0,0-3.412,17.07,26.852,26.852,0,0,0,7.971,19.057,43.928,43.928,0,0,0,12.015,8.447,93.047,93.047,0,0,0,21.312,7.274,209.386,209.386,0,0,0,34.2,4.754c18.872,1.061,37.763,1.749,56.628,2.913,13.492.833,26.955,2.156,40.425,3.323,11.175.972,22.336,2.073,33.511,3.052,13.162,1.154,26.334,2.238,39.5,3.352,8.573.727,17.159,1.342,25.719,2.205q14.674,1.488,29.306,3.346c9.294,1.18,18.584,2.427,27.831,3.938,41.331,6.748,81.867,16.518,120.824,32.186a239.51,239.51,0,0,1,43.744,22.581,141.433,141.433,0,0,1,26.03,21.936,98.318,98.318,0,0,1,24.1,45.506c.235,1.045.317,2.122.473,3.184H653.052a11.326,11.326,0,0,0-.413-3.091c-1.461-3.382-2.942-6.771-4.682-10.015-7.376-13.76-17.642-25.087-29.782-34.781a193.817,193.817,0,0,0-33.885-21.318,339.679,339.679,0,0,0-53.937-21.255,482.742,482.742,0,0,0-54.145-13.076c-14.207-2.612-28.473-4.807-42.825-6.434-8.7-.988-17.4-1.97-26.112-2.863-11.466-1.17-22.935-2.268-34.407-3.366-11.013-1.058-22.026-2.119-33.045-3.1-9.793-.866-19.586-1.944-29.4-2.347-14.739-.608-29.5-.86-44.25-.992-23.513-.212-47.037.211-70.5-1.891a235.281,235.281,0,0,1-36.365-5.8,103.513,103.513,0,0,1-22.462-8.186,49.732,49.732,0,0,1-14.736-10.914,28.75,28.75,0,0,1-7.164-25.21,58.651,58.651,0,0,1,6.5-17.648A137.723,137.723,0,0,1,133.346,982.4a405.083,405.083,0,0,1,27.335-31.815c25.55-27.259,52-53.636,78.614-79.851,15.992-15.754,32.295-31.19,49.622-45.476,22.77-18.772,45.542-37.552,68.649-55.9a1282.058,1282.058,0,0,1,158.1-107.434c29.464-16.957,59.828-32.066,91.621-44.21,26.023-9.938,52.548-18.1,80.191-22.191,6.688-.989,13.4-1.623,20.194-.536,9.535,1.527,16.528,6.308,20.369,15.3a58.019,58.019,0,0,1,2.42,6.953c.754,2.655,1.293,5.372,1.9,8.07,1.24,5.544,2.278,11.135,4.5,16.418a25.332,25.332,0,0,0,16.871,15.162,46.707,46.707,0,0,0,11.8,1.871c9.912.35,19.612-1.121,29.236-3.263a288.176,288.176,0,0,0,43.873-13.869,575.578,575.578,0,0,0,118.027-64c14.349-10.061,28.926-19.768,43.929-28.826,15.651-9.449,31.379-18.779,47.043-28.2,13.569-8.166,26.9-16.69,39.376-26.486,9.214-7.237,17.81-15.122,25.044-24.393a75.774,75.774,0,0,0,11.125-19.037,50.459,50.459,0,0,0,2.086-31.217,65.177,65.177,0,0,0-6.635-16.154,141.115,141.115,0,0,0-11.876-17.546,296.226,296.226,0,0,0-30.724-33.085c-15.212-14.355-31.138-27.9-47.1-41.4-35.568-30.07-71.248-60-106.73-90.172-45.225-38.457-89-78.492-130.574-120.9-19.054-19.43-37.763-39.181-55.392-59.928-9.558-11.248-18.839-22.72-27.349-34.791-1.223-1.732-2.175-3.657-3.253-5.492Z" transform="translate(263.89)" fill="#801b2e"/>
        <path id="Path_967" data-name="Path 967" d="M124.9,1192.763c-.05-.437.069-1.068-.172-1.27a13.063,13.063,0,0,0-2.328-1.461c-22.409-11.727-40.292-28.473-54.631-49.166-11.185-16.134-19.711-33.64-26.767-51.9a439.18,439.18,0,0,1-18.316-61.8c-4.81-21.288-8.507-42.782-11.367-64.421-2.42-18.283-4.245-36.622-5.6-55.018A666.564,666.564,0,0,1,4.277,834c.612-16.6,2.189-33.118,6.308-49.288a74.61,74.61,0,0,1,6.464-17.7,50.316,50.316,0,0,1,5.594-8.411c5.759-6.8,13.1-8.722,21.619-6.252A36.579,36.579,0,0,1,54.7,757.143,172.258,172.258,0,0,1,68.86,767.418c8.117,6.817,15.969,13.955,23.874,21.027,9.512,8.507,19.1,16.921,29.293,24.614,13.793,10.414,28.43,19.354,44.514,25.828a134.058,134.058,0,0,0,59.537,9.677,146.681,146.681,0,0,0,53.573-14.183c19.444-9.218,37-21.3,53.2-35.363,20.723-18,39.224-38.123,56.307-59.571,16.491-20.707,31.237-42.643,45.728-64.761,11.552-17.632,21.8-36,31.61-54.644q10.2-19.371,21.044-38.395a255.189,255.189,0,0,1,29.005-40.95c16.005-18.362,34.791-33.369,55.55-45.976,21.08-12.8,43.43-22.941,66.477-31.617a698.209,698.209,0,0,1,81.97-24.73q42.546-10.3,85.683-17.784c23.15-4.014,46.329-7.862,69.512-11.684,17.88-2.946,35.816-5.561,53.672-8.652,18.462-3.2,36.824-6.91,54.711-12.656a168.68,168.68,0,0,0,21.88-8.5,138.113,138.113,0,0,0,12.871-7.155,46.951,46.951,0,0,0,7.2-5.723c7.994-7.522,10.381-16.756,7.968-27.345a61.723,61.723,0,0,0-6.553-16.177,147.79,147.79,0,0,0-14.084-20.5c-11.264-14.071-23.841-26.922-36.89-39.317a771.954,771.954,0,0,0-88.728-71.985q-28.873-20.249-58.175-39.886a456.33,456.33,0,0,1-69.846-57.124c-11.833-11.853-23.378-24.006-34.788-36.272-18.015-19.358-36.143-38.6-55.243-56.9A6.658,6.658,0,0,1,669.161,0H719.9c3.382,4.936,6.718,9.905,10.16,14.805C741.01,30.4,752.116,45.9,764.065,60.764c23.176,28.833,49.639,54.109,80.489,74.667,10.1,6.735,20.118,13.6,30.2,20.373A1232.852,1232.852,0,0,1,986.365,239.74c24.019,20.422,47.582,41.344,69.681,63.859a321.337,321.337,0,0,1,27.117,30.78,119.618,119.618,0,0,1,11.482,17.8,50.922,50.922,0,0,1,4.781,12.93c1.861,9.092-.579,16.729-7.793,22.687a37.248,37.248,0,0,1-4.906,3.425,49.542,49.542,0,0,1-6.963,3.564c-5.154,1.984-10.342,3.921-15.625,5.515-11.919,3.591-24.112,6.093-36.266,8.748-15.311,3.346-30.691,6.331-46.194,8.613-14.59,2.142-29.223,3.991-43.846,5.908-15.843,2.076-31.71,3.984-47.543,6.14s-31.657,4.338-47.434,6.84q-29.126,4.622-57.967,10.841c-25.385,5.449-50.591,11.6-75.377,19.371-24.515,7.687-48.442,16.845-71.331,28.6-26.172,13.433-49.986,30.116-70.613,51.206a346.444,346.444,0,0,0-31.1,37.065c-11.307,15.357-21.738,31.309-32.189,47.248-9.859,15.046-19.83,30.013-30.708,44.349-18.961,24.985-38.365,49.622-58.536,73.642a598.417,598.417,0,0,1-63.211,65.151c-17.972,15.787-37.274,29.663-58.661,40.487-24.714,12.5-50.743,20.111-78.571,21.159a159.444,159.444,0,0,1-56.7-8.153c-14.342-4.758-27.884-11.294-41.149-18.452-7.3-3.941-14.531-8.017-21.917-11.8-4.774-2.443-9.723-4.576-14.686-6.629a36.447,36.447,0,0,0-12.1-2.668,20.207,20.207,0,0,0-16.861,6.93,36.422,36.422,0,0,0-5.918,9.3,81.516,81.516,0,0,0-5.313,16.65c-2.972,13.417-3.977,27.064-4.295,40.742-.235,9.981.05,19.979.37,29.961.255,7.984.727,15.975,1.435,23.93,1.24,13.929,2.933,27.808,5.158,41.621a460.374,460.374,0,0,0,13.165,58.873c5.921,19.777,13.39,38.927,23.709,56.883a163.364,163.364,0,0,0,27.977,36.467c15.651,15.122,34.073,25.56,54.611,32.463a255.064,255.064,0,0,0,37.551,9.185c1.673.294,3.382.4,4.6,1.8Z" transform="translate(8.862)" fill="#801b2e"/>
        <path id="Path_969" data-name="Path 969" d="M741.345,0c.661,1.537,1.213,3.131,2,4.6,5.991,11.188,13.717,21.113,22.257,30.443,14.124,15.423,28.741,30.37,43.668,45.013q85.165,83.519,177.1,159.526,51.209,42.278,102.25,84.757c13.952,11.595,27.682,23.451,40.838,35.955a283.341,283.341,0,0,1,29.947,32.546,110.543,110.543,0,0,1,11.31,17.361A49.856,49.856,0,0,1,1176,427.266a43.277,43.277,0,0,1-2.615,19.91,62.268,62.268,0,0,1-9.314,16.362,115.922,115.922,0,0,1-18.415,18.68,220.923,220.923,0,0,1-27.861,19.645q-21.37,12.75-43.02,25.034c-22.31,12.7-44.276,25.93-65.667,40.14a372.609,372.609,0,0,1-71.744,37.5c-11.625,4.5-23.474,8.255-35.822,10.2-7,1.1-14,1.716-21.107.608-8.689-1.349-15.641-5.326-20.386-12.8a84.09,84.09,0,0,1-4.387-8.094c-1.561-3.167-2.893-6.45-4.437-9.628-1.207-2.483-2.48-4.946-3.918-7.3-6-9.856-14.934-15.146-26.241-16.769a83.255,83.255,0,0,0-18.392-.39c-49.507,3.848-96.636,17.129-142.344,35.958-30.764,12.676-59.875,28.552-88.04,46.2-43.678,27.368-85.458,57.418-125.955,89.276-22.839,17.966-45.05,36.692-67.307,55.368-11.773,9.879-23.633,19.665-35.274,29.7-17.119,14.762-33.4,30.45-49.629,46.167-31.812,30.794-64.193,60.986-96.735,91.006q-17.283,15.944-34.07,32.427c-4.929,4.827-9.376,10.163-13.853,15.43a71.614,71.614,0,0,0-9.168,13.8,48.237,48.237,0,0,0-4.348,12.1,31.9,31.9,0,0,0,3.832,23.1,47.452,47.452,0,0,0,11.466,13.122c7.829,6.391,16.709,10.884,26.112,14.411a188.32,188.32,0,0,0,36.563,9.231c24.052,3.862,48.3,4.844,72.6,4.827,17.83-.01,35.664-.238,53.5-.268,9.68-.013,19.374,0,29.048.341,13.82.493,27.613,1.484,41.354,3.161,11.744,1.432,23.513,2.615,35.257,4.04,24.7,3.005,49.4,6.063,73.81,11.036,24.733,5.039,48.961,11.763,72.137,21.94,17.526,7.7,34.08,17.017,48.822,29.345a117.643,117.643,0,0,1,21.064,22.489c1.848,2.628,3.415,5.455,5.111,8.189H600.208c-.572-2.219-2.344-3.571-3.809-5.108a145.51,145.51,0,0,0-29.5-23.48,217.316,217.316,0,0,0-39.056-18.551c-21.7-7.961-44.117-13.185-66.791-17.361-22.2-4.09-44.488-7.713-66.894-10.557-13.122-1.666-26.294-2.754-39.5-3.174-13.36-.423-26.74-.427-40.114-.45-21.824-.036-43.648.3-65.472-.483a557.743,557.743,0,0,1-56.479-4.629,233.188,233.188,0,0,1-66.527-19.381,143.829,143.829,0,0,1-22.178-12.2A59.957,59.957,0,0,1,90.1,1064.577c-7.416-9.816-9.671-20.69-6.659-32.658a60.457,60.457,0,0,1,9.181-19.486,115.839,115.839,0,0,1,17.814-19.867,307.733,307.733,0,0,1,27.084-21.474c21.173-15.324,42.071-30.992,62.11-47.794,31.349-26.287,61.319-54.089,90.8-82.43,20.948-20.135,42.131-40.008,64.318-58.79,13.254-11.224,26.38-22.6,39.486-34,32.711-28.45,65.839-56.4,100.3-82.73,24.8-18.948,50.036-37.27,76.465-53.907,31.567-19.873,64.662-36.616,99.883-49.044A551.846,551.846,0,0,1,744.1,542.321c13.552-2.767,27.157-5.2,40.868-6.96,10.814-1.385,21.688-2.3,32.549-3.309a214.412,214.412,0,0,1,33.161-.651c12.626.787,24.023,4.916,33.69,13.254,3.138,2.708,6.054,5.67,9.056,8.537,2.777,2.652,5.439,5.435,8.315,7.978a38.956,38.956,0,0,0,26.575,9.935c8.705.03,17.083-1.759,25.342-4.275a188.99,188.99,0,0,0,37.875-16.68q31.9-18.022,64.391-34.963,14.283-7.489,28.413-15.268a281.34,281.34,0,0,0,33.8-21.523,121.9,121.9,0,0,0,16.792-15.073,63.875,63.875,0,0,0,10.487-15.093c5.422-11.208,5.69-22.538.3-33.776a94.143,94.143,0,0,0-7.247-12.279,202,202,0,0,0-21.9-26.115,488.279,488.279,0,0,0-38.276-35.33c-26.549-22.165-53.256-44.134-79.907-66.173-29.375-24.294-59.009-48.28-88.086-72.921-48.2-40.848-95.241-83.028-142-125.512-9.667-8.784-19.245-17.688-28.526-26.876A140,140,0,0,1,707.215,0Z" transform="translate(189.435)" fill="#801b2e"/>
        <path id="Path_973" data-name="Path 973" d="M553.241,1192.763c-.218-13.982-.625-27.977.744-41.919,1.008-10.239,2.384-20.445,3.567-30.668,1.544-13.307,2.41-26.644,1.17-40.021a111.172,111.172,0,0,0-16.065-48.1,153.509,153.509,0,0,0-25.028-30.615,238.98,238.98,0,0,0-32.639-26.284c-10.966-7.366-22.168-14.382-33.263-21.556-8.9-5.756-17.847-11.449-26.687-17.3a135.434,135.434,0,0,1-17.073-13.311,53.8,53.8,0,0,1-9.307-10.795,25.161,25.161,0,0,1-3.967-10.236,22.794,22.794,0,0,1,2.218-12.993,41,41,0,0,1,8.619-11.886c3.875-3.716,7.872-7.343,12.091-10.656a260.705,260.705,0,0,1,31.59-20.707c16.66-9.545,33.422-18.918,50.125-28.387,21.662-12.282,43-25.077,63.316-39.522a378.473,378.473,0,0,0,41.694-34.153,247.878,247.878,0,0,0,59.716-88.271,401.335,401.335,0,0,0,21.189-71.926q4.572-23.07,7.069-46.455,1.954-18.557,3.1-37.2c1.127-17.943,1.812-35.908,2.883-53.854,1.336-22.4,3.4-44.723,6.91-66.9,1.9-11.988,3.065-24.072,4.116-36.169,2.013-23.153,2.139-46.353,1.97-69.562-.086-11.687.152-23.361.78-35.026.2-3.683.572-7.356.734-11.039a110.548,110.548,0,0,0-6.8-42.974c-2.833-7.786-6.136-15.407-9.214-23.107-2.394-5.987-4.791-11.975-7.145-17.982-5.022-12.828-5.554-26.013-3.121-39.446,2.361-13.016,5.958-25.729,9.3-38.5C701.4,43.985,706.271,22.581,709.99.919c.049-.3.049-.612.073-.919h19.374a23.745,23.745,0,0,0-.9,3.045c-1.7,10.619-3.329,21.245-5.025,31.865-2.377,14.868-4.8,29.722-5.683,44.785a90.4,90.4,0,0,0,1.9,24.737c2.179,9.948,5.951,19.361,9.869,28.721,2.906,6.943,5.938,13.843,8.546,20.9a124.509,124.509,0,0,1,7.488,48.888c-.479,11.373-2.407,22.6-3.68,33.9q-2.247,19.921-4.179,39.879c-.886,9.33-1.359,18.7-2.212,28.033-1.319,14.382-2.651,28.767-4.265,43.116q-2.217,19.688-5.072,39.307a407.8,407.8,0,0,0-4.1,42.187q-1.051,25.8-.754,51.636c.261,25.21.162,50.416-1,75.609-.711,15.513-1.908,30.976-3.729,46.4a449.351,449.351,0,0,1-9.419,53.52c-6.391,26.284-15.893,51.328-29.66,74.683a313.138,313.138,0,0,1-37.624,50.607c-13.6,15.089-28.344,29.028-43.2,42.861q-14.848,13.826-29.461,27.9a146.89,146.89,0,0,0-14.693,16.531,77.225,77.225,0,0,0-8.15,12.821,42.825,42.825,0,0,0-4.232,13.1,38.789,38.789,0,0,0,3.4,21.563,71.853,71.853,0,0,0,9.366,15.3q6.9,8.649,14.213,16.957c6.08,6.933,12.418,13.641,18.5,20.571a175.546,175.546,0,0,1,23.024,32.741,121.49,121.49,0,0,1,14.349,48.25,146.276,146.276,0,0,1-2.159,39.482c-2.215,11.459-4.748,22.859-7.26,34.255a298.924,298.924,0,0,0-6.05,38.206c-.893,10.123-.913,20.263-.85,30.41Z" transform="translate(909.808)" fill="#801b2e"/>
        <path id="Path_974" data-name="Path 974" d="M746.779,0a16.657,16.657,0,0,0,.575,3.068c13.681,35.145,34.163,65.545,62.953,90.149,7.836,6.7,16.061,12.887,24.459,18.852,33.716,23.943,67.029,48.429,99.142,74.491q46.181,37.487,91.912,75.529c24.509,20.29,48.862,40.768,72.587,61.981,15.017,13.423,29.789,27.1,43.559,41.826a202.946,202.946,0,0,1,18.468,22.393,87.191,87.191,0,0,1,9.1,16,34.449,34.449,0,0,1,2.708,9.727,19.709,19.709,0,0,1-4.711,15.4,38.712,38.712,0,0,1-10.745,8.593,78.464,78.464,0,0,1-18.349,7.336,156.968,156.968,0,0,1-29.045,4.844c-15.483,1.233-31.008,1.408-46.518,1.947-12.593.436-25.177,1.1-37.723,2.351-14.524,1.445-29.065,2.734-43.6,4.119-15.906,1.518-31.818,2.992-47.711,4.622-17.119,1.756-34.235,3.531-51.322,5.554-20.746,2.453-41.443,5.28-62.007,9.023-40.434,7.36-80.016,17.777-118.232,33.082-30.685,12.286-59.448,27.993-85.719,48.138a447.331,447.331,0,0,0-41.853,36.847c-17.076,16.852-33.263,34.543-49.262,52.409C507.3,668.557,489.2,688.877,470.3,708.449c-10.785,11.168-21.741,22.171-32.543,33.323-15.608,16.124-31.114,32.348-46.726,48.472-23.97,24.757-48.991,48.376-75.777,70.1a357.749,357.749,0,0,1-101.39,57.451c-23.778,8.857-48.1,15.843-72.64,22.2-9.955,2.579-19.844,5.422-29.7,8.335a81.085,81.085,0,0,0-15.268,6.421,51.18,51.18,0,0,0-24.707,28.635,79.042,79.042,0,0,0-4.563,21.579,149.69,149.69,0,0,0,17.053,81.028c13.876,26.515,35.214,44.584,63.141,55.038a207.945,207.945,0,0,0,38.216,10.21c16.045,2.724,32.152,5.095,48.24,7.571,15.635,2.41,31.161,5.419,46.683,8.457,10.543,2.06,21.166,3.759,31.8,5.313,11.092,1.623,22.227,2.985,33.366,4.265,10.223,1.177,20.482,2.066,30.718,3.128,10.391,1.078,20.789,2.119,31.161,3.353,10.216,1.21,20.429,2.506,30.605,4.017,6.831,1.015,13.6,2.46,20.392,3.726,1.055.2,2.159.374,2.453,1.7H292c-.4-1.2-1.418-1.511-2.5-1.736-9.171-1.9-18.336-3.832-27.514-5.7-15.966-3.25-32.09-5.485-48.244-7.561-14.927-1.918-29.845-3.977-44.719-6.285a227.892,227.892,0,0,1-40.19-9.942c-30.394-10.593-53.722-29.815-70.408-57.25a207.711,207.711,0,0,1-20.984-48.016,299.434,299.434,0,0,1-11.264-56.869,267.6,267.6,0,0,1-1.5-34.52c.324-11.542,1.359-23.011,4.417-34.209a60.527,60.527,0,0,1,5.809-14.5c5.25-9.1,12.97-14.5,23.47-15.985a61.781,61.781,0,0,1,13.79-.493c6.735.555,13.466,1.266,20.161,2.175,19.381,2.628,38.814,4.232,58.377,3.052a249.688,249.688,0,0,0,60.5-11.5c32.46-10.282,61.733-26.489,88.556-47.3a568.813,568.813,0,0,0,47.695-42.084c15.1-14.7,29.491-30.073,43.529-45.777q23.358-26.135,46.653-52.32c20.617-23.041,39.853-47.212,58.77-71.648,13.932-17.992,28.106-35.786,43.37-52.68,14.875-16.465,30.83-31.756,48.68-45.01,21.087-15.655,43.956-28.139,68.091-38.381,24.224-10.282,49.232-18.217,74.643-24.948,26-6.887,52.28-12.4,78.816-16.779,17.281-2.85,34.6-5.372,52.006-7.356q20.145-2.3,40.292-4.592c15.112-1.726,30.235-3.346,45.328-5.224,18.749-2.331,37.466-4.92,56.2-7.326,10.818-1.392,21.659-2.615,32.48-3.977,14.474-1.825,28.992-3.389,43.3-6.368a90.082,90.082,0,0,0,18.515-5.478,53.01,53.01,0,0,0,8.467-4.622c7.089-4.877,9.522-11.773,7.994-20.121a45.056,45.056,0,0,0-4.057-11.727,102.016,102.016,0,0,0-9.158-14.908,267.612,267.612,0,0,0-24.281-28.344c-15.364-15.962-31.64-30.962-48.2-45.661-40.706-36.136-82.353-71.142-125.516-104.323C877.4,166.5,850.526,147.8,823.515,129.3c-11.162-7.644-22.267-15.357-32.7-23.99A276.482,276.482,0,0,1,736.486,44.18a380.183,380.183,0,0,1-23.9-42.054c-.337-.684-.575-1.415-.86-2.126Z" transform="translate(56.7)" fill="#801b2e"/>
        <path id="Path_975" data-name="Path 975" d="M510.911,1192.763c-.42-1.594-1.858-1.974-3.108-2.47-6.278-2.493-12.527-5.078-18.885-7.353a366.138,366.138,0,0,0-61.273-16.614c-9.833-1.693-19.748-2.969-29.66-4.133-17.559-2.06-35.214-2.9-52.869-3.789-16.114-.81-32.229-1.673-48.326-2.784-17.936-1.24-35.836-2.939-53.639-5.495-11.555-1.656-22.984-4.02-34.411-6.421-13.671-2.873-27.4-5.5-41.109-8.183-16.432-3.214-32.853-6.444-48.74-11.879a127.088,127.088,0,0,1-27.878-13.083c-18.6-11.972-31.223-28.407-37.042-49.874a76.383,76.383,0,0,1-1.792-31.977c2.086-13.5,8.166-25,17.5-34.877a107.739,107.739,0,0,1,17.671-14.742,288.4,288.4,0,0,1,36.041-20.468c16.683-8.183,33.488-16.124,50.247-24.152,21.788-10.434,42.914-22.012,62.741-35.882,14.881-10.4,29.025-21.745,42.831-33.518,21.536-18.366,42.045-37.832,62.143-57.746,15.288-15.146,30.529-30.344,45.956-45.347,11.9-11.572,24.171-22.766,36.077-34.331,16.759-16.28,33.293-32.791,50-49.123,17.586-17.192,35.125-34.437,52.945-51.388a625.552,625.552,0,0,1,52.958-45.159c35.31-26.8,74.187-46.881,115.931-61.564a549.023,549.023,0,0,1,80.948-21.454c17.668-3.316,35.412-6.116,53.256-8.282,14.792-1.8,29.584-3.617,44.4-5.144,12.226-1.26,24.489-2.152,36.742-3.118,10.877-.856,21.755-1.7,32.645-2.347,14.114-.84,28.231-1.643,42.388-1.273,9.231.241,18.389,1.253,27.544,2.347a281.578,281.578,0,0,0,30.308,2.47,152.524,152.524,0,0,0,38.778-4.675,180.18,180.18,0,0,0,41.664-15.827,94.575,94.575,0,0,0,18.971-13A47.892,47.892,0,0,0,1151.551,440c5.092-8.163,5.792-16.683,2.023-25.537a79.263,79.263,0,0,0-7.515-13.2,204.434,204.434,0,0,0-22.647-27.289c-14.323-14.835-29.746-28.489-45.311-41.985-26.251-22.763-53.19-44.7-80.006-66.781q-48.764-40.16-97.4-80.479Q844.021,137.834,785.36,93.455a225.639,225.639,0,0,1-31.448-28.383C737.2,46.551,725.191,25.286,716.982,1.8a12.911,12.911,0,0,1-.357-1.8h30.44a150.87,150.87,0,0,0,26.043,47.926,178.645,178.645,0,0,0,24.552,24.942c13.985,11.793,28.119,23.408,42.114,35.188q50.981,42.917,101.88,85.931c36.715,31.1,74.068,61.432,111.372,91.819,24.436,19.906,48.819,39.872,72.584,60.572,14.147,12.325,28.02,24.942,40.543,38.96a165.756,165.756,0,0,1,16.438,21.067,74.745,74.745,0,0,1,5.746,10.484,30.667,30.667,0,0,1-.321,25.5,51.645,51.645,0,0,1-9.545,14.048,96.566,96.566,0,0,1-12.7,11.367,165.789,165.789,0,0,1-19.659,12.871,513.8,513.8,0,0,1-89.372,39.033,115.926,115.926,0,0,1-19.265,4.487,58.822,58.822,0,0,1-28.618-2.695c-5.353-1.888-10.606-4.07-15.846-6.262-8.084-3.389-16.25-6.49-24.869-8.285a105.535,105.535,0,0,0-19.652-2.337c-10.143-.185-20.287-.175-30.42.589-10.881.817-21.788,1.306-32.655,2.242-9.948.856-19.873,2-29.782,3.233-9.757,1.21-19.5,2.542-29.213,4.067-43.519,6.831-86.149,16.967-126.983,33.915-36.391,15.1-70.164,34.738-101.906,57.984-22.961,16.815-45.007,34.781-66.388,53.543-20.333,17.847-40.375,36.024-60.483,54.125-19.539,17.586-38.9,35.363-58.516,52.869-21.457,19.149-42.114,39.135-62.758,59.144-24.733,23.976-50.046,47.3-76.587,69.287a561.827,561.827,0,0,1-77.044,53.755q-17.953,10.39-35.545,21.388a207.323,207.323,0,0,0-31.23,23.6,109.688,109.688,0,0,0-16.971,19.387,62.511,62.511,0,0,0-10.051,23.573A48.7,48.7,0,0,0,109,1073.5a63.649,63.649,0,0,0,17.728,17.913,115.014,115.014,0,0,0,22.8,11.985,248.592,248.592,0,0,0,28.863,9.489c15.271,4.093,30.532,8.249,45.88,12.058,12.084,3,24.419,4.695,36.781,6.179,12.673,1.528,25.385,2.546,38.12,3.23,12.12.651,24.264,1.005,36.4,1.3,18.9.466,37.809.651,56.707,1.2,13.826.4,27.64,1.2,41.393,2.734a472.823,472.823,0,0,1,48.161,8.017c18.306,4,36.54,8.275,54.419,13.929,16.59,5.247,32.724,11.591,47.758,20.462,4.361,2.572,8.513,5.5,12.749,8.289.893.589,1.832,1.2,1.789,2.483Z" transform="translate(118.22)" fill="#801b2e"/>
        <path id="Path_976" data-name="Path 976" d="M442.789,0a49.546,49.546,0,0,1-1.465,4.761c-4.417,10.643-8.537,21.391-11.876,32.43A154.334,154.334,0,0,0,423.7,63.254c-2.033,16.792.374,32.754,8.979,47.579a119.577,119.577,0,0,0,20.4,26.053c8.4,8.11,17.129,15.873,25.765,23.738,7.611,6.93,15.364,13.711,22.918,20.7A163.543,163.543,0,0,1,521.9,203.472a86.413,86.413,0,0,1,9.717,16.164,56.5,56.5,0,0,1,4.506,15.423,45.79,45.79,0,0,1-2.589,22.2,72.911,72.911,0,0,1-12.031,20.607,145.752,145.752,0,0,1-18.713,19.05,350.029,350.029,0,0,1-31.59,23.92c-19.778,13.552-40.17,26.148-60.47,38.887-20.69,12.99-41.38,25.977-61.382,40.018-17.761,12.464-34.781,25.841-50.33,41.026-20.958,20.465-38.424,43.479-51.265,69.9a209.877,209.877,0,0,0-18.822,60c-1.789,11.555-2.334,23.226-2.982,34.887q-.729,13.112-1.868,26.2a60.109,60.109,0,0,1-3.713,16.118,39.022,39.022,0,0,1-9.075,14.283,32.18,32.18,0,0,1-22.336,9.482,45.533,45.533,0,0,1-19.682-4.08,77.359,77.359,0,0,1-17.582-10.884,137.643,137.643,0,0,1-25.527-27.726c-9.056-12.676-16.379-26.344-22.918-40.438-5.558-11.982-10.867-24.079-16.405-36.067-5.091-11.019-10.5-21.883-16.531-32.424a143.126,143.126,0,0,0-14.746-21.7,68.621,68.621,0,0,0-10.229-9.945c-11.244-8.728-23.748-10.96-37.4-7.254-2.655.721-5.293,1.5-7.938,2.261V440.021c1.673.453,2.972-.565,4.348-1.164a74.646,74.646,0,0,1,18.934-5.581,44.358,44.358,0,0,1,33.944,8.408,63.523,63.523,0,0,1,10.953,10.51,116.81,116.81,0,0,1,12.752,19.156c5.24,9.578,9.614,19.569,13.965,29.574,6.675,15.354,13.314,30.721,20.158,46a164.033,164.033,0,0,0,13.926,25.441,72.256,72.256,0,0,0,11.307,13.327,30.434,30.434,0,0,0,9.674,6.133c5.548,2.066,10.643,1.2,15.027-2.718a30.461,30.461,0,0,0,5.416-6.229,92.774,92.774,0,0,0,5.9-10.93,138.706,138.706,0,0,0,7.323-21.331c3.425-12.435,6.553-24.958,10.216-37.32a333.864,333.864,0,0,1,49.394-101.443,354.028,354.028,0,0,1,51.927-57.276c12.742-11.34,25.808-22.313,38.758-33.422,11.086-9.509,22.039-19.159,32.133-29.742a164.767,164.767,0,0,0,21.936-27.825c8.665-14.223,12.663-29.514,10.755-46.233A113.826,113.826,0,0,0,394.3,196.2c-2.615-8.351-5.442-16.64-8.193-24.948a125.057,125.057,0,0,1-5.882-27.428A143.08,143.08,0,0,1,385.232,90.9a256.71,256.71,0,0,1,17.5-44.537C409.7,32.338,417.1,18.518,424.271,4.586c.754-1.465,2.01-2.754,1.914-4.586Z" fill="#801b2e"/>
        <path id="Path_977" data-name="Path 977" d="M0,636.51c1.213.212,1.984-.579,2.87-1.194a61.573,61.573,0,0,1,6.143-4.053,24.9,24.9,0,0,1,21.374-1.273,42.125,42.125,0,0,1,9.661,5.32,82.327,82.327,0,0,1,11.628,10.484,218.587,218.587,0,0,1,16.58,20.376c8.55,11.648,17,23.365,25.583,34.989A427.507,427.507,0,0,0,126.6,741.051a204.818,204.818,0,0,0,31.845,27.914c13.231,9.2,27.461,16.273,43.172,20.184q36.694,9.13,70.164-8.461c14.012-7.35,26.281-17.066,37.429-28.2,23.583-23.543,41.436-50.925,54.258-81.639a391.873,391.873,0,0,0,19.4-60.486c2.628-11.059,5.591-22.026,9.032-32.87a149.353,149.353,0,0,1,32.113-55.4,259.11,259.11,0,0,1,42.2-37.032c22.72-16.217,47.083-29.551,72.4-41.2,31.584-14.544,64.272-26.119,97.545-36.12,29.713-8.933,59.782-16.528,89.908-23.9,26.4-6.464,52.836-12.742,78.965-20.25,16.392-4.708,32.642-9.829,48.283-16.706a126.234,126.234,0,0,0,20.234-10.953,60.723,60.723,0,0,0,12.441-10.917c7.693-9.092,10.067-19.46,7.455-31.028a63.458,63.458,0,0,0-6.622-16.647,130.665,130.665,0,0,0-15.483-21.748c-11.641-13.588-24.806-25.6-38.457-37.1q-18.518-15.607-38.133-29.822c-26.039-18.839-51.113-38.91-76.138-59.058q-22.262-17.933-44.964-35.317c-20.68-15.747-42.593-29.7-64.675-43.39q-13.32-8.252-26.413-16.878A148.27,148.27,0,0,1,558.8,15.066c-3.891-3.915-7.436-8.183-11.076-12.342A16.783,16.783,0,0,1,546.106,0h66.418a29.837,29.837,0,0,0,2.585,2.549c7.766,6.034,15.43,12.216,23.378,18a974.7,974.7,0,0,1,85.127,69.916c19.146,17.566,38.633,34.748,59.045,50.849,10.986,8.665,22.343,16.825,33.9,24.7,22.865,15.582,45.536,31.438,67.406,48.4,17.748,13.764,34.973,28.139,50.836,44.081a245.26,245.26,0,0,1,20.478,23.113,119.685,119.685,0,0,1,13.79,21.768,53.811,53.811,0,0,1,5.207,17.113c1.124,10.12-1.931,18.8-8.732,26.244a54.442,54.442,0,0,1-10.213,8.576,113.282,113.282,0,0,1-21.8,10.907c-12.907,5.022-26.238,8.659-39.661,11.972-19.688,4.857-39.558,8.867-59.428,12.871-38.391,7.73-76.842,15.165-115,24.009-36.381,8.434-72.339,18.323-107.358,31.4-26.962,10.071-53.084,21.93-77.758,36.837a301.591,301.591,0,0,0-37.558,26.664A182.383,182.383,0,0,0,450.016,569.3a417.709,417.709,0,0,0-17.46,40.633,542.646,542.646,0,0,1-39.912,84,370.127,370.127,0,0,1-53.461,70.884c-15.129,15.688-31.852,29.372-50.892,40.094A123.879,123.879,0,0,1,249.6,819.265a116.344,116.344,0,0,1-59.094-4.324c-15.582-5.267-29.719-13.221-42.888-22.978a257.029,257.029,0,0,1-37.928-34.94C99.1,745.253,88.88,733.156,78.376,721.31c-5.6-6.325-11.377-12.511-17.235-18.6a81.451,81.451,0,0,0-14.914-12.3A36.282,36.282,0,0,0,34.014,685.2a21.363,21.363,0,0,0-16.293,3.187,28.787,28.787,0,0,0-8.328,7.882c-2.45,3.521-4.589,7.26-6.821,10.93-.711,1.17-1.117,2.562-2.572,3.1Z" fill="#801b2e"/>
        <path id="Path_980" data-name="Path 980" d="M0,59.961V0H309.953c1.812,1.141,3.676,2.205,5.425,3.435C321.9,8.017,325.2,14.21,324.844,22.3a38.265,38.265,0,0,1-2.536,11.654,86.608,86.608,0,0,1-9.234,17.486,200.5,200.5,0,0,1-16.637,21.5,443.566,443.566,0,0,1-33.058,33.429c-12.071,11.175-24.218,22.26-36.239,33.485-12.7,11.856-25.127,23.99-36.937,36.745a237.3,237.3,0,0,0-32.073,43.228c-3.131,5.465-6.232,10.957-9.558,16.3s-6.741,10.652-10.431,15.747a65.451,65.451,0,0,1-22.072,19.229,94.734,94.734,0,0,1-9.505,4.668c-8.54,3.452-17.1,6.85-25.752,10.018C53.745,295.7,27.818,307.9,3.6,323.618c-1.154.747-2.4,1.349-3.6,2.017V284.122a32.489,32.489,0,0,0,3.243-1.7q25.664-17.169,51.292-34.4c9.307-6.262,18.425-12.792,27.117-19.9a360.172,360.172,0,0,0,42.309-41.049c18.277-20.783,37.274-40.874,56.588-60.685,6.645-6.817,12.94-13.985,19.239-21.13a73.452,73.452,0,0,0,9.925-13.83A46,46,0,0,0,213.344,83c2.123-7.135.007-12.534-6.169-16.759a36.922,36.922,0,0,0-9.571-4.46A111.1,111.1,0,0,0,173.65,57.3c-17.476-1.689-35-1.412-52.512-.684-15.2.631-30.38,1.627-45.579,2.252-15.658.648-31.326,1.207-46.994,1.491C19.047,60.529,9.522,60.113,0,59.961Z" fill="#801b2e"/>
        <path id="Path_981" data-name="Path 981" d="M409.581,0c-1.121,1.835-2.232,3.67-3.359,5.5-11.211,18.171-22.35,36.384-33.657,54.492-15.622,25.031-30.357,50.551-43.579,76.948-9.386,18.733-17.285,38.024-22.664,58.284-5.224,19.678-14.041,37.624-25.408,54.42-8.358,12.352-17.506,24.112-26.562,35.948-6.444,8.418-12.851,16.861-19.1,25.424-16.108,22.065-28.985,45.962-39.767,71.01-6.553,15.235-12.848,30.579-19.47,45.781-3.065,7.032-6.44,13.945-10.034,20.72a98.286,98.286,0,0,1-7.763,11.965,35.1,35.1,0,0,1-6.054,6.278c-6.609,5.412-13.416,5.458-20.141.112a39.3,39.3,0,0,1-6.464-6.523c-3.019-3.868-5.822-7.922-8.484-12.044-3.749-5.806-7.264-11.763-10.92-17.628A165.846,165.846,0,0,0,93.145,412.25a85.147,85.147,0,0,0-14.154-13.81c-12.573-9.475-26.694-12.656-42.177-10.487-11.4,1.6-21.943,5.673-32.136,10.834-1.471.744-2.8,1.994-4.678,1.57v-36.9c1.653-.77,3.379-1.422,4.953-2.331,14.98-8.639,30.6-15.694,47.632-19.232a99.087,99.087,0,0,1,31.607-1.736,159.774,159.774,0,0,1,22.568,4.46c6.53,1.723,13.013,3.63,19.708,4.665,10.58,1.63,19.827-.992,27.454-8.609a58.781,58.781,0,0,0,6.285-7.34,91.942,91.942,0,0,0,6.619-10.52c3-5.7,5.918-11.479,8.391-17.427q7.255-17.437,13.955-35.1a255.866,255.866,0,0,1,29.319-55.21q15.527-22.356,32.794-43.384c14.326-17.48,29.481-34.239,44.567-51.054C316.384,97.744,336.2,74.26,354.335,49.4,365.761,33.743,376.513,17.665,384.673,0Z" fill="#801b2e"/>
        <path id="Path_982" data-name="Path 982" d="M477.14,966.909q.377-9.666.757-19.335c.615-14.937,3.029-29.623,6.183-44.207,3.022-13.972,7.24-27.62,11.155-41.35a284.175,284.175,0,0,0,8.477-38.669c3.911-28.066,1.313-55.484-8.632-82.082-3.118-8.338-6.6-16.541-9.978-24.783a207.05,207.05,0,0,1-8.107-23.011,81.109,81.109,0,0,1,1.63-49.4,148.058,148.058,0,0,1,10.239-23.15q9.021-16.336,18.445-32.447c9.271-15.936,18.415-31.931,26.443-48.548a329.673,329.673,0,0,0,27.025-79.606c2.238-11.3,3.845-22.7,5.088-34.163,3.108-28.628,3.534-57.339,2.8-86.086-.314-12.286-.658-24.575-1.2-36.851-.638-14.273-1.56-28.532-2.275-42.8-1.114-22.257-2.079-44.524-1.1-66.808.383-8.735,1.309-17.457,2.242-26.158,1.263-11.757,2.79-23.487,4.159-35.234.82-7.016,1.61-14.038,2.314-21.067.291-2.9.271-5.832.5-8.742.119-1.5.466-2.985.708-4.48V595.15a6.925,6.925,0,0,0-.81,1.567c-.473,2.093-.817,4.212-1.276,6.308-1.9,8.7-4.047,17.341-5.7,26.082a191.4,191.4,0,0,0-2.1,54.608c1.041,10.54,2.377,21.054,3.686,31.567a262.114,262.114,0,0,1-4.437,92.024c-3.23,14.709-7.518,29.124-12.025,43.479-8.474,26.992-15.754,54.254-18.438,82.535a275.861,275.861,0,0,0-1.333,33.588Z" transform="translate(1092.916 225.855)" fill="#801b2e"/>
        <path id="Path_986" data-name="Path 986" d="M0,39.957c1.071-.023,2.146-.129,3.21-.056a184.776,184.776,0,0,1,28.251,3.842,91.384,91.384,0,0,1,9.261,2.724,32.574,32.574,0,0,1,5.419,2.506c8.037,4.553,11.234,11.334,9.727,20.488a49.889,49.889,0,0,1-3.792,12.282,95.081,95.081,0,0,1-8.451,14.772,153.039,153.039,0,0,1-18.2,21.963c-7.174,7.155-14.6,14.051-21.94,21.037-.975.926-1.861,2.126-3.488,1.911Z" transform="translate(0 91.959)" fill="#801b2e"/>
      </g>
      <path id="Path_987" data-name="Path 987" d="M0,300.5c1.3.307,1.494,1.369,1.7,2.453.929,4.979,1.835,9.965,2.82,14.937,5.72,28.8,12.861,57.223,23.1,84.793,7.131,19.206,15.761,37.684,26.962,54.892a174.57,174.57,0,0,0,34.149,39.079c1.041.873,2.324,1.57,2.6,3.1H58.116a35.368,35.368,0,0,0-2.576-3.743A213.208,213.208,0,0,1,28.992,458.5C19.01,440.8,11.2,422.142,4.615,402.95,3.723,400.342,2.8,397.736,2,395.095a3.425,3.425,0,0,0-2-2.347Z" transform="translate(0 693.009)" fill="#801b2e"/>
      <path id="Path_989" data-name="Path 989" d="M543.02,0c-5.468,6.768-12.613,11.092-20.69,13.949-10.024,3.544-20.386,4.119-30.9,3.2-15.532-1.359-30.486-5.369-45.328-9.872-6.6-2-13.149-4.189-19.708-6.328A6.549,6.549,0,0,1,424.943,0Z" transform="translate(979.99)" fill="#801b2e"/>
      <path id="Path_990" data-name="Path 990" d="M0,346.26c1.63.859,2.159,2.506,2.9,4.014a258.931,258.931,0,0,0,14.716,26.592c3.075,4.777,6.388,9.4,9.591,14.094.681,1,1.656,1.871,1.4,3.27H1.845c-.093-1.908-.106-1.918-1.845-1.845Z" transform="translate(0 798.534)" fill="#801b2e"/>
      <path id="Path_991" data-name="Path 991" d="M509.42,80.257c-1.2-4.873-2.447-9.733-3.591-14.62-4.152-17.748-4.658-35.713-3.114-53.791.337-3.954.777-7.9,1.17-11.846h5.535Z" transform="translate(1157.498)" fill="#801b2e"/>
      <path id="Path_992" data-name="Path 992" d="M0,360.226c1.739-.073,1.752-.063,1.845,1.845H0Z" transform="translate(0 830.693)" fill="#801b2e"/>
    </g>
  </g>
</svg>
