<svg xmlns="http://www.w3.org/2000/svg" width="19.477" height="19.687"><path data-name="Path 855" d="M4.053 16.947a8.838 8.838 0 012.417-3.205c2.335-2.513 2.639-2.653-.553-3.992-.252-.104-.49-.235-.735-.355-.62-.304-.735-.748-.344-1.306a4.6 4.6 0 01.529-.624 39.415 39.415 0 018.13-5.876.819.819 0 01.748.019c.308.256.245.654.036.97-.796 1.216-1.636 2.393-2.405 3.62-.622.99-.492 1.418.54 1.897.824.378 1.692.66 2.515 1.04.93.43 1.051 1.19.284 1.928a9.51 9.51 0 01-1.524 1.122 70.467 70.467 0 01-8.582 4.663c-.333.148-.667.303-1.056.1z" fill="#d52316"/></svg>