<svg xmlns="http://www.w3.org/2000/svg" width="17.777" height="18.362"><g data-name="Group 466" fill="#fff"><path data-name="Path 839" d="M9.032.005C4.918-.179-.158 4.57.004 9.733s3.6 8.655 8.8 8.628c6.043.047 9.081-4.641 8.975-9.122C17.653 4.084 14.184.235 9.032.005zm7.029 10.162a9.728 9.728 0 01-1.385 3.65 7.48 7.48 0 01-12.264-.074 6.729 6.729 0 01-.989-4.051 7.183 7.183 0 01.612-3.272C3.812 1.96 8.197.407 12.601 2.72c3.036 1.601 4.076 4.054 3.46 7.447z"/><path data-name="Path 840" d="M7.793 5.22c-.472-.3-1.108-.862-1.57-.1-.4.657.215 1.138.675 1.519.669.556 1.407 1.029 2.088 1.571.464.369 1.139.512 1.358 1.278-.356.782-1.238 1.1-1.829 1.71-.421.435-.884.834-1.27 1.3a.746.746 0 00.064.961.63.63 0 00.927.1 18.974 18.974 0 003.877-3.473c.63-.791.535-1.271-.252-2.033A24.974 24.974 0 007.793 5.22z"/></g></svg>