<svg xmlns="http://www.w3.org/2000/svg" width="17.777" height="18.362" viewBox="0 0 17.777 18.362">
  <g id="Group_466" data-name="Group 466" transform="translate(0 0)">
    <path id="Path_839" data-name="Path 839" d="M793.91,265.613c-4.114-.184-9.19,4.565-9.028,9.728s3.6,8.655,8.8,8.628c6.043.047,9.081-4.641,8.975-9.122C802.531,269.692,799.062,265.843,793.91,265.613Zm7.029,10.162a9.728,9.728,0,0,1-1.385,3.65,7.48,7.48,0,0,1-12.264-.074,6.729,6.729,0,0,1-.989-4.051,7.183,7.183,0,0,1,.612-3.272c1.777-4.46,6.162-6.013,10.566-3.7C800.515,269.929,801.555,272.382,800.939,275.775Z" transform="translate(-784.878 -265.608)" fill="#fff"/>
    <path id="Path_840" data-name="Path 840" d="M799.241,275.934c-.472-.3-1.108-.862-1.57-.1-.4.657.215,1.138.675,1.519.669.556,1.407,1.029,2.088,1.571.464.369,1.139.512,1.358,1.278-.356.782-1.238,1.1-1.829,1.71-.421.435-.884.834-1.27,1.3a.746.746,0,0,0,.064.961.63.63,0,0,0,.927.1,18.974,18.974,0,0,0,3.877-3.473c.63-.791.535-1.271-.252-2.033A24.974,24.974,0,0,0,799.241,275.934Z" transform="translate(-791.448 -270.714)" fill="#fff"/>
  </g>
</svg>
