<svg xmlns="http://www.w3.org/2000/svg" viewBox="0 0 22.81 22.81"><g data-name="Layer 2"><path d="M11.4 2.06a40.76 40.76 0 014.6.11 3.83 3.83 0 012 .44 3.28 3.28 0 011.3.87 3.39 3.39 0 01.87 1.3 9.85 9.85 0 01.43 2.06 40.87 40.87 0 01.11 4.56 40.76 40.76 0 01-.08 4.6 3.86 3.86 0 01-.43 2 3.39 3.39 0 01-.87 1.3 3.39 3.39 0 01-1.3.87 10 10 0 01-2.07.43 40.76 40.76 0 01-4.56.11 40.87 40.87 0 01-4.56-.11 3.81 3.81 0 01-2.06-.43 3.39 3.39 0 01-1.3-.87 3.28 3.28 0 01-.87-1.3 10.51 10.51 0 01-.44-2 40.76 40.76 0 01-.11-4.56 40.87 40.87 0 01.11-4.56 3.79 3.79 0 01.44-2.06 3.28 3.28 0 01.87-1.3 3.28 3.28 0 011.3-.87 10.36 10.36 0 012.06-.44 40.87 40.87 0 014.56-.11m0-2.1a42.14 42.14 0 00-4.67.11A8.09 8.09 0 004 .65 6.2 6.2 0 002 2 6.2 6.2 0 00.65 4a8.74 8.74 0 00-.54 2.73A43.36 43.36 0 000 11.4a43.24 43.24 0 00.11 4.67 8.1 8.1 0 00.54 2.72A6.06 6.06 0 002 20.85a6 6 0 002 1.3 8.43 8.43 0 002.71.55 43.36 43.36 0 004.67.11 42 42 0 004.67-.11 7.83 7.83 0 002.72-.55 5.52 5.52 0 003.36-3.36 8.44 8.44 0 00.55-2.72 43.24 43.24 0 00.11-4.67 43.36 43.36 0 00-.11-4.67A7.82 7.82 0 0022.15 4a6 6 0 00-1.3-2A6.06 6.06 0 0018.79.65a8.75 8.75 0 00-2.72-.54A42 42 0 0011.4 0zm0 5.54a5.87 5.87 0 105.87 5.86 5.91 5.91 0 00-5.87-5.86zm0 9.66a3.8 3.8 0 010-7.6 3.8 3.8 0 010 7.6zM17.48 4a1.41 1.41 0 100 2.82 1.44 1.44 0 001.42-1.39A1.37 1.37 0 0017.48 4z" fill="#fff" data-name="Layer 1"/></g></svg>