<svg xmlns="http://www.w3.org/2000/svg" width="15.188" height="14.883" viewBox="0 0 15.188 14.883">
  <path id="Path_895" data-name="Path 895" d="M789.613,173.559c-.6-.525-.3-.75-.412-1.912s.188-4.086-.113-4.161-.819.41-.819.41c-.919.847-1.56,1.443-2.207,2.032-.7.636-.95.858-1.377.755-.008,0-.012-.009-.019-.011-.862-.262-3.411-2.361-3.786-1.8s1.274,3.711.862,4.348a14.909,14.909,0,0,1-3.073,2.436c-.825.525-.712,1.162-.375,1.237.19.042,1.128.132,1.912.2.54.064,1.03.122,1.519.174,1.911.206,2.039.32,2.3,2.154a19.115,19.115,0,0,0,.271,1.942c.107.423.147,1.022.857.993a5.562,5.562,0,0,0,1.3-2.33c.59-1.3.782-2.073,2.237-2.287.133-.019.864-.032,1-.05.7-.039,1.45-.05,1.762-.05,1.737,0,1.986-.412,1.649-1.012A31.336,31.336,0,0,0,789.613,173.559Z" transform="translate(-778.039 -167.479)" fill="#ff365c"/>
</svg>
