<svg xmlns="http://www.w3.org/2000/svg" width="29.21" height="23.814"><path data-name="Path 2" d="M29.21 2.839a14.351 14.351 0 01-2.985 3.141v.7a17.684 17.684 0 01-1.117 6.053 17.513 17.513 0 01-3.287 5.531 16.835 16.835 0 01-5.322 4.007 16.376 16.376 0 01-7.295 1.545 16.255 16.255 0 01-4.853-.72A17.934 17.934 0 010 21.08a5.255 5.255 0 00.7.052h.751A11.445 11.445 0 008.87 18.6a5.94 5.94 0 01-5.573-4.185 4.287 4.287 0 001.1.146 6.578 6.578 0 00.824-.052 7.66 7.66 0 00.772-.146 6.137 6.137 0 01-3.465-2.066 5.727 5.727 0 01-1.367-3.809v-.077a8.078 8.078 0 001.273.5 5.236 5.236 0 001.524.2 5.537 5.537 0 01-1.993-2.087 5.953 5.953 0 01-.7-2.891A6.167 6.167 0 012.056 1.1a17.012 17.012 0 005.427 4.456 16 16 0 006.919 1.816 5.067 5.067 0 01-.146-1.294 6.111 6.111 0 01.47-2.369 5.969 5.969 0 011.294-1.941A6.032 6.032 0 0117.908.47 5.493 5.493 0 0120.193 0a5.658 5.658 0 012.447.522 6.876 6.876 0 011.941 1.367 8.893 8.893 0 001.993-.553A20.703 20.703 0 0028.417.49a6.63 6.63 0 01-2.64 3.287 9.762 9.762 0 001.795-.344 15.362 15.362 0 001.638-.594z" fill="#fff"/></svg>