<svg xmlns="http://www.w3.org/2000/svg" width="2809.688" height="85.807" viewBox="0 0 2809.688 85.807">
  <g id="Group_806" data-name="Group 806" transform="translate(1438 -1720.324)">
    <g id="Group_477" data-name="Group 477" transform="translate(-25 -46)">
      <path id="Path_902" data-name="Path 902" d="M0,0H15L77.688,85.807h-15Z" transform="translate(395 1766.324)" fill="#ff365c"/>
      <path id="Path_903" data-name="Path 903" d="M0,0H15L77.688,85.807h-15Z" transform="translate(353 1766.324)" fill="#ff365c"/>
      <path id="Path_904" data-name="Path 904" d="M0,0H15L77.688,85.807h-15Z" transform="translate(311 1766.324)" fill="#ff365c"/>
      <path id="Path_905" data-name="Path 905" d="M0,0H15L77.688,85.807h-15Z" transform="translate(269 1766.324)" fill="#ff365c"/>
      <path id="Path_906" data-name="Path 906" d="M0,0H15L77.688,85.807h-15Z" transform="translate(605 1766.324)" fill="#ff365c"/>
      <path id="Path_907" data-name="Path 907" d="M0,0H15L77.688,85.807h-15Z" transform="translate(521 1766.324)" fill="#ff365c"/>
      <path id="Path_908" data-name="Path 908" d="M0,0H15L77.688,85.807h-15Z" transform="translate(479 1766.324)" fill="#ff365c"/>
      <path id="Path_909" data-name="Path 909" d="M0,0H15L77.688,85.807h-15Z" transform="translate(437 1766.324)" fill="#ff365c"/>
      <path id="Path_910" data-name="Path 910" d="M0,0H15L77.688,85.807h-15Z" transform="translate(731 1766.324)" fill="#ff365c"/>
      <path id="Path_911" data-name="Path 911" d="M0,0H15L77.688,85.807h-15Z" transform="translate(689 1766.324)" fill="#ff365c"/>
      <path id="Path_912" data-name="Path 912" d="M0,0H15L77.688,85.807h-15Z" transform="translate(647 1766.324)" fill="#ff365c"/>
      <path id="Path_913" data-name="Path 913" d="M0,0H15L77.688,85.807h-15Z" transform="translate(563 1766.324)" fill="#ff365c"/>
      <path id="Path_914" data-name="Path 914" d="M0,0H15L77.688,85.807h-15Z" transform="translate(899 1766.324)" fill="#ff365c"/>
      <path id="Path_915" data-name="Path 915" d="M0,0H15L77.688,85.807h-15Z" transform="translate(857 1766.324)" fill="#ff365c"/>
      <path id="Path_916" data-name="Path 916" d="M0,0H15L77.688,85.807h-15Z" transform="translate(815 1766.324)" fill="#ff365c"/>
      <path id="Path_917" data-name="Path 917" d="M0,0H15L77.688,85.807h-15Z" transform="translate(773 1766.324)" fill="#ff365c"/>
      <path id="Path_918" data-name="Path 918" d="M0,0H15L77.688,85.807h-15Z" transform="translate(1067 1766.324)" fill="#ff365c"/>
      <path id="Path_919" data-name="Path 919" d="M0,0H15L77.688,85.807h-15Z" transform="translate(1025 1766.324)" fill="#ff365c"/>
      <path id="Path_920" data-name="Path 920" d="M0,0H15L77.688,85.807h-15Z" transform="translate(983 1766.324)" fill="#ff365c"/>
      <path id="Path_921" data-name="Path 921" d="M0,0H15L77.688,85.807h-15Z" transform="translate(941 1766.324)" fill="#ff365c"/>
      <path id="Path_922" data-name="Path 922" d="M0,0H15L77.688,85.807h-15Z" transform="translate(1235 1766.324)" fill="#ff365c"/>
      <path id="Path_923" data-name="Path 923" d="M0,0H15L77.688,85.807h-15Z" transform="translate(1193 1766.324)" fill="#ff365c"/>
      <path id="Path_924" data-name="Path 924" d="M0,0H15L77.688,85.807h-15Z" transform="translate(1151 1766.324)" fill="#ff365c"/>
      <path id="Path_925" data-name="Path 925" d="M0,0H15L77.688,85.807h-15Z" transform="translate(1109 1766.324)" fill="#ff365c"/>
      <path id="Path_926" data-name="Path 926" d="M0,0H15L77.688,85.807h-15Z" transform="translate(59 1766.324)" fill="#ff365c"/>
      <path id="Path_930" data-name="Path 930" d="M0,0H15L77.688,85.807h-15Z" transform="translate(227 1766.324)" fill="#ff365c"/>
      <path id="Path_931" data-name="Path 931" d="M0,0H15L77.688,85.807h-15Z" transform="translate(185 1766.324)" fill="#ff365c"/>
      <path id="Path_932" data-name="Path 932" d="M0,0H15L77.688,85.807h-15Z" transform="translate(143 1766.324)" fill="#ff365c"/>
      <path id="Path_933" data-name="Path 933" d="M0,0H15L77.688,85.807h-15Z" transform="translate(101 1766.324)" fill="#ff365c"/>
      <path id="Path_927" data-name="Path 927" d="M0,0H15L77.688,85.807h-15Z" transform="translate(17 1766.324)" fill="#ff365c"/>
      <path id="Path_928" data-name="Path 928" d="M0,0H15L77.688,85.807h-15Z" transform="translate(-25 1766.324)" fill="#ff365c"/>
      <path id="Path_929" data-name="Path 929" d="M0,0H15L77.688,85.807h-15Z" transform="translate(-67 1766.324)" fill="#ff365c"/>
      <path id="Path_934" data-name="Path 934" d="M0,0H15L77.688,85.807h-15Z" transform="translate(1277 1766.324)" fill="#ff365c"/>
      <path id="Path_935" data-name="Path 935" d="M0,0H15L77.688,85.807h-15Z" transform="translate(1319 1766.324)" fill="#ff365c"/>
    </g>
    <g id="Group_805" data-name="Group 805" transform="translate(-1371 -46)">
      <path id="Path_902-2" data-name="Path 902" d="M0,0H15L77.688,85.807h-15Z" transform="translate(395 1766.324)" fill="#ff365c"/>
      <path id="Path_903-2" data-name="Path 903" d="M0,0H15L77.688,85.807h-15Z" transform="translate(353 1766.324)" fill="#ff365c"/>
      <path id="Path_904-2" data-name="Path 904" d="M0,0H15L77.688,85.807h-15Z" transform="translate(311 1766.324)" fill="#ff365c"/>
      <path id="Path_905-2" data-name="Path 905" d="M0,0H15L77.688,85.807h-15Z" transform="translate(269 1766.324)" fill="#ff365c"/>
      <path id="Path_906-2" data-name="Path 906" d="M0,0H15L77.688,85.807h-15Z" transform="translate(605 1766.324)" fill="#ff365c"/>
      <path id="Path_907-2" data-name="Path 907" d="M0,0H15L77.688,85.807h-15Z" transform="translate(521 1766.324)" fill="#ff365c"/>
      <path id="Path_908-2" data-name="Path 908" d="M0,0H15L77.688,85.807h-15Z" transform="translate(479 1766.324)" fill="#ff365c"/>
      <path id="Path_909-2" data-name="Path 909" d="M0,0H15L77.688,85.807h-15Z" transform="translate(437 1766.324)" fill="#ff365c"/>
      <path id="Path_910-2" data-name="Path 910" d="M0,0H15L77.688,85.807h-15Z" transform="translate(731 1766.324)" fill="#ff365c"/>
      <path id="Path_911-2" data-name="Path 911" d="M0,0H15L77.688,85.807h-15Z" transform="translate(689 1766.324)" fill="#ff365c"/>
      <path id="Path_912-2" data-name="Path 912" d="M0,0H15L77.688,85.807h-15Z" transform="translate(647 1766.324)" fill="#ff365c"/>
      <path id="Path_913-2" data-name="Path 913" d="M0,0H15L77.688,85.807h-15Z" transform="translate(563 1766.324)" fill="#ff365c"/>
      <path id="Path_914-2" data-name="Path 914" d="M0,0H15L77.688,85.807h-15Z" transform="translate(899 1766.324)" fill="#ff365c"/>
      <path id="Path_915-2" data-name="Path 915" d="M0,0H15L77.688,85.807h-15Z" transform="translate(857 1766.324)" fill="#ff365c"/>
      <path id="Path_916-2" data-name="Path 916" d="M0,0H15L77.688,85.807h-15Z" transform="translate(815 1766.324)" fill="#ff365c"/>
      <path id="Path_917-2" data-name="Path 917" d="M0,0H15L77.688,85.807h-15Z" transform="translate(773 1766.324)" fill="#ff365c"/>
      <path id="Path_918-2" data-name="Path 918" d="M0,0H15L77.688,85.807h-15Z" transform="translate(1067 1766.324)" fill="#ff365c"/>
      <path id="Path_919-2" data-name="Path 919" d="M0,0H15L77.688,85.807h-15Z" transform="translate(1025 1766.324)" fill="#ff365c"/>
      <path id="Path_920-2" data-name="Path 920" d="M0,0H15L77.688,85.807h-15Z" transform="translate(983 1766.324)" fill="#ff365c"/>
      <path id="Path_921-2" data-name="Path 921" d="M0,0H15L77.688,85.807h-15Z" transform="translate(941 1766.324)" fill="#ff365c"/>
      <path id="Path_922-2" data-name="Path 922" d="M0,0H15L77.688,85.807h-15Z" transform="translate(1235 1766.324)" fill="#ff365c"/>
      <path id="Path_923-2" data-name="Path 923" d="M0,0H15L77.688,85.807h-15Z" transform="translate(1193 1766.324)" fill="#ff365c"/>
      <path id="Path_924-2" data-name="Path 924" d="M0,0H15L77.688,85.807h-15Z" transform="translate(1151 1766.324)" fill="#ff365c"/>
      <path id="Path_925-2" data-name="Path 925" d="M0,0H15L77.688,85.807h-15Z" transform="translate(1109 1766.324)" fill="#ff365c"/>
      <path id="Path_926-2" data-name="Path 926" d="M0,0H15L77.688,85.807h-15Z" transform="translate(59 1766.324)" fill="#ff365c"/>
      <path id="Path_930-2" data-name="Path 930" d="M0,0H15L77.688,85.807h-15Z" transform="translate(227 1766.324)" fill="#ff365c"/>
      <path id="Path_931-2" data-name="Path 931" d="M0,0H15L77.688,85.807h-15Z" transform="translate(185 1766.324)" fill="#ff365c"/>
      <path id="Path_932-2" data-name="Path 932" d="M0,0H15L77.688,85.807h-15Z" transform="translate(143 1766.324)" fill="#ff365c"/>
      <path id="Path_933-2" data-name="Path 933" d="M0,0H15L77.688,85.807h-15Z" transform="translate(101 1766.324)" fill="#ff365c"/>
      <path id="Path_927-2" data-name="Path 927" d="M0,0H15L77.688,85.807h-15Z" transform="translate(17 1766.324)" fill="#ff365c"/>
      <path id="Path_928-2" data-name="Path 928" d="M0,0H15L77.688,85.807h-15Z" transform="translate(-25 1766.324)" fill="#ff365c"/>
      <path id="Path_929-2" data-name="Path 929" d="M0,0H15L77.688,85.807h-15Z" transform="translate(-67 1766.324)" fill="#ff365c"/>
      <path id="Path_934-2" data-name="Path 934" d="M0,0H15L77.688,85.807h-15Z" transform="translate(1277 1766.324)" fill="#ff365c"/>
      <path id="Path_935-2" data-name="Path 935" d="M0,0H15L77.688,85.807h-15Z" transform="translate(1319 1766.324)" fill="#ff365c"/>
    </g>
  </g>
</svg>
