<svg xmlns="http://www.w3.org/2000/svg" width="2809.688" height="85.807"><g data-name="Group 806" fill="#ff365c"><g data-name="Group 477"><path data-name="Path 902" d="M1808 0h15l62.688 85.807h-15z"/><path data-name="Path 903" d="M1766 0h15l62.688 85.807h-15z"/><path data-name="Path 904" d="M1724 0h15l62.688 85.807h-15z"/><path data-name="Path 905" d="M1682 0h15l62.688 85.807h-15z"/><path data-name="Path 906" d="M2018 0h15l62.688 85.807h-15z"/><path data-name="Path 907" d="M1934 0h15l62.688 85.807h-15z"/><path data-name="Path 908" d="M1892 0h15l62.688 85.807h-15z"/><path data-name="Path 909" d="M1850 0h15l62.688 85.807h-15z"/><path data-name="Path 910" d="M2144 0h15l62.688 85.807h-15z"/><path data-name="Path 911" d="M2102 0h15l62.688 85.807h-15z"/><path data-name="Path 912" d="M2060 0h15l62.688 85.807h-15z"/><path data-name="Path 913" d="M1976 0h15l62.688 85.807h-15z"/><path data-name="Path 914" d="M2312 0h15l62.688 85.807h-15z"/><path data-name="Path 915" d="M2270 0h15l62.688 85.807h-15z"/><path data-name="Path 916" d="M2228 0h15l62.688 85.807h-15z"/><path data-name="Path 917" d="M2186 0h15l62.688 85.807h-15z"/><path data-name="Path 918" d="M2480 0h15l62.688 85.807h-15z"/><path data-name="Path 919" d="M2438 0h15l62.688 85.807h-15z"/><path data-name="Path 920" d="M2396 0h15l62.688 85.807h-15z"/><path data-name="Path 921" d="M2354 0h15l62.688 85.807h-15z"/><path data-name="Path 922" d="M2648 0h15l62.688 85.807h-15z"/><path data-name="Path 923" d="M2606 0h15l62.688 85.807h-15z"/><path data-name="Path 924" d="M2564 0h15l62.688 85.807h-15z"/><path data-name="Path 925" d="M2522 0h15l62.688 85.807h-15z"/><path data-name="Path 926" d="M1472 0h15l62.688 85.807h-15z"/><path data-name="Path 930" d="M1640 0h15l62.688 85.807h-15z"/><path data-name="Path 931" d="M1598 0h15l62.688 85.807h-15z"/><path data-name="Path 932" d="M1556 0h15l62.688 85.807h-15z"/><path data-name="Path 933" d="M1514 0h15l62.688 85.807h-15z"/><path data-name="Path 927" d="M1430 0h15l62.688 85.807h-15z"/><path data-name="Path 928" d="M1388 0h15l62.688 85.807h-15z"/><path data-name="Path 929" d="M1346 0h15l62.688 85.807h-15z"/><path data-name="Path 934" d="M2690 0h15l62.688 85.807h-15z"/><path data-name="Path 935" d="M2732 0h15l62.688 85.807h-15z"/></g><g data-name="Group 805"><path data-name="Path 902" d="M462 0h15l62.688 85.807h-15z"/><path data-name="Path 903" d="M420 0h15l62.688 85.807h-15z"/><path data-name="Path 904" d="M378 0h15l62.688 85.807h-15z"/><path data-name="Path 905" d="M336 0h15l62.688 85.807h-15z"/><path data-name="Path 906" d="M672 0h15l62.688 85.807h-15z"/><path data-name="Path 907" d="M588 0h15l62.688 85.807h-15z"/><path data-name="Path 908" d="M546 0h15l62.688 85.807h-15z"/><path data-name="Path 909" d="M504 0h15l62.688 85.807h-15z"/><path data-name="Path 910" d="M798 0h15l62.688 85.807h-15z"/><path data-name="Path 911" d="M756 0h15l62.688 85.807h-15z"/><path data-name="Path 912" d="M714 0h15l62.688 85.807h-15z"/><path data-name="Path 913" d="M630 0h15l62.688 85.807h-15z"/><path data-name="Path 914" d="M966 0h15l62.688 85.807h-15z"/><path data-name="Path 915" d="M924 0h15l62.688 85.807h-15z"/><path data-name="Path 916" d="M882 0h15l62.688 85.807h-15z"/><path data-name="Path 917" d="M840 0h15l62.688 85.807h-15z"/><path data-name="Path 918" d="M1134 0h15l62.688 85.807h-15z"/><path data-name="Path 919" d="M1092 0h15l62.688 85.807h-15z"/><path data-name="Path 920" d="M1050 0h15l62.688 85.807h-15z"/><path data-name="Path 921" d="M1008 0h15l62.688 85.807h-15z"/><path data-name="Path 922" d="M1302 0h15l62.688 85.807h-15z"/><path data-name="Path 923" d="M1260 0h15l62.688 85.807h-15z"/><path data-name="Path 924" d="M1218 0h15l62.688 85.807h-15z"/><path data-name="Path 925" d="M1176 0h15l62.688 85.807h-15z"/><path data-name="Path 926" d="M126 0h15l62.688 85.807h-15z"/><path data-name="Path 930" d="M294 0h15l62.688 85.807h-15z"/><path data-name="Path 931" d="M252 0h15l62.688 85.807h-15z"/><path data-name="Path 932" d="M210 0h15l62.688 85.807h-15z"/><path data-name="Path 933" d="M168 0h15l62.688 85.807h-15z"/><path data-name="Path 927" d="M84 0h15l62.688 85.807h-15z"/><path data-name="Path 928" d="M42 0h15l62.688 85.807h-15z"/><path data-name="Path 929" d="M0 0h15l62.688 85.807h-15z"/><path data-name="Path 934" d="M1344 0h15l62.688 85.807h-15z"/><path data-name="Path 935" d="M1386 0h15l62.688 85.807h-15z"/></g></g></svg>