<svg xmlns="http://www.w3.org/2000/svg" width="237.409" height="12.306" viewBox="0 0 237.409 12.306">
  <path id="Path_853" data-name="Path 853" d="M835.355,319.292a39.213,39.213,0,0,0-6.595-.141c-17.5.206-4.92.21-22.42.448-22.709.309-120.3,2.954-142.978,3.615-3.351.1-58.282,1.2-61.276,1.738-1.177.211-2.5.686-2.636,1.083-.24.687,1.507,1.038,3.527,1.172,2.916.289,57.393-1,60.374-1.054,10.3-.2,41.055-.979,66.686-1.64,20.18-.52,63.993-1.874,63.993-1.874s12.295-.689,33.509-1c2.891-.043,6.014-.034,8.425-.781C837.219,320.465,836.876,319.534,835.355,319.292Z" transform="matrix(1, 0.017, -0.017, 1, -593.626, -329.496)" fill="#d52316"/>
</svg>
