<svg xmlns="http://www.w3.org/2000/svg" width="237.409" height="12.306"><path data-name="Path 1191" d="M236.301 3.997a39.219 39.219 0 00-6.593-.253c-17.503-.092-4.923.126-22.427.067-22.714-.077-120.35.909-143.04 1.184-3.352.043-58.302.21-61.305.696C1.756 5.882.424 6.335.28 6.73c-.251.683 1.49 1.063 3.507 1.232 2.912.338 57.41-.025 60.392-.028 10.304-.025 41.072-.281 66.714-.506 20.19-.177 64.025-.786 64.025-.786s8.909-.35 24.923-.424c2.477-.012 5.441-.017 8.602-.01 2.892.006 6.015.068 8.438-.638 1.263-.368.936-1.305-.581-1.573z" fill="#3a112f"/></svg>