<svg xmlns="http://www.w3.org/2000/svg" width="237.409" height="12.306"><path data-name="Path 853" d="M236.301 3.997a39.219 39.219 0 00-6.593-.253c-17.503-.092-4.923.126-22.427.067-22.714-.077-120.35.909-143.04 1.184-3.352.043-58.302.21-61.305.696C1.756 5.882.424 6.335.28 6.73c-.251.683 1.49 1.063 3.507 1.232 2.912.338 57.41-.025 60.392-.028 10.304-.025 41.072-.281 66.714-.506 20.19-.177 64.025-.786 64.025-.786s12.307-.48 33.526-.43c2.892.005 6.015.067 8.438-.639 1.262-.371.935-1.308-.582-1.576z" fill="#d52316"/></svg>