<svg xmlns="http://www.w3.org/2000/svg" width="411.133" height="287.467" viewBox="0 0 411.133 287.467">
  <g id="Group_806" data-name="Group 806" transform="translate(-895.237 -645.324)">
    <g id="Group_499" data-name="Group 499" transform="matrix(-0.921, 0.391, -0.391, -0.921, 2580.075, 1029.883)">
      <path id="Path_1048" data-name="Path 1048" d="M1411.571,942.318l.372.069c.665-2.36,2.223-4.1,3.773-5.889a57.873,57.873,0,0,0,4.885-6.069,22.73,22.73,0,0,0,3.876-13c-.006-.463.165-1.3-.241-1.332-1.481-.111-.927-1.2-.994-1.888-.187-1.925-.245-3.863-.384-5.793-.022-.309.027-.943-.42-.8-.95.3-.852-.447-.989-.87a21.212,21.212,0,0,1-.916-3.322c-.525-3.465-2.527-5.914-5.144-8.047-3.649-2.971-7.579-5.594-10.969-8.889a9.172,9.172,0,0,0-1.6-1.028c-.738.665-.127,1.6-.647,2.236-2.54-1.794-3.732-4.586-5.625-7.133-.467,1.121-.78,1.965-1.167,2.774-.347.728-.72.751-1.125.039-.418-.733-.721-1.531-1.066-2.3a21.806,21.806,0,0,0-2.788-4.918c-.71.732-.59,1.816-1.441,2.388-.66-.872-.833-1.952-1.572-2.671-.684.478-.266,1.516-1.113,2.051-1.01-2.388-1.255-4.954-2.751-7.286.271,4.337,4.025,22.586,5.01,24.342a39.151,39.151,0,0,0,2.249-10.48,1.426,1.426,0,0,1,.314.706,26.794,26.794,0,0,1-.713,11.485c-.278.913-.834,1.856-.623,2.789a28.894,28.894,0,0,0,1.8,5.149,17.018,17.018,0,0,0,2.843-6.346,39.777,39.777,0,0,0,1.346-6.674,13.36,13.36,0,0,1,.234,6.644,53.834,53.834,0,0,1-2.421,7.782c-.18.435-.545.876-.331,1.37.647,1.5,1.313,2.991,2.032,4.456.241.49.671.224.832-.1a17.888,17.888,0,0,0,.81-2.017c.307-.853.507-1.753.886-2.571a23.931,23.931,0,0,0,2.6-8.628c.015-.251.045-.467.358-.567.482.471.366,1.109.353,1.672a35.586,35.586,0,0,1-1.285,8.4,27.211,27.211,0,0,1-2.231,5.331,2.146,2.146,0,0,0-.2,2.084,23.623,23.623,0,0,0,2.926,4.4,64.273,64.273,0,0,1,3.811-7.568c1.508-2.406,1.4-5.431,2.744-8.1.442,1.162.481,1.166.4,2.032a42.252,42.252,0,0,1-3.87,13.518c-.3.648-.714,1.254-1,1.922a2.074,2.074,0,0,0,.1,2.08,47.016,47.016,0,0,1,2.388,4.687c.649,1.263,1.145,1.289,2.142.234a3.335,3.335,0,0,0,.654-1.073c1.847-4.53,4.052-8.927,5.055-13.768a2.635,2.635,0,0,1,.71-1.544,1.472,1.472,0,0,1,.436,1.439,49.941,49.941,0,0,1-.686,5.576,55.7,55.7,0,0,1-3.665,10.8,4.889,4.889,0,0,0-.571,3.162C1409.765,936.3,1410.694,939.3,1411.571,942.318Z" fill="#441333"/>
      <path id="Path_1049" data-name="Path 1049" d="M1381.791,869.931c-.575,2.225-.384,4.4-.873,6.4-.826.283-1.007-.731-1.741-.617-.2,1.194-.388,2.376-.6,3.554-.254,1.4-.268,1.4-1.718,1-.034.045-.1.088-.1.134q-.025.632-.031,1.264c-.018,2.241-.063,2.268-2,1.284-.082-.041-.22.029-.5.074-.964,3.7-.818,7.569-.989,11.348-.949.3-1.5-.687-2.465-.391a63.891,63.891,0,0,0,1.538,7.23c.919,3.072,1.875,6.133,2.795,9.2.192.642.452,1.369-.719,1.344-.6-.013-.689.387-.5.866.875,2.21,1.1,4.585,1.757,6.851a17.7,17.7,0,0,0,5.168,8.386,19.691,19.691,0,0,0,4.941,3c3.276,1.556,6.323,3.565,9.691,4.939a33.4,33.4,0,0,1,5.915,3.144c2.819,1.877,5.943,3.243,8.674,5.258.122.09.311.186.556-.12a49.389,49.389,0,0,0-2.43-5.922c-2.773-5.72-5.962-11.219-9.081-16.752-2.556-4.534-5.215-9.022-7.386-13.747a90.512,90.512,0,0,1-7.309-23.885c-.568-3.647-1.1-7.3-1.687-10.943A6.486,6.486,0,0,0,1381.791,869.931Z" fill="#5b1438"/>
      <path id="Path_1050" data-name="Path 1050" d="M1408.161,938.16c-2.773-5.72-5.962-11.219-9.081-16.752-2.556-4.534-5.216-9.022-7.386-13.747a90.512,90.512,0,0,1-7.309-23.885c-.568-3.647-1.1-7.3-1.687-10.943-.074-.461-.134-.931-.253-1.407.04,3.723.211,16.648.678,18.483.546,2.147-5.836-6.219-6.645-4.341s-.093,5.536,4.795,11.091,7.843,9.985,8.037,11.826-12.1-9.359-12.8-8.847,8.685,10.655,12.844,13.346,8.752,9.724,7.946,10.508-6.591-1.463-11.853-5.734-8.21-6.611-10.344-7.343c.192.642.452,1.369-.719,1.344-.6-.013-.688.387-.5.866.875,2.21,1.1,4.585,1.757,6.851a17.7,17.7,0,0,0,5.168,8.386,19.691,19.691,0,0,0,4.941,3c3.276,1.556,6.323,3.565,9.691,4.939a33.4,33.4,0,0,1,5.915,3.144c2.819,1.877,5.943,3.243,8.674,5.258.122.09.311.186.556-.12A49.389,49.389,0,0,0,1408.161,938.16Z" fill="#501530"/>
      <g id="Group_498" data-name="Group 498">
        <path id="Path_1051" data-name="Path 1051" d="M1418.275,895.974c.6-.32.6-1.342,1.308-1.178.737.17.751,1.04.884,1.661.419,1.958,1.078,3.841,1.676,5.744a6.39,6.39,0,0,0,.662,1.639c.64.107.732-.649,1.309-.671a2.643,2.643,0,0,1,.148.664,40.691,40.691,0,0,0,.824,8.47c.087.482-.026,1.11.881.9.379-.089.33.422.308.692-.45,5.427-.888,10.873-3.368,15.851a32.32,32.32,0,0,1-5.181,7.825c-1.114,1.19-2.133,2.469-3.194,3.708a5.418,5.418,0,0,0-1.188,5.242c.4,1.457.835,2.9,1.26,4.355.1.349.289.751-.159.941a.872.872,0,0,1-1-.208,2.744,2.744,0,0,1-.571-.911c-.681-2.137-2.3-3.5-3.934-4.857a56.729,56.729,0,0,0-7.986-4.972c-4.917-2.848-10.1-5.2-15.085-7.914a30.723,30.723,0,0,1-7.47-5.4,17.476,17.476,0,0,1-4.46-8.168c-.8-3.2-1.34-6.483-2.833-9.447.683-.474,1.3-.092,2.092-.287-1.372-2.837-2.869-5.608-3.435-8.7a26.068,26.068,0,0,1-.408-9.18c.816-.3,1.222.411,1.834.635.42-.392.21-.9.236-1.354a53.229,53.229,0,0,1,1.3-8.772,8.119,8.119,0,0,1,.324-1.038c.528-1.392.532-1.391,2.034-1.247.3-.96-.081-2.04.448-2.95.611-.162.849.5,1.4.487.08-.1.239-.222.277-.372.307-1.229.6-2.461.879-3.7.146-.658.438-1.014,1.13-.652.812.426.9-.064.976-.692a27.759,27.759,0,0,0-.019-7.443c1.405,1.577,2.531,2.8,3.608,4.065s1.306,2.991,2.343,4.277c.5-.078.349-.76.867-.846.886.963,1.1,2.346,1.821,3.43a1.764,1.764,0,0,0,.4-.234c.324-.388-.085-1.237.7-1.294.638-.046.811.636,1.156,1.032a37.092,37.092,0,0,1,3,4.095c.249.381.39.9.966,1.043.5-.7.16-1.7.913-2.444a36.2,36.2,0,0,0,3.911,4.412c.27.241.508.518.774.763,1.063.977,1.065.974,1.881-.5.714.388.941,1.2,1.5,1.705a37.553,37.553,0,0,0,8.52,6.391,12.227,12.227,0,0,1,3.912,3.189C1417.061,894.505,1417.671,895.248,1418.275,895.974Zm-6.7,46.344.372.069c.665-2.36,2.223-4.1,3.773-5.889a57.873,57.873,0,0,0,4.885-6.069,22.73,22.73,0,0,0,3.876-13c-.006-.463.165-1.3-.241-1.332-1.481-.111-.927-1.2-.994-1.888-.187-1.925-.245-3.863-.384-5.793-.022-.309.027-.943-.42-.8-.95.3-.852-.447-.989-.87a21.212,21.212,0,0,1-.916-3.322c-.525-3.465-2.527-5.914-5.144-8.047-3.649-2.971-7.579-5.594-10.969-8.889a9.172,9.172,0,0,0-1.6-1.028c-.738.665-.127,1.6-.647,2.236-2.54-1.794-3.732-4.586-5.625-7.133-.467,1.121-.78,1.965-1.167,2.774-.347.728-.72.751-1.125.039-.418-.733-.721-1.531-1.066-2.3a21.806,21.806,0,0,0-2.788-4.918c-.71.732-.59,1.816-1.441,2.388-.66-.872-.833-1.952-1.572-2.671-.684.478-.266,1.516-1.113,2.051-1.01-2.388-1.255-4.954-2.751-7.286.271,4.337,4.025,22.586,5.01,24.342a39.151,39.151,0,0,0,2.249-10.48,1.426,1.426,0,0,1,.314.706,26.794,26.794,0,0,1-.713,11.485c-.278.913-.834,1.856-.623,2.789a28.894,28.894,0,0,0,1.8,5.149,17.018,17.018,0,0,0,2.843-6.346,39.777,39.777,0,0,0,1.346-6.674,13.36,13.36,0,0,1,.234,6.644,53.834,53.834,0,0,1-2.421,7.782c-.18.435-.545.876-.331,1.37.647,1.5,1.313,2.991,2.032,4.456.241.49.671.224.832-.1a17.888,17.888,0,0,0,.81-2.017c.307-.853.507-1.753.886-2.571a23.931,23.931,0,0,0,2.6-8.628c.015-.251.045-.467.358-.567.482.471.366,1.109.353,1.672a35.586,35.586,0,0,1-1.285,8.4,27.211,27.211,0,0,1-2.231,5.331,2.146,2.146,0,0,0-.2,2.084,23.623,23.623,0,0,0,2.926,4.4,64.273,64.273,0,0,1,3.811-7.568c1.508-2.406,1.4-5.431,2.744-8.1.442,1.162.481,1.166.4,2.032a42.252,42.252,0,0,1-3.87,13.518c-.3.648-.714,1.254-1,1.922a2.074,2.074,0,0,0,.1,2.08,47.016,47.016,0,0,1,2.388,4.687c.649,1.263,1.145,1.289,2.142.234a3.335,3.335,0,0,0,.654-1.073c1.847-4.53,4.052-8.927,5.055-13.768a2.635,2.635,0,0,1,.71-1.544,1.472,1.472,0,0,1,.436,1.439,49.941,49.941,0,0,1-.686,5.576,55.7,55.7,0,0,1-3.665,10.8,4.889,4.889,0,0,0-.571,3.162C1409.765,936.3,1410.694,939.3,1411.571,942.318Zm-29.78-72.387c-.575,2.225-.384,4.4-.873,6.4-.826.283-1.007-.731-1.741-.617-.2,1.194-.388,2.376-.6,3.554-.254,1.4-.268,1.4-1.718,1-.034.045-.1.088-.1.134q-.025.632-.031,1.264c-.018,2.241-.063,2.268-2,1.284-.082-.041-.22.029-.5.074-.964,3.7-.818,7.569-.989,11.348-.949.3-1.5-.687-2.465-.391a63.891,63.891,0,0,0,1.538,7.23c.919,3.072,1.875,6.133,2.795,9.2.192.642.452,1.369-.719,1.344-.6-.013-.689.387-.5.866.875,2.21,1.1,4.585,1.757,6.851a17.7,17.7,0,0,0,5.168,8.386,19.691,19.691,0,0,0,4.941,3c3.276,1.556,6.323,3.565,9.691,4.939a33.4,33.4,0,0,1,5.915,3.144c2.819,1.877,5.943,3.243,8.674,5.258.122.09.311.186.556-.12a49.389,49.389,0,0,0-2.43-5.922c-2.773-5.72-5.962-11.219-9.081-16.752-2.556-4.534-5.215-9.022-7.386-13.747a90.512,90.512,0,0,1-7.309-23.885c-.568-3.647-1.1-7.3-1.687-10.943A6.486,6.486,0,0,0,1381.791,869.931Z" fill="#3b122e"/>
        <path id="Path_1052" data-name="Path 1052" d="M1418.792,906.638a47.721,47.721,0,0,0-5.935-8.441c-2.276-2.54-5.045-4.558-7.561-6.858,1.261.065,2.094.908,3.018,1.51a49.285,49.285,0,0,1,5.955,4.7,13.877,13.877,0,0,1,4.6,8.586A1.761,1.761,0,0,1,1418.792,906.638Z" fill="#3b122e"/>
        <path id="Path_1053" data-name="Path 1053" d="M1380.47,911.8a61.4,61.4,0,0,0,8.457,7.522c2.985,2.289,6.449,3.671,9.863,5.131-.268.6-.61.535-.874.459-3.129-.907-6.388-1.473-9.246-3.13a22.048,22.048,0,0,1-7.779-7.94A2.312,2.312,0,0,1,1380.47,911.8Z" fill="#3b122e"/>
        <path id="Path_1054" data-name="Path 1054" d="M1374.887,897.471a29.7,29.7,0,0,0,6.162,7.034c2.921,2.623,6.133,4.877,9.152,7.219C1385.326,911.538,1375.924,903.15,1374.887,897.471Z" fill="#3b122e"/>
        <path id="Path_1055" data-name="Path 1055" d="M1386.412,897.3a8.912,8.912,0,0,1-3.31-1.778,31.9,31.9,0,0,1-4.651-4.506c-1.343-1.446-1.57-3.393-1.973-5.447a2.667,2.667,0,0,1,1.192,1.5,17.85,17.85,0,0,0,3.876,4.946c1.537,1.438,3.022,2.931,4.525,4.4C1386.305,896.651,1386.734,896.817,1386.412,897.3Z" fill="#3b122e"/>
      </g>
    </g>
    <g id="Group_506" data-name="Group 506" transform="translate(24.558 -424.124)">
      <g id="Group_505" data-name="Group 505" transform="translate(1031.965 1071.029)">
        <path id="Path_1098" data-name="Path 1098" d="M1117.634,1143.682a1.434,1.434,0,0,1,1.923-.99,51.559,51.559,0,0,1,6.911,1.942,14.617,14.617,0,0,0,2.073.632c-.956-1.135-2.357-1.5-3.616-2.083-1.327-.613-2.71-1.1-4.069-1.649-.291-.117-.749-.149-.66-.576.093-.451.343-.9.939-.846.33.026.655.125.985.15,2.252.174,4.394.919,6.629,1.263-1.555-1.268-3.46-1.77-5.228-2.56-.434-.193-1.285-.077-1.133-.827.169-.837.842-1.029,1.714-.869a53.892,53.892,0,0,1,7.311,1.98,4.542,4.542,0,0,0,1.869.41,35.163,35.163,0,0,0-9.087-3.682c.565-1.672.581-1.7,1.975-1.52a43.844,43.844,0,0,1,6.275,1.42c-.11-.83-.777-.88-1.229-1.064-1.354-.551-2.742-1.018-4.121-1.5-.251-.088-.569-.129-.506-.461a.612.612,0,0,1,.71-.544c.973.167,1.939.377,3,.587-.34-1.118-1.487-1-2.055-1.653-.185-.605.436-.737.682-1.078,1.287-1.777,2.764-3.444,3.457-5.573a1.474,1.474,0,0,1,1.431-1.1,18.326,18.326,0,0,1,10.281,1.823c1.985.9,2.644,2.827,2.061,5.284-.23.968-.554,1.914-.8,2.877a7.722,7.722,0,0,0,.341,4.895c.074.186.152.369.216.558,1.055,3.15.472,4.709-2.517,6.169a9.3,9.3,0,0,0-5.192,5.966c-1.338,4.556-3.648,8.7-5.8,12.892a7.58,7.58,0,0,1-5.188,4.029c-4.939,1.2-9.521.661-13.594-2.585-1.373-1.095-3-1.918-3.833-3.691,1.486.668,2.968,1.346,4.459,2a7.418,7.418,0,0,0,4.066.716,1.536,1.536,0,0,0,1.54-1.673,25.981,25.981,0,0,0-1.04-9.473c-.18-.567-.365-1.132-.542-1.677.4-.731,1.153.114,1.583-.477-.822-1.073-2.942-.908-2.845-2.895,1.208.015,2.314.88,3.664.59-1.473-1.864-4.358-1.439-5.722-3.89,3.894.016,7,1.838,10.352,2.595C1122.939,1145.78,1120.235,1144.846,1117.634,1143.682Z" transform="translate(-1025.033 -1066.379)" fill="#c92c27"/>
        <path id="Path_1099" data-name="Path 1099" d="M1127.184,1152.686c2.219-3.661.668-2.983,3.21-6.258s5.66-3.413,6.6-6.352-1.673-6.8-2.839-12.03c-.573-2.57-.363-3.912,0-4.611-.113.013-.226.024-.34.039a1.474,1.474,0,0,0-1.431,1.1c-.693,2.128-2.169,3.8-3.457,5.573-.246.34-.867.472-.682,1.078.568.649,1.715.536,2.055,1.653-1.06-.211-2.026-.42-3-.588a.612.612,0,0,0-.71.544c-.064.332.255.374.506.462,1.38.486,2.768.953,4.121,1.5.452.185,1.119.235,1.229,1.066a43.832,43.832,0,0,0-6.275-1.421c-1.394-.179-1.41-.152-1.975,1.52a35.164,35.164,0,0,1,9.087,3.682,4.544,4.544,0,0,1-1.869-.41,53.856,53.856,0,0,0-7.311-1.98c-.873-.16-1.545.033-1.714.869-.152.749.7.633,1.133.827,1.769.79,3.674,1.293,5.228,2.56-2.234-.344-4.377-1.089-6.629-1.263-.33-.025-.655-.124-.985-.15-.6-.049-.845.4-.939.846-.089.427.369.458.66.576,1.359.545,2.742,1.036,4.069,1.649,1.259.582,2.661.948,3.616,2.083a14.618,14.618,0,0,1-2.073-.632,51.559,51.559,0,0,0-6.911-1.942,1.434,1.434,0,0,0-1.923.99c2.6,1.164,5.305,2.1,7.665,3.838-3.349-.757-6.458-2.579-10.352-2.6,1.364,2.451,4.25,2.026,5.722,3.89-1.35.29-2.456-.575-3.664-.59-.1,1.987,2.023,1.822,2.845,2.895-.43.591-1.185-.254-1.583.477.177.545.362,1.11.542,1.677a25.982,25.982,0,0,1,1.04,9.473,1.536,1.536,0,0,1-1.54,1.673,7.417,7.417,0,0,1-4.066-.716c-1.491-.657-2.973-1.335-4.459-2,.837,1.773,2.46,2.6,3.833,3.691a14.691,14.691,0,0,0,3.586,2.123,24.9,24.9,0,0,0,5.1-1.932C1124.361,1164.206,1124.965,1156.348,1127.184,1152.686Z" transform="translate(-1025.033 -1066.371)" fill="#af1f24"/>
        <g id="Group_504" data-name="Group 504">
          <path id="Path_1100" data-name="Path 1100" d="M1083,1082.659a5.714,5.714,0,0,0,4-.853c3.306-1.957,4.817-1.756,7.742,1.049-.487.678-1.114.217-1.61.128a6.8,6.8,0,0,0-5.656,1.18,8.725,8.725,0,0,1-3.743,1.253,30.262,30.262,0,0,0-4.013,1.154c-.475.169-.942.642-1.47.24-.418-.317-.579,1.011-1,.112-.609.361-1.359.512-1.8,1.115a11.925,11.925,0,0,0-.694,1.2c-.06,1.73-.967,3.278-1.05,5.009a20.379,20.379,0,0,0,.292,6.136,1.68,1.68,0,0,1-.037,1.477c-.782-.067-1.854.053-1.621-1.232.427-2.353-.081-4.746.544-7.1a11.461,11.461,0,0,1,1.926-4.3c-.488-1.66.27-2.866,1.46-3.873.894-.757,1.847-1.447,2.772-2.166a18.442,18.442,0,0,0-3.361,1.651,3.288,3.288,0,0,0-1.893,3.2,3.758,3.758,0,0,1-.648,2.266,10.147,10.147,0,0,0-.252-2.649c-.362-.96-.5-1.911.708-2.531.552-.282.591-.973.7-1.573a3.1,3.1,0,0,1,5.089-1.9c.594.432.487.852.117,1.331A6.237,6.237,0,0,1,1083,1082.659Z" transform="translate(-1028.267 -1070.074)" fill="#c92c27"/>
          <path id="Path_1101" data-name="Path 1101" d="M1116.929,1159.35a3.9,3.9,0,0,0-2.316-.19,161.186,161.186,0,0,1-17.7,1.309,19.106,19.106,0,0,1-12.732-4.329,35.636,35.636,0,0,1-7.188-7.15,9.943,9.943,0,0,1-1.164-1.852,16.584,16.584,0,0,0-6.324-7.272c-.383-.261-.749-.544-1.165-.847l.531-2.036-.235-.177c-.488.459-.959.936-1.469,1.37a.658.658,0,0,1-.907-.046c-.231-.207-.126-.478-.06-.734.228-.869,1.161-1.445,1.1-2.757a15.694,15.694,0,0,0-2.518,2.382.513.513,0,0,1-.7.16c-.341-.2-.163-.467-.036-.672a5.075,5.075,0,0,0,1.238-2.586c-1.086.33-1.666,1.249-2.483,1.817-.349.243-.638.513-1.022.137-.3-.3-.138-.6.057-.886a5.711,5.711,0,0,0,.9-1.849c-1.036.124-1.443.982-2.186,1.156a2.6,2.6,0,0,1-.635-1.259c-.535-2-.326-2.267,1.47-3.274,2.873-1.611,6.064-2.053,9.212-2.421a38.793,38.793,0,0,1,18.089,1.888,59.71,59.71,0,0,0,13.245,3.629,5.781,5.781,0,0,1,2.234.816,49.351,49.351,0,0,1,9.353,7.11,28.247,28.247,0,0,1,6.391,9.322,42.437,42.437,0,0,1,3.365,11.245c.024.2.062.4.081.594.154,1.567-.073,1.778-1.642,1.3a25.132,25.132,0,0,1-2.964-1.172c-1.076-.487-1.836-1.464-2.981-1.714C1115.989,1159.546,1116.746,1159.965,1116.929,1159.35Z" transform="translate(-1029.358 -1066.061)" fill="#c92c27"/>
          <path id="Path_1102" data-name="Path 1102" d="M1059.923,1132.823a2.6,2.6,0,0,0,.635,1.259c.743-.174,1.149-1.032,2.186-1.156a5.71,5.71,0,0,1-.9,1.849c-.194.284-.361.589-.057.886.386.376.673.107,1.022-.137.817-.568,1.4-1.487,2.483-1.817a5.075,5.075,0,0,1-1.238,2.586c-.127.205-.305.474.036.672a.513.513,0,0,0,.7-.16,15.689,15.689,0,0,1,2.518-2.382c.063,1.312-.87,1.888-1.1,2.757-.067.256-.172.528.06.734a.659.659,0,0,0,.907.046c.51-.433.981-.91,1.469-1.37l.235.177-.531,2.036c.416.3.782.587,1.163.847a16.579,16.579,0,0,1,6.326,7.272,9.938,9.938,0,0,0,1.164,1.852,35.612,35.612,0,0,0,7.188,7.15,20.937,20.937,0,0,0,4.772,2.856c-1.282-.961-5.527-4.521-5.843-9.7-.373-6.106.4-11.578,1.229-12.985a2.547,2.547,0,0,0-1.285-3.754c-1.635-.791-4.729-1.238-6.247-.536s-3.289,2.025-5.021,1.365-10.146-3.9-10.393-3.622a1,1,0,0,1-.3.169C1059.577,1130.592,1059.419,1130.942,1059.923,1132.823Z" transform="translate(-1029.358 -1065.845)" fill="#af1f24"/>
          <path id="Path_1103" data-name="Path 1103" d="M1077.378,1104.549c.1-1.506,1.93-1.721,2.336-3.149-1.339.359-2.219,1.495-3.918,1.866,1.02-1.9,2.936-2.367,4.117-3.853-1.295,0-1.966.966-3.156,1.134a12.218,12.218,0,0,1,4.971-6.844,19.172,19.172,0,0,1,16.808-2.322,13.634,13.634,0,0,1,3.706,1.924c2.722,1.92,5.628,3.539,8.428,5.328a15.269,15.269,0,0,1,4.543,4.957c.418.664.828,1.333,1.288,2.076.372-1.545-.246-6.185-1.151-8.513a13.919,13.919,0,0,0-5.364-6.914c4.459.015,8.253,3.74,8.211,7.835a24.6,24.6,0,0,0,.1,4.183,5.409,5.409,0,0,0,2.364,3.777,40.266,40.266,0,0,1,3.547,2.63c.171-.97-.458-1.453-.927-1.98a15.5,15.5,0,0,0-1.459-1.361,5.942,5.942,0,0,1-2.161-5.313,9.313,9.313,0,0,0-1.293-6.331,9.53,9.53,0,0,0-6.986-4.522c-3.146-.283-5.887-1.542-8.7-2.724-.306-.128-.585-.326-.9-.434a26.693,26.693,0,0,1-8.729-5c-1.777-1.521-3.855-1.507-5.9-.084-2.183,1.522-4.61,1.469-7.05.664a8.737,8.737,0,0,0-4.3-.553,2.63,2.63,0,0,0-2.536,2.592c-.063.392,0,.978-.226,1.14-1.411,1-1.281,2.387-1.393,3.881-.112,1.517-1.251,2.734-2.36,4.107-.479-2.1.959-3.509,1.275-5.195-.462-.18-.472.578-1.023.4-.012-.609.791-1.042.431-1.889-.431.271-.806,1.1-1.5.41-.622-.621-.155-1.061.111-1.578a17.245,17.245,0,0,1,4.126-5.312,8.675,8.675,0,0,1,4.818-2.169,25.414,25.414,0,0,0,6.973-1.595,6.918,6.918,0,0,1,5.638.162,4.9,4.9,0,0,0,4.424.147c1.1-.53,1.729-.239,2.552.8a10.732,10.732,0,0,0,2.555,2.46c1.975,1.293,4.129,1.262,6.306,1.349a12.537,12.537,0,0,1,9.9,5.182,5.03,5.03,0,0,1,1.1,2.1c.215,1.229,1.035,1.545,2.088,1.745q2.252.428,4.473,1.008a9.914,9.914,0,0,1,7.663,7.812c.41,1.748.755,3.512,1.1,5.275a5.879,5.879,0,0,0,.644,1.878,9.8,9.8,0,0,1,1.134,5.589,71.838,71.838,0,0,1-1.712,11.836,2.449,2.449,0,0,1-.688,1.4,53.983,53.983,0,0,1-6.187,5.016c-.08.054-.236-.005-.355-.012-.042-.113-.145-.246-.115-.335a30.507,30.507,0,0,0,1.43-9.43,44.645,44.645,0,0,1,1.171-7.484,5.769,5.769,0,0,0,.093-2.758,36.572,36.572,0,0,0-2.411,7.479,4.047,4.047,0,0,0-.176,1.182c.332,3-1.714,4.154-3.955,5.159a9.4,9.4,0,0,1-4.313.587c-.932-.036-1.118-.552-.963-1.329.193-.978.451-1.944.6-2.927a10.211,10.211,0,0,0-.723-5.67c-.663-1.533-1.447-1.625-2.382-.271a23.825,23.825,0,0,1-2.868,3.305c-2.245,2.235-5.1,2.778-8.117,2.513a19.2,19.2,0,0,1-7.176-2.325,65.7,65.7,0,0,1-6.5-3.885,11.084,11.084,0,0,0-5.124-2.081,1.746,1.746,0,0,1-1.592-1.22,7.114,7.114,0,0,0-2.085-2.636c-1.71-1.381-1.7-1.395-.679-3.306C1078.535,1103.8,1078.194,1104.925,1077.378,1104.549Z" transform="translate(-1028.624 -1070.525)" fill="#c92c27"/>
          <g id="Group_502" data-name="Group 502" transform="translate(48.444 7.253)">
            <path id="Path_1104" data-name="Path 1104" d="M1079.4,1081.379c2.44.8,4.867.858,7.05-.664,2.041-1.423,4.119-1.437,5.9.084a26.69,26.69,0,0,0,8.729,5c.312.109.591.306.9.434,2.811,1.182,5.552,2.441,8.7,2.724a9.22,9.22,0,0,1,6.5,3.859c.311-.244.37-.721-.3-1.63-1.663-2.269-4.178-4.406-9.507-5.58s-8.313-1.841-14.22-6.153-8.432.183-12.823,0-3.955,1.293-3.955,1.293A10.89,10.89,0,0,1,1079.4,1081.379Z" transform="translate(-1076.361 -1077.58)" fill="#af1f24"/>
          </g>
          <path id="Path_1105" data-name="Path 1105" d="M1050.137,1095.493c1.923,3.2,4.6,5.833,6.638,8.955-2.643-1.659-4.47-4.269-7.163-5.87-.41.632.143.875.409,1.155a78.8,78.8,0,0,1,6.427,7.35c.422.575,1.233,1.155.479,2.214-2.974-2.607-5.69-5.478-9.061-7.541,3,4.059,6.714,7.481,9.7,11.528.048.065-.048.237-.121.545-3.506-3.292-6.461-7.083-10.855-9.68a4.217,4.217,0,0,0,1.557,2.168c2.235,2.187,4.432,4.4,6.492,6.763,3.787,4.339,5.711,9.551,7.1,15a8.138,8.138,0,0,1-.041,4.475c-.7-.8-1.308-1.487-1.9-2.191a8.68,8.68,0,0,0-6.609-3.208c-.532-.019-1.064-.059-1.6-.081a4.575,4.575,0,0,1-3.714-1.994,22.257,22.257,0,0,0-2.843-3.334,17.381,17.381,0,0,0-5.295-3.136c-2.452-1.007-4.1-2.6-4.48-5.361a6.728,6.728,0,0,0-1.944-3.42c-1.994-2.26-2.579-3.627,1.448-5.115a15.869,15.869,0,0,1,2.9-.728,4.451,4.451,0,0,0,3.219-6.611,6.713,6.713,0,0,1-.142-6.739c1.008-2.076.651-4.289.34-6.479-.313-2.208-.027-2.423,2.216-1.9a13.248,13.248,0,0,1,7.6,4.828c2.889,3.686,5.366,7.609,6.331,12.307a2.9,2.9,0,0,1-.231,2.355C1054.624,1099.732,1052.926,1097.019,1050.137,1095.493Z" transform="translate(-1031.765 -1069.944)" fill="#c92c27"/>
          <g id="Group_503" data-name="Group 503" transform="translate(19.98 26.541)">
            <path id="Path_1106" data-name="Path 1106" d="M1055.946,1111.269c-1.528-2.074-3.249-3.984-4.968-5.9-.174.4-.333.774-.468,1.131,1.809,1.747,3.488,3.6,5.315,5.314C1055.9,1111.505,1055.994,1111.334,1055.946,1111.269Z" transform="translate(-1050.127 -1094.47)" fill="#af1f24"/>
            <path id="Path_1107" data-name="Path 1107" d="M1054.743,1105.329c-.759-1.033-1.57-2.022-2.407-2.987-.256.639-.53,1.259-.8,1.852,1.228,1.11,2.433,2.253,3.684,3.349C1055.975,1106.484,1055.165,1105.9,1054.743,1105.329Z" transform="translate(-1050.038 -1094.732)" fill="#af1f24"/>
            <path id="Path_1108" data-name="Path 1108" d="M1052.855,1100.777c-.038.127-.08.253-.121.379a16.651,16.651,0,0,0,2.232,1.723c-.6-.922-1.261-1.8-1.939-2.667C1052.969,1100.4,1052.912,1100.593,1052.855,1100.777Z" transform="translate(-1049.935 -1094.915)" fill="#af1f24"/>
            <path id="Path_1109" data-name="Path 1109" d="M1053.454,1099a22.723,22.723,0,0,0,1.665,1.6,2.9,2.9,0,0,0,.231-2.355,21.569,21.569,0,0,0-.819-2.91C1054.266,1096.25,1053.865,1097.622,1053.454,1099Z" transform="translate(-1049.873 -1095.336)" fill="#af1f24"/>
            <path id="Path_1110" data-name="Path 1110" d="M1055.02,1118.144a46.565,46.565,0,0,1,4.824,9.1,11.148,11.148,0,0,0,.581,1.231,8.755,8.755,0,0,0-.28-2.613c-1.386-5.452-3.31-10.664-7.1-15-.937-1.073-1.905-2.115-2.889-3.14C1050.084,1109.782,1052.583,1114.656,1055.02,1118.144Z" transform="translate(-1050.157 -1094.267)" fill="#af1f24"/>
          </g>
          <path id="Path_1111" data-name="Path 1111" d="M1058.743,1129.333a1.549,1.549,0,0,1,.785,1.5,14.984,14.984,0,0,0,.831,4.486,7.055,7.055,0,0,0,4.607,5.1,39.564,39.564,0,0,1,6.249,3.072,10.729,10.729,0,0,1,3.775,3.743,90.808,90.808,0,0,1,5.335,11.36,5.916,5.916,0,0,1,.494,2.128,1.853,1.853,0,0,1-1.056,1.968c-4.041,1.835-8.132,3.359-12.665,1.888a7.024,7.024,0,0,1-2.731-1.563,14.578,14.578,0,0,0-4.1-2.421,18.978,18.978,0,0,1-4.512-2.525c-1.862-1.557-3.188-3.406-3.138-5.953a10.8,10.8,0,0,0-2.795-7.478,5.806,5.806,0,0,1-.33-.5c-2.552-3.69-2.448-5.867.042-9.715,1.146-1.77,2.275-3.412,2.142-5.631a2.856,2.856,0,0,1,.728-1.815,1.428,1.428,0,0,1,2.054-.537,8.613,8.613,0,0,1,2.816,1.831C1057.879,1128.711,1058.295,1129.048,1058.743,1129.333Z" transform="translate(-1030.396 -1066.132)" fill="#c92c27"/>
          <path id="Path_1112" data-name="Path 1112" d="M1068.14,1128.175c-1.11-1.107-.984-2.6-1.7-3.894a9.4,9.4,0,0,0,.061,3.387c.016.315.125.719-.333.81-.474.093-.515-.341-.587-.633a21.625,21.625,0,0,0-1.12-4.6c-.383,1.911.078,3.87-.51,5.789-.979-2.411-.93-5.058-2-7.5.008,1.142.011,2.283.026,3.424.018,1.331.065,2.661.058,3.992,0,.564.079,1.224-.706,1.436-.1-4.42-1.441-8.6-2.275-12.875-.915-4.681-2.3-9.317-2.12-14.177.08-2.115.327-2.393,2.512-2.2A10.24,10.24,0,0,1,1066.4,1105a48.325,48.325,0,0,0,9.9,9.223c2.733,1.773,5.407,3.647,8.3,5.165a14.975,14.975,0,0,0,4.659,1.715,9.122,9.122,0,0,1,3.667,1.495c3.038,2.034,6.381,3.58,9.307,5.8a6.149,6.149,0,0,1,2.507,3.933c.214,1.214.062,1.35-1.177,1.38-4.362.105-8.408-1.237-12.379-2.793a55.11,55.11,0,0,0-15.511-3.5,24.208,24.208,0,0,0-4.772.307c-1.008.111-1.634-.076-1.821-1.181a2.056,2.056,0,0,0-.716-1.475C1068.024,1126.091,1068.679,1127.091,1068.14,1128.175Z" transform="translate(-1029.595 -1068.3)" fill="#c92c27"/>
          <path id="Path_1113" data-name="Path 1113" d="M1064.353,1096.369a26.776,26.776,0,0,1-3.464,3.477c.736-2.151,2.2-3.658,2.865-5.608-1.143.675-1.688,1.923-2.656,2.781.041-2.483,3.082-7.051,6.912-10.4a3.008,3.008,0,0,1,1.039,3.024,13.07,13.07,0,0,1-.32,1.356c-.336,1.543-.124,2.02,1.212,2.764,2.548,1.42,2.808,1.977,2.217,4.75-.041.2-.075.392-.108.589-.431,2.642-.263,2.939,2.33,3.58a3.9,3.9,0,0,1,2.69,1.864,10.229,10.229,0,0,0,2.491,2.827,7.854,7.854,0,0,1,2.857,5.087c.24,1.7.514,3.4.806,5.318a10.244,10.244,0,0,1-4.606-2.4c-3.889-3.209-7.465-6.773-11.123-10.239-.566-.535-1.345-1.013-.575-1.963.113-.14-.021-.481-.207-.424-.961.3-.592-.162-.361-.58.116-.211.352-.4.18-.689-.58.24-.96.845-1.678.971.114-1.056,1.345-1.561,1.132-2.818l-2.422,1.927c.1-.862.646-1.242.955-1.725.321-.5.7-.967,1.183-1.635-1.41.089-1.878,1.341-3.01,1.736C1063.117,1098.581,1064.493,1097.885,1064.353,1096.369Z" transform="translate(-1029.252 -1069.547)" fill="#c92c27"/>
          <path id="Path_1114" data-name="Path 1114" d="M1058.17,1112.856c.265,1.21.533,2.419.769,3.632.835,4.277,2.174,8.454,2.276,12.875.785-.212.7-.872.706-1.436.008-1.331-.04-2.661-.058-3.992-.015-1.141-.018-2.282-.026-3.424,1.073,2.446,1.024,5.094,2,7.5.589-1.918.127-3.878.51-5.789a21.567,21.567,0,0,1,1.12,4.6c.072.292.113.727.587.633.458-.091.35-.5.333-.81a9.4,9.4,0,0,1-.061-3.387c.717,1.295.591,2.787,1.7,3.894.539-1.084-.116-2.084.215-3.1a2.056,2.056,0,0,1,.716,1.475c.187,1.1.813,1.292,1.821,1.181a24.21,24.21,0,0,1,4.772-.307,55.108,55.108,0,0,1,15.511,3.5c3.972,1.556,8.018,2.9,12.379,2.793,1.239-.029,1.391-.165,1.177-1.38-.005-.036-.016-.068-.023-.1-1.289-.426-2.747-.889-3.865-1.226-2.472-.749-9.43-3.412-14.294-4.4s-12.908-2.781-20.026-6.467-3.2-2.03-5.737-4.338A14.368,14.368,0,0,0,1058.17,1112.856Z" transform="translate(-1029.487 -1067.284)" fill="#af1f24"/>
          <path id="Path_1115" data-name="Path 1115" d="M1082.934,1115.621c-2.244-2.042-6.065-5.556-8.174-7.71-3.113-3.177-2.478-3.016-5.562-7.68s-1.737-6.1-3.086-8.589a4.553,4.553,0,0,0-1.462-1.816c-2.106,2.577-3.523,5.228-3.551,6.917.968-.858,1.513-2.106,2.656-2.781-.669,1.95-2.129,3.457-2.865,5.607a26.753,26.753,0,0,0,3.464-3.477c.14,1.515-1.236,2.212-1.661,3.574,1.132-.4,1.6-1.647,3.01-1.736-.488.668-.862,1.134-1.183,1.636-.308.482-.857.862-.954,1.724l2.421-1.927c.213,1.257-1.018,1.762-1.132,2.818.718-.126,1.1-.731,1.678-.971.172.289-.064.478-.18.689-.231.418-.6.875.361.58.186-.058.319.284.207.423-.77.951.009,1.429.575,1.963,3.659,3.466,7.235,7.03,11.123,10.239a10.244,10.244,0,0,0,4.606,2.4C1083.124,1116.852,1083.029,1116.231,1082.934,1115.621Z" transform="translate(-1029.252 -1069.271)" fill="#af1f24"/>
          <path id="Path_1116" data-name="Path 1116" d="M1120.758,1125.6a6.016,6.016,0,0,1-3,3.031,35.266,35.266,0,0,0-10.175,6.923.9.9,0,0,1-1.363.141q-1.136-.807-2.332-1.532a1.1,1.1,0,0,1-.514-1.174,10.108,10.108,0,0,0-4.47-9.053c-.732-.544-1.472-1.075-2.351-1.716a6.2,6.2,0,0,1,5.559-1.441c.65.137,1.287.337,1.936.482a7.232,7.232,0,0,0,3.556.262,10.337,10.337,0,0,1,6.434.365c2.365.783,4.428-.333,6.479-1.295.524-.244,1-.593,1.772-1.061A14.736,14.736,0,0,1,1120.758,1125.6Z" transform="translate(-1026.175 -1066.708)" fill="#c92c27"/>
          <path id="Path_1117" data-name="Path 1117" d="M1132.445,1122.45c-1.094,3.77-3.609,6.6-6.182,9.39a27.2,27.2,0,0,0-3.478,4.326,26.924,26.924,0,0,1-6.917,7.361c-1.407,1.073-1.547,1.035-2.753-.35-1.838-2.109-4-3.882-6.073-5.857a27.711,27.711,0,0,1,10.045-6.658,42.51,42.51,0,0,0,11.11-6.577,15.48,15.48,0,0,0,5.58-8.285,2.438,2.438,0,0,1,.731-1.59C1134.3,1117.079,1133.234,1119.729,1132.445,1122.45Z" transform="translate(-1025.27 -1067.167)" fill="#c92c27"/>
          <path id="Path_1118" data-name="Path 1118" d="M1077.9,1089.576a7.8,7.8,0,0,1,5.036-2.938,11.719,11.719,0,0,0,5.411-1.868,5.214,5.214,0,0,1,4.78-.494,11.75,11.75,0,0,0,2.523.563,13.649,13.649,0,0,1,5.339,1.455c2.406,1.272,4.914,2.354,7.292,3.673a10.119,10.119,0,0,1,4.578,5.1,25.041,25.041,0,0,1,1.557,5.478,46.383,46.383,0,0,0-4.367-3.957,7.907,7.907,0,0,0-1.95-1.357c-1.161-.351-1.283-2.028-2.735-1.994-.19,0,.261-.655.21-1.132l-1.308.691c-.293-.741.678-.943.562-1.537-.1-.012-.261-.075-.306-.028-1.054,1.075-2.1.809-3.165.021-.481-.357-.973-.7-1.471-1.032a8.611,8.611,0,0,0-3.874-1.456,26.046,26.046,0,0,0-9.9.407c-1.062.29-.569-.618-.956-.853-.911.355-.972,1.759-2.133,1.855-.5-.529.476-.923-.016-1.562-1.785,1.605-3.056,3.639-4.667,5.362-1.665,1.78-2.266,4.154-3.386,6.25C1074.631,1096.284,1075.244,1092.644,1077.9,1089.576Z" transform="translate(-1028.046 -1069.78)" fill="#c92c27"/>
          <path id="Path_1119" data-name="Path 1119" d="M1087.806,1114.6c-1.913-.089-3.133.934-4.91.923,1.187-1.3,2.868-1.219,3.8-2.469-1.514-.1-2.711.9-4.216.774.481-1.337,2-.933,2.8-1.865-1.073-.308-2.029.335-2.949.094-.135-.852.686-.776.963-1.2-.141-.45-.525-.249-.809-.267-.45-.029-.563-.326-.52-.672s.393-.331.629-.288a11.66,11.66,0,0,1,3.728,1.346c2.421,1.393,4.57,3.223,7.1,4.429a24.087,24.087,0,0,0,12.052,2.039,6.022,6.022,0,0,0,4.563-2.541q1.083-1.434,2.18-2.858c.23-.3.375-.769.89-.616a1.007,1.007,0,0,1,.642.926,8.01,8.01,0,0,1,.231,1.775c-.115,1.659-.3,3.313-.5,4.964-.1.79-.578,1.043-1.377,1.35a12.055,12.055,0,0,1-7.632.053c-2.548-.659-5.015-.735-7.1,1.249a1.037,1.037,0,0,1-1.423.21,36.971,36.971,0,0,0-7.632-3.42c-.789-.282-.492-.741-.284-1.26-.764-.163-1.368.625-2.158.292.21-.858,1.35-.768,1.643-1.66-1.243-.031-2.093,1.09-3.336.719Z" transform="translate(-1027.434 -1067.564)" fill="#c92c27"/>
          <path id="Path_1120" data-name="Path 1120" d="M1098.96,1077.184c-1.739-2.23-1.957-2.317-4.7-1.6a3.826,3.826,0,0,1-.628.058c.09-.47.179-.916.255-1.362.008-.042-.065-.1-.11-.16-.438.087-.513.532-.771.8s-.394.705-.847.827c-.337-.566.042-.982.294-1.416a3.5,3.5,0,0,0,.554-1.343l-2.306,2.03c-.108-.582.658-.837.5-1.543a8.788,8.788,0,0,0-1.167.918,1.893,1.893,0,0,1-1.738.708,7.679,7.679,0,0,0-3.7.652,7.216,7.216,0,0,1-2.132.487c-1.12.083-1.119.09-1.407-1.154-.541.178-.552.92-1.125,1.058a.781.781,0,0,1-.215-.021c-.367-.3-.009-.576.078-.85a.844.844,0,0,0-.034-.854c-.828.306-.923,1.4-1.727,1.724-.434-.809.447-1.3.478-1.9,0-.248-.126-.319-.252-.181-2.544,2.775-6.191,4.4-8.136,7.8-.561.979-1.13,1.955-1.615,2.971a16.489,16.489,0,0,1-3.811,5.3,11.369,11.369,0,0,0-2.606,4.206c-.751,1.771-1.462,3.558-2.2,5.333-.23.552-.476,1.1-.754,1.626a.6.6,0,0,1-.864.214c-.324-.156-.2-.441-.1-.673.582-1.337,1.192-2.664,1.764-4.005q2.429-5.678,4.838-11.367a9.208,9.208,0,0,1,2.37-3.854,1.96,1.96,0,0,0,.594-.8c1.381-3.742,5.071-5.5,7.325-8.5,1.245-1.662,3.26-1.551,5.165-1.148.61.129.747.715,1.111,1.081.971.977,1.286,1.039,2.445.165a1.419,1.419,0,0,1,1.654-.1,6.627,6.627,0,0,0,6.658-.191,4.672,4.672,0,0,1,4.949-.091,3.971,3.971,0,0,1,.976.67,17.415,17.415,0,0,1,2.791,6.267A5.051,5.051,0,0,1,1098.96,1077.184Z" transform="translate(-1029.496 -1070.904)" fill="#c92c27"/>
          <path id="Path_1121" data-name="Path 1121" d="M1056.7,1097.721a3.051,3.051,0,0,1,.7-4.157c1.231-1.141,2.263-2.5,3.409-3.787a.939.939,0,0,1,.033,1.052,77.489,77.489,0,0,1-3.676,7.586C1056.813,1098.24,1056.825,1097.944,1056.7,1097.721Z" transform="translate(-1029.658 -1069.275)" fill="#c92c27"/>
          <path id="Path_1122" data-name="Path 1122" d="M1071.555,1092.662c-.094.575-.392.839-.952.542-.44-.232-1.095-.443-.673-1.137.437-.718.981-1.371,1.646-2.281A5.933,5.933,0,0,1,1071.555,1092.662Z" transform="translate(-1028.484 -1069.274)" fill="#c92c27"/>
        </g>
        <path id="Path_1123" data-name="Path 1123" d="M1089.167,1131.076a8.06,8.06,0,0,1-5.8,1.583c-1.124-.1-2.246-.256-3.362-.436a5.548,5.548,0,0,0-4.053.506,5.4,5.4,0,0,1-3.485.6,13.986,13.986,0,0,1-6.443-2.2,6.19,6.19,0,0,1,2.641.508,9.606,9.606,0,0,0,6.646-.284,8.339,8.339,0,0,1,6.594-.163,8.13,8.13,0,0,0,4.711.356C1087.466,1131.377,1088.318,1131.232,1089.167,1131.076Z" transform="translate(-1028.809 -1065.754)" fill="#3b122e"/>
        <path id="Path_1124" data-name="Path 1124" d="M1104.571,1096.745c.08.659-.766.922-.677,1.664,1.009.555,1.519-.881,2.429-.719.029.71-.7.988-.79,1.693,1.169.383,1.7-1.157,2.786-1-.109.941-1.243,1.249-1.222,2.326,1.175-.006,1.738-1.2,2.8-1.346.353.33-.005.58-.158.791-.947,1.318-1.122,2.546.115,3.84a6.152,6.152,0,0,1,1.3,2.875c.639,2.552-.427,4.517-2.97,5.14a21.9,21.9,0,0,1-12.183-.5,4.032,4.032,0,0,1-2.9-2.775,3.523,3.523,0,0,0-3.788-2.819,8.625,8.625,0,0,1-4.537-1.3,6.146,6.146,0,0,1-2.853-6.712c.454-2.582,2.533-3.809,4.9-4.386a14.752,14.752,0,0,1,7.308.139,27.531,27.531,0,0,1,5.506,2.291c.825.422,1.593.954,2.393,1.424C1103.076,1097.968,1103.608,1096.466,1104.571,1096.745Z" transform="translate(-1027.447 -1068.987)" fill="#3b122e"/>
        <path id="Path_1125" data-name="Path 1125" d="M1118.01,1111.248a11.979,11.979,0,0,1-4.373,6.5,20.326,20.326,0,0,0,1.772-6.7,33.817,33.817,0,0,0-.681-6.683,7.732,7.732,0,0,1,1.456,3.965c.164,1.384.333,2.767.5,4.18C1117.429,1112.382,1117.335,1111.411,1118.01,1111.248Z" transform="translate(-1024.701 -1068.016)" fill="#3b122e"/>
        <path id="Path_1126" data-name="Path 1126" d="M1045.038,1116.662c-4.564-1.353-6.991-4.668-8.247-9.059C1039.383,1110.77,1041.274,1114.594,1045.038,1116.662Z" transform="translate(-1031.331 -1067.737)" fill="#3b122e"/>
        <path id="Path_1127" data-name="Path 1127" d="M1084.125,1083.221a26.861,26.861,0,0,1,2.781-1.026A2.6,2.6,0,0,1,1084.125,1083.221Z" transform="translate(-1027.247 -1069.929)" fill="#3b122e"/>
        <path id="Path_1128" data-name="Path 1128" d="M1122.227,1120.29c-.214.263-.47.576-.776.944-1.248,1.5-10.4,5.988-10.4,5.988s-5.064.529-7.954-2.334c-1.775-1.759-3.332-3.187-4.27-4.029a7.067,7.067,0,0,0-2.273,1.293c.879.641,1.619,1.172,2.351,1.716a10.109,10.109,0,0,1,4.47,9.053,1.1,1.1,0,0,0,.514,1.174c.8.481,1.575.994,2.332,1.531a.9.9,0,0,0,1.363-.141,35.266,35.266,0,0,1,10.175-6.923,6.016,6.016,0,0,0,3-3.031A14.5,14.5,0,0,0,1122.227,1120.29Z" transform="translate(-1026.175 -1066.642)" fill="#af1f24"/>
        <path id="Path_1129" data-name="Path 1129" d="M1111.782,1112.029c-2,.05-3.991,2.367-7.2,3.044s-2.66-.282-6.53-1.6-7.416-2.244-9.43-3.412a28.255,28.255,0,0,1-6.532-5.522c-1.314-1.714-1.169-3.568-1.182-6.445-.01-2.25,1.62-5.607,2.331-6.965a22.88,22.88,0,0,0-2.117,1.2,12.218,12.218,0,0,0-4.971,6.844c1.189-.168,1.861-1.135,3.156-1.134-1.181,1.486-3.1,1.955-4.117,3.853,1.7-.371,2.579-1.507,3.918-1.866-.405,1.428-2.234,1.643-2.336,3.149.816.376,1.157-.747,1.867-.417-1.019,1.911-1.031,1.925.679,3.306a7.115,7.115,0,0,1,2.085,2.636,1.747,1.747,0,0,0,1.592,1.22,11.085,11.085,0,0,1,5.124,2.081,65.68,65.68,0,0,0,6.5,3.886,19.2,19.2,0,0,0,7.176,2.325c3.019.265,5.871-.278,8.117-2.513a23.84,23.84,0,0,0,2.868-3.306,4.356,4.356,0,0,1,.3-.391C1112.731,1112.01,1112.3,1112.015,1111.782,1112.029Z" transform="translate(-1028.018 -1069.158)" fill="#af1f24"/>
      </g>
      <path id="Path_1130" data-name="Path 1130" d="M1104.923,1103.227s-4.388-3.91-6.782-5.026-3.111-1.6-5.744-1.915-5.026-.558-6.143,1.037-.8,2.554.4,3.59a9.707,9.707,0,0,0,4.947,2.075c1.515.079,2.929-.237,4.456.241s1.129-.72-.148-1.119-1.915-.319-4.15-.878-3.51-2.074-3.35-2.872,1.914-1.037,4.628-.239a30.559,30.559,0,0,1,7.579,3.59C1103.727,1103.546,1106.918,1104.823,1104.923,1103.227Z" transform="translate(4.843 2.295)" fill="#c92c27"/>
      <path id="Path_1131" data-name="Path 1131" d="M1103.914,1105.569a4.543,4.543,0,0,1-2.953.718c-2.393,0-5.026-1.436-6.223-1.516s-1.356.558-.478,1.037a29.13,29.13,0,0,0,4.707,1.6,9.245,9.245,0,0,0,4.708-.079C1104.632,1106.925,1105.589,1105.489,1103.914,1105.569Z" transform="translate(5.545 3.047)" fill="#c92c27"/>
      <path id="Path_1132" data-name="Path 1132" d="M1106.964,1111.253s-5.935,1.9-9.042,1.066-2.135.957-.963,1.812,5.42.123,7.982-.762S1108.606,1111.134,1106.964,1111.253Z" transform="translate(5.729 3.606)" fill="#3b122e"/>
      <path id="Path_1133" data-name="Path 1133" d="M1142.292,1166.545c.414-1.049.9-2.072,1.366-3.1,1.321-2.888,3.3-5.5,3.814-8.724a4.224,4.224,0,0,1,2.635-3.219c1.071-.536,2.149-1.06,3.192-1.646a3.149,3.149,0,0,0,1.652-3.358,18.81,18.81,0,0,0-.9-3.879,8.464,8.464,0,0,1,.13-6.564c1.635-3.541.119-6.816-3.54-8.2a17.887,17.887,0,0,0-4.456-1.049,44.312,44.312,0,0,0-5.883-.219c.368-1.273.69-2.341.983-3.416q.813-2.982,1.6-5.975c.12-.455.215-.952-.251-1.273a1.125,1.125,0,0,0-1.3.175,3.776,3.776,0,0,0-1.533,2.251,5.111,5.111,0,0,1-2.217,3.414,1.415,1.415,0,0,1,.087-.964,36.512,36.512,0,0,0,1.241-10.273,7.348,7.348,0,0,0-1.606-5.211,3.85,3.85,0,0,1-.873-1.993c-.308-1.918-1.066-3.708-1.554-5.574a9.768,9.768,0,0,0-7.4-7.346c-1.411-.381-2.839-.717-4.276-.981a2.68,2.68,0,0,1-2.188-1.728c-2.253-5.009-6.133-7.725-11.676-7.922a15.691,15.691,0,0,0-2.787.075,1.359,1.359,0,0,1-1.708-.948,16.079,16.079,0,0,1-.675-1.661,19.154,19.154,0,0,0-2.679-5.319,3.8,3.8,0,0,0-2.554-1.733,4.628,4.628,0,0,0-3.463.559c-2.2,1.251-4.428,1.718-6.825.43a2.013,2.013,0,0,0-2.714.464c-.608.749-1.262.578-1.906.054a15.935,15.935,0,0,1-1.356-1.176,3.164,3.164,0,0,0-1.881-1.036,6.128,6.128,0,0,0-5.539,2.922,5.513,5.513,0,0,1-2.053,2.356,6.709,6.709,0,0,0-2.79,3.263,7.021,7.021,0,0,1-1.474,2.12,15.268,15.268,0,0,0-3.44,6.01,7.882,7.882,0,0,1-1.81,3.052c-.755.84-1.485,1.711-2.311,2.476-1.24,1.147-2.226,2.574-3.706,3.536-.936-1.707-1.815-3.338-2.722-4.953-2.468-4.4-5.888-7.683-10.807-9.208a6.186,6.186,0,0,0-3.336-.284,2.317,2.317,0,0,0-2.02,2.908c.117.786.393,1.547.558,2.328.455,2.141.57,4.226-.966,6.064a3.721,3.721,0,0,0-.686,1.64,4.858,4.858,0,0,0,1,4.641c1.651,1.883,1.191,3.682-1.035,4.855a6.359,6.359,0,0,1-2.483.692,10.692,10.692,0,0,0-3.659.939,3.413,3.413,0,0,0-1.274,5.337,10.2,10.2,0,0,0,.936,1.037,7.887,7.887,0,0,1,2.466,4.682c.363,2.782,2.15,4.313,4.51,5.379a17.334,17.334,0,0,0,1.873.683,9,9,0,0,1,4.333,2.715c.938,1.122,1.9,2.226,2.829,3.356a5.9,5.9,0,0,0,4.945,2.539,1.835,1.835,0,0,1,1.338.282c-.187.7-.915.923-1.3,1.468-.61.87-1.466,1.638-1.25,2.823a4.206,4.206,0,0,1-.982,3.524,20.413,20.413,0,0,0-1.219,1.827c-1.358,2.18-1.807,4.4-.366,6.75.762,1.246,1.435,2.549,2.128,3.838a10.166,10.166,0,0,1,1.58,5.494c-.3,4.381,2.119,6.972,5.742,8.691a61.316,61.316,0,0,1,8.686,4.843,10,10,0,0,0,10.428.919c1.865-.871,3.67-1.88,5.465-2.893,1.271-.716,1.513-1.4,1.151-2.835-.145-.58-.386-1.134-.563-1.707-.5-1.63-1-3.265-1.634-5.362a55.773,55.773,0,0,0,7.383,5.863,9.243,9.243,0,0,0,2.971,1.611,28.785,28.785,0,0,0,10.464,1.094c2.713-.292,5.428-.559,8.138-.88a5.018,5.018,0,0,1,3.221.7,76.083,76.083,0,0,1,7.807,5.545,13.148,13.148,0,0,0,9.607,2.969C1136.622,1174.567,1140.246,1171.72,1142.292,1166.545Zm-7.4-38.6a15.479,15.479,0,0,0,5.58-8.285,2.437,2.437,0,0,1,.731-1.59c-.209,2.871-1.274,5.521-2.064,8.242-1.094,3.77-3.609,6.6-6.182,9.39a27.191,27.191,0,0,0-3.478,4.326,26.923,26.923,0,0,1-6.916,7.361c-1.407,1.073-1.547,1.035-2.753-.35-1.837-2.108-4-3.882-6.075-5.857a27.724,27.724,0,0,1,10.046-6.658A42.5,42.5,0,0,0,1134.893,1127.946Zm-64.382,2.959c-1.111-1.107-.985-2.6-1.7-3.894a9.4,9.4,0,0,0,.061,3.387c.016.315.125.719-.333.81-.474.094-.515-.341-.587-.633a21.632,21.632,0,0,0-1.12-4.6c-.384,1.911.078,3.87-.51,5.789-.979-2.411-.93-5.058-2-7.5.008,1.142.011,2.283.026,3.424.018,1.331.065,2.661.058,3.992,0,.564.079,1.224-.706,1.436-.1-4.42-1.44-8.6-2.275-12.875-.915-4.681-2.3-9.317-2.119-14.177.08-2.115.327-2.393,2.511-2.2a10.241,10.241,0,0,1,6.955,3.872,48.33,48.33,0,0,0,9.9,9.223c2.733,1.773,5.407,3.646,8.3,5.165a14.977,14.977,0,0,0,4.659,1.715,9.123,9.123,0,0,1,3.667,1.495c3.038,2.035,6.381,3.58,9.307,5.805a6.149,6.149,0,0,1,2.507,3.933c.214,1.214.062,1.35-1.177,1.38-4.362.105-8.408-1.237-12.379-2.793a55.109,55.109,0,0,0-15.511-3.5,24.135,24.135,0,0,0-4.772.307c-1.008.111-1.634-.076-1.821-1.181a2.056,2.056,0,0,0-.716-1.475C1070.394,1128.82,1071.049,1129.821,1070.511,1130.9Zm7.483-46.4a3.1,3.1,0,0,1,5.089-1.9c.594.432.487.852.117,1.331a6.238,6.238,0,0,1,3.5-.326,5.713,5.713,0,0,0,4-.853c3.306-1.956,4.817-1.756,7.742,1.049-.487.678-1.114.217-1.61.128a6.8,6.8,0,0,0-5.656,1.18,8.723,8.723,0,0,1-3.743,1.253,30.244,30.244,0,0,0-4.013,1.154c-.476.169-.942.642-1.47.24-.418-.317-.579,1.01-1,.112-.609.361-1.359.512-1.8,1.115a10.141,10.141,0,0,0-.655,1.132,3.516,3.516,0,0,1,1.475-3.812c.894-.757,1.847-1.447,2.772-2.166a18.434,18.434,0,0,0-3.361,1.651,3.288,3.288,0,0,0-1.893,3.2,3.764,3.764,0,0,1-.647,2.266,10.187,10.187,0,0,0-.253-2.649c-.362-.96-.5-1.911.708-2.531C1077.844,1085.8,1077.883,1085.107,1077.995,1084.507Zm30.746,8c-.1-.012-.261-.075-.306-.028-1.054,1.075-2.1.809-3.166.021-.481-.358-.973-.7-1.471-1.032a8.609,8.609,0,0,0-3.874-1.456,26.045,26.045,0,0,0-9.9.407c-1.062.29-.569-.618-.956-.853-.911.355-.972,1.759-2.133,1.855-.5-.529.476-.923-.016-1.562-1.785,1.605-3.056,3.639-4.667,5.362-1.665,1.78-2.266,4.154-3.386,6.25-.313-3.941.3-7.581,2.951-10.649a7.8,7.8,0,0,1,5.036-2.938,11.72,11.72,0,0,0,5.411-1.868,5.214,5.214,0,0,1,4.78-.494,11.747,11.747,0,0,0,2.522.563,13.65,13.65,0,0,1,5.339,1.455c2.406,1.272,4.914,2.354,7.292,3.673a10.12,10.12,0,0,1,4.578,5.1,25.04,25.04,0,0,1,1.557,5.478,46.384,46.384,0,0,0-4.367-3.957,7.941,7.941,0,0,0-1.95-1.357c-1.161-.35-1.283-2.028-2.735-1.994-.19,0,.261-.655.21-1.132l-1.308.691C1107.886,1093.305,1108.857,1093.1,1108.741,1092.509Zm-31.084,10.308c-.782-.067-1.854.053-1.621-1.232.427-2.353-.081-4.746.544-7.1a11.633,11.633,0,0,1,1.865-4.218c-.083,1.7-.961,3.229-1.044,4.935a20.378,20.378,0,0,0,.292,6.136A1.68,1.68,0,0,1,1077.657,1102.817Zm-3.572-7.857c-.44-.232-1.095-.443-.673-1.137.437-.718.981-1.371,1.646-2.281a5.933,5.933,0,0,1-.021,2.876C1074.943,1094.992,1074.644,1095.256,1074.085,1094.959Zm-1.431.289c2.548,1.42,2.808,1.977,2.217,4.749-.041.2-.075.392-.108.589-.431,2.642-.263,2.94,2.33,3.58a3.9,3.9,0,0,1,2.69,1.864,10.229,10.229,0,0,0,2.491,2.827,7.855,7.855,0,0,1,2.857,5.087c.24,1.7.514,3.4.8,5.317a10.246,10.246,0,0,1-4.6-2.4c-3.889-3.209-7.465-6.773-11.124-10.238-.566-.536-1.345-1.014-.575-1.964.113-.14-.021-.481-.207-.424-.961.3-.592-.162-.361-.58.116-.211.352-.4.18-.689-.58.24-.96.845-1.678.971.114-1.056,1.345-1.561,1.132-2.818l-2.421,1.927c.1-.862.645-1.242.953-1.724.321-.5.7-.968,1.183-1.636-1.41.089-1.878,1.34-3.01,1.736.425-1.362,1.8-2.059,1.661-3.573a26.808,26.808,0,0,1-3.464,3.476c.736-2.151,2.2-3.658,2.865-5.607-1.143.675-1.688,1.923-2.656,2.781.041-2.483,3.082-7.051,6.912-10.4a3.008,3.008,0,0,1,1.039,3.024,13.094,13.094,0,0,1-.32,1.356C1071.106,1094.029,1071.318,1094.5,1072.655,1095.248Zm44.978,19.646a1.007,1.007,0,0,1,.642.926,8.01,8.01,0,0,1,.231,1.775c-.115,1.659-.3,3.313-.5,4.964-.1.79-.578,1.043-1.377,1.35a12.055,12.055,0,0,1-7.632.053c-2.548-.659-5.015-.735-7.1,1.249a1.037,1.037,0,0,1-1.423.21,36.972,36.972,0,0,0-7.632-3.42c-.789-.282-.492-.741-.285-1.26-.764-.163-1.368.626-2.158.292.21-.858,1.35-.768,1.643-1.66-1.243-.031-2.093,1.09-3.336.719l3.638-2.026c-1.913-.089-3.133.934-4.91.923,1.186-1.3,2.868-1.219,3.8-2.469-1.514-.1-2.711.9-4.216.774.481-1.337,2-.933,2.8-1.865-1.073-.308-2.029.334-2.949.093-.135-.852.686-.776.963-1.2-.141-.45-.525-.249-.809-.267-.45-.029-.563-.326-.52-.672s.393-.331.629-.288a11.66,11.66,0,0,1,3.728,1.346c2.421,1.393,4.57,3.223,7.1,4.429a24.093,24.093,0,0,0,12.053,2.039,6.022,6.022,0,0,0,4.563-2.541q1.083-1.434,2.18-2.858C1116.973,1115.21,1117.117,1114.741,1117.632,1114.894Zm-12.941,13.36c-.732-.544-1.472-1.075-2.351-1.716a6.2,6.2,0,0,1,5.559-1.442c.65.137,1.287.337,1.936.482a7.234,7.234,0,0,0,3.556.262,10.345,10.345,0,0,1,6.434.365c2.365.783,4.427-.333,6.479-1.295.524-.244,1-.593,1.772-1.061a14.732,14.732,0,0,1-1.527,6.069,6.015,6.015,0,0,1-3,3.031,35.269,35.269,0,0,0-10.175,6.923.9.9,0,0,1-1.363.141c-.757-.538-1.536-1.05-2.332-1.531a1.1,1.1,0,0,1-.514-1.174A10.109,10.109,0,0,0,1104.691,1128.254Zm4.625-47.016a12.537,12.537,0,0,1,9.9,5.182,5.031,5.031,0,0,1,1.1,2.1c.215,1.229,1.035,1.545,2.088,1.745q2.252.428,4.473,1.008a9.914,9.914,0,0,1,7.663,7.813c.41,1.748.755,3.512,1.1,5.275a5.881,5.881,0,0,0,.644,1.878,9.8,9.8,0,0,1,1.134,5.589,71.823,71.823,0,0,1-1.712,11.836,2.448,2.448,0,0,1-.687,1.4,54,54,0,0,1-6.187,5.016c-.08.054-.236-.005-.355-.012-.042-.113-.145-.245-.115-.335a30.51,30.51,0,0,0,1.43-9.43,44.658,44.658,0,0,1,1.171-7.484,5.768,5.768,0,0,0,.093-2.758,36.561,36.561,0,0,0-2.411,7.479,4.05,4.05,0,0,0-.176,1.182c.333,3-1.714,4.154-3.955,5.159a9.4,9.4,0,0,1-4.313.587c-.932-.035-1.118-.552-.964-1.33.193-.977.451-1.943.6-2.926a10.355,10.355,0,0,0-.06-3.4,28.274,28.274,0,0,0,.109-3.767,37.865,37.865,0,0,0-.421-4.019,5.218,5.218,0,0,0-2.456-2.871,2.554,2.554,0,0,0-2.632-.123s.248,1.257,1.137,1.187a2.653,2.653,0,0,1,1.967,1.128,6.075,6.075,0,0,1-.579,5.705c-.058.074-.113.137-.172.222q-.308.445-.643.865l-.025.027.009-.005a28.143,28.143,0,0,1-2.209,2.419c-2.245,2.234-5.1,2.778-8.117,2.513a17.408,17.408,0,0,1-5.639-1.578c-.173-1.075-.608-3.564-.953-3.579s-.219,2.2-.153,3.05c-.144-.073-.288-.142-.431-.217-.183-.1-.364-.2-.547-.3-.124-1.372-.448-4.638-.737-4.731s-.363,2.983-.376,4.129q-2.485-1.387-4.845-2.988c-.116-.078-.234-.152-.35-.228-.149-.919-.528-3.041-.922-3.388-.42-.369-.47,1.824-.475,2.573a11.245,11.245,0,0,0-1.2-.526c-.125-.984-.559-4.108-1.034-4.328-.45-.208-.293,2.751-.211,3.967a7.927,7.927,0,0,0-.93-.152,2.441,2.441,0,0,1-.391-.072c-.217-1.725-.844-6.43-1.224-6.584-.344-.14-.324,3.123-.29,4.831a7.366,7.366,0,0,0-1.772-2.031c-1.71-1.381-1.7-1.395-.679-3.306-.71-.33-1.052.793-1.867.417.1-1.505,1.93-1.721,2.336-3.149-1.339.359-2.219,1.495-3.918,1.866,1.021-1.9,2.936-2.367,4.117-3.853-1.295,0-1.966.966-3.156,1.134a12.215,12.215,0,0,1,4.971-6.844,19.172,19.172,0,0,1,16.808-2.321,13.666,13.666,0,0,1,3.706,1.923c2.722,1.922,5.628,3.54,8.428,5.329a15.261,15.261,0,0,1,4.543,4.957c.418.664.828,1.333,1.288,2.076.371-1.545-.247-6.185-1.151-8.514a13.921,13.921,0,0,0-5.364-6.913c4.459.015,8.253,3.74,8.211,7.835a24.6,24.6,0,0,0,.1,4.183,5.409,5.409,0,0,0,2.364,3.777,40.519,40.519,0,0,1,3.547,2.629c.171-.969-.458-1.452-.927-1.979a15.44,15.44,0,0,0-1.459-1.361,5.942,5.942,0,0,1-2.161-5.313,9.312,9.312,0,0,0-1.293-6.331,9.53,9.53,0,0,0-6.986-4.522c-3.146-.284-5.886-1.543-8.7-2.724-.306-.128-.586-.326-.9-.435a26.69,26.69,0,0,1-8.729-5c-1.777-1.521-3.855-1.507-5.9-.084-2.183,1.522-4.61,1.469-7.05.664a8.737,8.737,0,0,0-4.3-.553,2.63,2.63,0,0,0-2.536,2.592c-.063.391,0,.978-.226,1.14-1.411,1-1.281,2.386-1.391,3.881-.113,1.517-1.254,2.734-2.362,4.107-.479-2.1.959-3.509,1.275-5.195-.462-.18-.472.578-1.023.4-.012-.608.791-1.042.431-1.889-.431.271-.806,1.1-1.5.409-.622-.621-.155-1.061.111-1.578a17.244,17.244,0,0,1,4.126-5.312,8.674,8.674,0,0,1,4.818-2.169,25.4,25.4,0,0,0,6.973-1.595,6.919,6.919,0,0,1,5.638.162,4.9,4.9,0,0,0,4.424.148c1.1-.53,1.729-.239,2.552.8a10.732,10.732,0,0,0,2.555,2.46C1104.985,1081.181,1107.14,1081.151,1109.317,1081.238Zm-31.784-8.808c1.245-1.662,3.26-1.551,5.165-1.148.61.129.747.715,1.111,1.081.971.977,1.286,1.039,2.445.164a1.421,1.421,0,0,1,1.653-.094,6.627,6.627,0,0,0,6.658-.191,4.672,4.672,0,0,1,4.949-.091,3.967,3.967,0,0,1,.976.67,17.414,17.414,0,0,1,2.791,6.267,5.052,5.052,0,0,1-1.852-1.777c-1.739-2.23-1.956-2.317-4.7-1.6a3.837,3.837,0,0,1-.628.059c.09-.47.179-.916.255-1.362.008-.042-.065-.1-.11-.16-.438.087-.513.532-.771.8s-.394.705-.847.827c-.337-.566.042-.982.294-1.418a3.489,3.489,0,0,0,.554-1.342l-2.306,2.03c-.108-.582.658-.837.5-1.544a8.864,8.864,0,0,0-1.168.918,1.89,1.89,0,0,1-1.737.708,7.677,7.677,0,0,0-3.7.652,7.22,7.22,0,0,1-2.132.487c-1.12.083-1.119.09-1.407-1.154-.541.178-.551.92-1.125,1.058a.74.74,0,0,1-.215-.02c-.367-.3-.009-.576.078-.85a.842.842,0,0,0-.034-.854c-.828.306-.923,1.4-1.727,1.724-.434-.809.446-1.3.478-1.9,0-.248-.126-.319-.252-.182-2.544,2.776-6.191,4.4-8.136,7.8-.561.979-1.13,1.955-1.615,2.971a16.479,16.479,0,0,1-3.812,5.3,11.378,11.378,0,0,0-2.605,4.206c-.75,1.771-1.462,3.558-2.2,5.333-.23.552-.476,1.1-.754,1.626a.6.6,0,0,1-.864.214c-.324-.156-.2-.441-.1-.673.582-1.337,1.192-2.664,1.764-4.005q2.429-5.678,4.838-11.367a9.212,9.212,0,0,1,2.37-3.854,1.958,1.958,0,0,0,.594-.8C1071.589,1077.192,1075.279,1075.438,1077.533,1072.43Zm-18.053,27.738c-.36-.174-.348-.47-.469-.693a3.051,3.051,0,0,1,.7-4.157c1.231-1.141,2.263-2.5,3.409-3.787a.939.939,0,0,1,.033,1.052A77.461,77.461,0,0,1,1059.48,1100.168Zm-6.1,28.075c-.532-.018-1.063-.057-1.6-.08a4.576,4.576,0,0,1-3.714-1.994,22.307,22.307,0,0,0-2.842-3.334,17.4,17.4,0,0,0-5.3-3.136c-2.452-1.007-4.1-2.6-4.48-5.361a6.729,6.729,0,0,0-1.945-3.42c-1.994-2.26-2.579-3.627,1.448-5.115a15.87,15.87,0,0,1,2.9-.728,4.451,4.451,0,0,0,3.219-6.611,6.714,6.714,0,0,1-.142-6.739c1.008-2.076.651-4.289.34-6.479-.313-2.208-.027-2.423,2.216-1.9a13.248,13.248,0,0,1,7.6,4.828c2.89,3.686,5.366,7.609,6.331,12.306a2.9,2.9,0,0,1-.231,2.355c-2.367-2.019-4.065-4.731-6.853-6.257,1.923,3.2,4.6,5.833,6.638,8.955-2.643-1.659-4.47-4.269-7.163-5.87-.41.632.143.875.409,1.155a78.961,78.961,0,0,1,6.427,7.35c.422.575,1.233,1.155.479,2.214-2.974-2.607-5.69-5.478-9.061-7.541,3,4.059,6.714,7.481,9.7,11.528.048.065-.048.237-.121.546-3.506-3.292-6.461-7.085-10.855-9.681a4.215,4.215,0,0,0,1.557,2.168c2.235,2.187,4.432,4.4,6.492,6.763,3.787,4.339,5.711,9.551,7.1,15a8.138,8.138,0,0,1-.042,4.475c-.7-.8-1.308-1.487-1.9-2.191A8.685,8.685,0,0,0,1053.383,1128.243Zm28.512,35.248a5.9,5.9,0,0,1,.493,2.128,1.851,1.851,0,0,1-1.055,1.968c-4.041,1.835-8.132,3.359-12.665,1.888a7.023,7.023,0,0,1-2.731-1.563,14.579,14.579,0,0,0-4.1-2.421,18.979,18.979,0,0,1-4.512-2.525c-1.862-1.557-3.188-3.407-3.138-5.953a10.805,10.805,0,0,0-2.8-7.478,5.769,5.769,0,0,1-.33-.5c-2.552-3.69-2.448-5.867.042-9.715,1.146-1.77,2.275-3.412,2.142-5.631a2.856,2.856,0,0,1,.728-1.815,1.428,1.428,0,0,1,2.054-.537,8.609,8.609,0,0,1,2.816,1.831c.6.439,1.017.776,1.465,1.061a1.549,1.549,0,0,1,.785,1.5,14.986,14.986,0,0,0,.831,4.486,7.055,7.055,0,0,0,4.607,5.1,39.59,39.59,0,0,1,6.249,3.072,10.728,10.728,0,0,1,3.775,3.743A90.8,90.8,0,0,1,1081.894,1163.491Zm17.627,1.947a19.106,19.106,0,0,1-12.732-4.329,35.636,35.636,0,0,1-7.188-7.15,9.943,9.943,0,0,1-1.164-1.852,16.579,16.579,0,0,0-6.326-7.272c-.381-.261-.747-.544-1.163-.847l.531-2.036-.235-.177c-.488.459-.959.936-1.469,1.37a.658.658,0,0,1-.907-.046c-.231-.207-.126-.478-.06-.734.228-.869,1.161-1.445,1.1-2.757a15.694,15.694,0,0,0-2.518,2.382.513.513,0,0,1-.7.16c-.341-.2-.163-.467-.036-.672a5.074,5.074,0,0,0,1.238-2.586c-1.086.33-1.666,1.249-2.483,1.817-.349.242-.638.513-1.022.137-.3-.3-.138-.6.057-.886a5.712,5.712,0,0,0,.9-1.849c-1.036.124-1.443.982-2.186,1.156a2.6,2.6,0,0,1-.635-1.259c-.535-2-.326-2.267,1.47-3.274,2.873-1.611,6.064-2.053,9.212-2.421a38.793,38.793,0,0,1,18.089,1.888,59.709,59.709,0,0,0,13.245,3.629,5.781,5.781,0,0,1,2.234.816,49.354,49.354,0,0,1,9.353,7.11,28.246,28.246,0,0,1,6.391,9.322,42.442,42.442,0,0,1,3.365,11.245c.025.2.062.4.081.594.154,1.567-.073,1.778-1.642,1.3a25.132,25.132,0,0,1-2.964-1.172c-1.076-.487-1.836-1.464-2.981-1.714.213-.81.97-.391,1.154-1.006a3.9,3.9,0,0,0-2.316-.19A161.182,161.182,0,0,1,1099.521,1165.438Zm34.621,7.189c-4.939,1.2-9.521.661-13.594-2.584-1.373-1.095-3-1.918-3.833-3.691,1.486.668,2.968,1.346,4.459,2a7.419,7.419,0,0,0,4.067.716,1.536,1.536,0,0,0,1.539-1.673,25.985,25.985,0,0,0-1.04-9.473c-.18-.566-.365-1.132-.542-1.677.4-.731,1.153.114,1.583-.477-.822-1.073-2.942-.908-2.845-2.895,1.208.015,2.314.88,3.664.59-1.473-1.864-4.358-1.439-5.722-3.89,3.894.016,7,1.838,10.352,2.6-2.359-1.74-5.063-2.673-7.665-3.838a1.434,1.434,0,0,1,1.923-.99,51.552,51.552,0,0,1,6.911,1.942,14.623,14.623,0,0,0,2.073.632c-.956-1.135-2.357-1.5-3.616-2.083-1.327-.613-2.71-1.1-4.069-1.649-.291-.117-.75-.149-.661-.576.094-.451.343-.9.939-.846.33.026.655.125.985.15,2.252.174,4.394.919,6.629,1.263-1.555-1.268-3.46-1.771-5.228-2.56-.433-.193-1.285-.077-1.133-.827.17-.837.842-1.029,1.714-.869a53.861,53.861,0,0,1,7.311,1.98,4.544,4.544,0,0,0,1.869.41,35.162,35.162,0,0,0-9.087-3.682c.565-1.672.581-1.7,1.975-1.52a43.809,43.809,0,0,1,6.274,1.42c-.11-.83-.777-.88-1.229-1.065-1.354-.552-2.742-1.018-4.121-1.5-.251-.088-.57-.129-.506-.462a.612.612,0,0,1,.711-.544c.973.168,1.939.377,3,.588-.34-1.118-1.487-1-2.055-1.653-.185-.605.436-.738.682-1.078,1.287-1.777,2.764-3.445,3.457-5.573a1.475,1.475,0,0,1,1.432-1.1,18.324,18.324,0,0,1,10.28,1.823c1.985.9,2.644,2.826,2.061,5.284-.23.968-.554,1.914-.805,2.878a7.723,7.723,0,0,0,.341,4.895c.074.186.152.369.216.558,1.055,3.15.472,4.709-2.517,6.169a9.3,9.3,0,0,0-5.191,5.966c-1.338,4.556-3.648,8.7-5.8,12.892A7.58,7.58,0,0,1,1134.143,1172.627Z" transform="translate(0 0)" fill="#3b122e"/>
    </g>
    <g id="Group_508" data-name="Group 508" transform="translate(240.439 -397.953)">
      <g id="Group_507" data-name="Group 507">
        <path id="Path_1134" data-name="Path 1134" d="M1008.012,1253.956l.032-.028c-1.222.951-1.278.941-2.45-.009-.213-.173-.616-.494-.773-.053-.193.543-.494.426-.854.345-.489-.109-.973-.377-1.535-.073.245.521,1,.5,1.073,1.276-2.872.051-5.7-.909-8.716-.063a2.454,2.454,0,0,1,1.384-1.319,7.412,7.412,0,0,0,1.611-1.049,4.314,4.314,0,0,1,2.467-1.056c1.437-.143,2.892-.185,4.306-.452a10.122,10.122,0,0,1,6.546.951,22.423,22.423,0,0,0,4.486,1.719,3,3,0,0,1,2.033,1.648c.684,1.272,1.411,2.523,2.123,3.78.617,1.09,1.629,1.37,3.02,1.459l-2.159-2.373c.754-.248,1.258.617,2.118.233l-2.6-2.109c.735-.476,1.319.362,1.987-.077-1.044-1.174-2.774-1.353-3.71-2.645,2.22.508,4.529.828,5.617,3.318a11.5,11.5,0,0,0,1.126,1.755,19.9,19.9,0,0,1,2.524,5.358c.314,1.022.714,1.982,1.107,2.964.45,1.127,1.205,2.339.427,3.666-.148.254.031.516.118.762a5.91,5.91,0,0,1,.118,3.018c-.315,1.843-.624,3.688-1.024,5.513a6.027,6.027,0,0,1-1.539,3.47c-1.389,1.2-2.954,2.2-4.718,3.478.384-5.008,2.093-9.285,3.865-13.632-.749.141-.775.978-1.606.908.1-2.844,1.306-5.447,1.817-8.2-.716-.03-.823.864-1.5.854-.263-1.032.067-2.039-.065-3.014-.634-.006-.473.89-1.172.8-.313-.595,0-1.315-.284-2.059a1.768,1.768,0,0,0-.437,2.06c.31.74.54,1.513.855,2.25a6.009,6.009,0,0,1,.247,4.223,7.59,7.59,0,0,0-.372,3.647c.4,1.952-.455,3.444-1.586,4.844-.508.629-1,1.372-1.949,1.454-.031-.145-.1-.268-.065-.341.16-.337.344-.663.528-.987a11.982,11.982,0,0,0,1.429-7.583,37.285,37.285,0,0,0-2.457-8.453,21.392,21.392,0,0,0-1.865-4.063c-.433.249-.043.786-.492,1.024-.878-1.117-.8-2.727-1.835-3.8-.348.387.131.916-.4,1.253-1.55-1.546-3.033-3.192-4.717-4.635-.35.442.33.742-.049,1.125C1009.295,1254.841,1008.856,1254.005,1008.012,1253.956Z" fill="#c92c27"/>
        <path id="Path_1135" data-name="Path 1135" d="M1044.461,1251.289a21.892,21.892,0,0,0-7.106-9.084q-1.007-.8-1.974-1.646c-.8-.7-.741-1.073.3-1.4a16.054,16.054,0,0,1,7.773-.453c2.526.46,4.3,2.034,5.95,3.845a110.256,110.256,0,0,1,7.8,10,44.051,44.051,0,0,1,5.827,11.751,28.22,28.22,0,0,1,1.274,4.471,41.31,41.31,0,0,1,.149,9.131,16.777,16.777,0,0,1-4.26,10.18c-.56.648-1.126,1.3-1.624,1.992-1.616,2.26-4.1,3.388-6.3,4.89a.807.807,0,0,1-1.045,0c-.362-.334-.113-.683.072-1.008a35.176,35.176,0,0,1,2.3-3.291c1.515-2.076,3.3-3.95,4.677-6.126a3.242,3.242,0,0,0,.822-1.923c-.728.381-1.332.716-1.953,1.016-.285.139-.617.264-.9-.006-.318-.307-.048-.6.093-.865.562-1.035,1.19-2.036,1.714-3.09a9.4,9.4,0,0,0,1.228-3.358.583.583,0,0,0-.667.076c-.418.241-.822.51-1.259.708-.413.186-.881.722-1.291.313-.446-.444.171-.839.381-1.224s.508-.692.726-1.059a2.274,2.274,0,0,0,.588-1.483c-.649-.195-1.257.184-1.888.146s-.795-.3-.46-.812a12.51,12.51,0,0,0,1.421-2.131c.146-.371.528-.772.168-1.186-.322-.369-.793-.276-1.208-.173a3.416,3.416,0,0,1-2.407.06c1.017-2.246,2.521-4.193,3.545-6.678-1.341.465-1.9,1.43-2.7,2.091a7.3,7.3,0,0,1-2.556,1.871c-.011-1.485,1.079-2.452,1.212-3.742-1.26-.308-1.866,1.1-3.082,1.188.332-1.65,1.465-2.728,2.078-4.1-.952-.324-1.779.542-2.747.151.513-1.472,1.6-2.622,2.129-4.336-.931.576-1.6,1.01-2.286,1.405-.269.154-.6.328-.9.114-.4-.284-.177-.666-.074-1.018a15.965,15.965,0,0,0,1-2.985c-.993.439-1.472,1.277-2.21,1.8-.486.346-.838.2-.894-.383a9.354,9.354,0,0,1,.2-2.391c.233-1.423.415-2.854.669-4.64C1045.77,1249.1,1045.494,1250.305,1044.461,1251.289Z" fill="#c92c27"/>
        <path id="Path_1136" data-name="Path 1136" d="M1000.145,1315.346a16.814,16.814,0,0,1,5.006,1.172,55.945,55.945,0,0,0,12.22,3.24,40.172,40.172,0,0,0,15.777-.62,7.263,7.263,0,0,1,1.414-.269c.867-.048,1.129.333.7,1.043-2.123,3.522-4.844,6.408-8.766,7.929-3.22,1.248-6.522,1.773-9.879.581a55.335,55.335,0,0,1-8.377-3.635c-1.177-.652-1.22-.674-2.188.258a1.994,1.994,0,0,1-1.553.667,24.55,24.55,0,0,1-6.824-.849c-1.321-.434-2.691-.715-4.012-1.148-3.7-1.211-7.419-2.323-10.706-4.6a24.055,24.055,0,0,1-8-8.612,16.227,16.227,0,0,1-1.72-6.3c-.029-.358-.139-.8.307-.984s.685.2.934.458c1.37,1.431,2.776,2.833,4.08,4.323a14.271,14.271,0,0,0,5.793,4.189,22.805,22.805,0,0,0,4.8,1.288,6.264,6.264,0,0,1,3.73,1.624,35.989,35.989,0,0,0,3.26,2.606,6.772,6.772,0,0,0,2.095,1.237c-.6-1.518-1.937-2.369-2.2-4.168,2.255,1.644,4.106,3.417,6.812,4.209C1002.038,1317.607,1000.916,1316.8,1000.145,1315.346Z" fill="#c92c27"/>
        <path id="Path_1137" data-name="Path 1137" d="M968.15,1256.444a3.674,3.674,0,0,1-.777,1.845,27.263,27.263,0,0,0-3.12,7.531,55.4,55.4,0,0,1-1.615,5.705,17.978,17.978,0,0,0-.967,7.731,22.8,22.8,0,0,1,.064,6.07,3.245,3.245,0,0,0,.537,2.458,4.313,4.313,0,0,1,.512,3.385c-.207,1.328-.469,2.647-.733,4.11,1.071-.532,1.22-1.851,2.421-2.036.4,1.806-.942,3.266-.853,5.066,1.4-.842,2.054-2.348,3.539-3.265-.119,2.325-1.577,4-1.605,6.134,1.478-.59,2.223-2.1,3.917-2.579-.27,1.557-1.262,2.724-1.372,4.08a.6.6,0,0,0,.7.046c.348-.139.734-.37,1.033-.019s-.035.711-.127,1.053a12.164,12.164,0,0,1-1.327,2.7c2.035,1.731,2.464,4.351,4.148,6.428a2.882,2.882,0,0,1-2.091-.252,13.81,13.81,0,0,1-2.982-1.87c-2.506-2.09-5.012-4.181-7.553-6.227-2.938-2.365-5.818-4.757-6.873-8.616-.014-.052-.04-.1-.057-.15-1.214-3.6-1.915-7.245-.811-11.013a5.664,5.664,0,0,0,.209-2.383,8.357,8.357,0,0,1,1.171-5.385,2.069,2.069,0,0,0,.171-1.808,4.5,4.5,0,0,1,1.148-4.86c.528-.528.986-1.126,1.48-1.689a14.073,14.073,0,0,0,1.94-2.549,30.361,30.361,0,0,1,5.37-6.771A10.083,10.083,0,0,1,968.15,1256.444Z" fill="#c92c27"/>
        <path id="Path_1138" data-name="Path 1138" d="M1029.593,1301.153a17.4,17.4,0,0,1,3.523-1.535,18.858,18.858,0,0,0,8.1-5.306,22.383,22.383,0,0,0,4.154-6.83,24.2,24.2,0,0,0,2.094-7.038c.271-3.749-.759-7.3-1.8-10.837-.133-.454-.437-.857-.6-1.3-.093-.246-.546-.444-.1-.865,1.206,1.114,2.366,2.29,3.635,3.331a11.444,11.444,0,0,1,3.051,4.069,25.264,25.264,0,0,1,1.679,6.978,6.042,6.042,0,0,1-.24,3.166,14.534,14.534,0,0,1-2.779,5.025,20.2,20.2,0,0,0-4.063,6.847,15.915,15.915,0,0,1-.922,1.87,5.024,5.024,0,0,1-1.847,2.181,12.028,12.028,0,0,0-3.616,3.582,18.942,18.942,0,0,1-8.7,6.055c-2.462.874-5.05,1.386-7.547,2.172-3.393,1.067-6.765.682-10.151.057a.746.746,0,0,1-.665-.59,35.516,35.516,0,0,0,10.209-4.005c3.137-1.959,6.686-3.324,9.326-6.145C1031.449,1301.619,1030.514,1301.846,1029.593,1301.153Z" fill="#c92c27"/>
        <path id="Path_1139" data-name="Path 1139" d="M971.786,1281.144a9.85,9.85,0,0,1,1.267,2.806c.552,2.12.55,4.342,1.394,6.411,1.573,3.854,4.206,6.934,6.991,9.915a7.268,7.268,0,0,0,1.294.944c1.375.927,2.815,1.771,4.123,2.785a31.637,31.637,0,0,0,6.23,3.932c.365.167.823.236,1,.9-3.391,1.094-6.686,1.595-9.77-.694a43.93,43.93,0,0,0-5.154-3.545,3.063,3.063,0,0,1-.771-.572,46.24,46.24,0,0,1-4.655-5.093,15.836,15.836,0,0,0-3.183-3.59,5.733,5.733,0,0,1-2.144-2.949,13.194,13.194,0,0,0-2.411-4.288c-1.726-2.4-2.834-5.053-2.332-8.108a13.263,13.263,0,0,0,.179-2.715,15.788,15.788,0,0,1,.738-5.377,24.6,24.6,0,0,1,2.541-5.528c.223-.366.443-.845.933-.753.584.11.391.682.4,1.073a29.018,29.018,0,0,0,.566,5.412,54.382,54.382,0,0,1,1.435,9.337,4.729,4.729,0,0,0,.6,2.8C971.643,1283.212,971.01,1282.079,971.786,1281.144Z" fill="#c92c27"/>
        <path id="Path_1140" data-name="Path 1140" d="M1010.75,1240.833c-.579.245-.471,1.028-1.121,1.172-.406-.362-.805-.933-1.4-.2-.174.212-.5.357-.7.107-.629-.794-1.249-.294-1.856-.027a8.551,8.551,0,0,1-4.357.848c-.618-.062-.751-.333-.4-.835a7.664,7.664,0,0,1,3.3-2.719,23.986,23.986,0,0,1,4.873-1.57,4.655,4.655,0,0,0,1.939-.721,7.1,7.1,0,0,1,4.381-1.3,12.441,12.441,0,0,0,3.159-.41,3.6,3.6,0,0,1,3.7.831,3.773,3.773,0,0,0,3.815,1.083,1.88,1.88,0,0,1,2.121.743,8.079,8.079,0,0,0,1.645,1.516,32.678,32.678,0,0,1,6.788,6.04,50.4,50.4,0,0,1,6.856,11.164,7,7,0,0,1,.738,3.241,25.485,25.485,0,0,1-3.225-3.315c-1.915-2.384-3.857-4.735-6.689-6.121-.274-.135-.62-.282-.683-.634-.077-.428.685-.317.573-.79-1.031-.754-2.351-.9-3.435-1.611.465-.7,1.356-.22,1.764-.944a9.871,9.871,0,0,0-1.31-.473,20.541,20.541,0,0,0-6.509-.657c-1.056.113-1.059.088-1.137-1.018-.719.04-.907.988-1.708,1.028-.114-1.243.773-2.2.861-3.373-1.3.437-1.413,2.09-2.718,2.432-.48-1.077-.308-2.233-.7-3.385-.866.607-.652,1.667-1.29,2.26-.807-.487-.471-1.549-1.179-2.1-.335.528-.128,1.318-.835,1.606-.572-.329-.3-1.12-.835-1.446-.453.079-.387.8-.928.756-.569-.4-.309-1.321-.988-1.689a1.9,1.9,0,0,0-.131.205c-.278.647-.088,1.7-.978,1.817C1011.342,1242.438,1011.388,1241.285,1010.75,1240.833Z" fill="#c92c27"/>
        <path id="Path_1141" data-name="Path 1141" d="M1036.477,1272.293l.217-.14-2.54-4.991,1.909,1.025c-.817-1.9-2.289-3.053-2.989-4.807,1.055.2,1.764.891,2.964.883-1.509-1.62-3.164-2.788-4.34-4.35.228-.44.841-.095.933-.761-2.543-.954-3.519-2.983-3.532-5.6,0-.119-.1-.168-.231-.146-.452.132-.414.918-1.077.8-.283-.367-.1-.823-.224-1.218-.077-.245-.061-.615-.425-.542-.733.145-.809-.265-.8-.813a.547.547,0,0,0-.4-.581c-.806-.33-.861-1.044-.9-1.911a18.006,18.006,0,0,1,3.272.521,23.913,23.913,0,0,1,7.295,3.928c1,.882,1.961,1.817,3,2.652,2.8,2.246,3.085,5.46,3.4,8.669a.824.824,0,0,1-.075.471,5.454,5.454,0,0,0-.446,2.651,12.363,12.363,0,0,1-.558,3.148,18.822,18.822,0,0,0-.806,3.916,16.727,16.727,0,0,1-1.674,5.811c-.17.35-.261.824-.92.828-.444-3.88-2.267-7.383-3.3-11.511Z" fill="#c92c27"/>
        <path id="Path_1142" data-name="Path 1142" d="M994.858,1293.19c-.307.29-.507.318-.725.248a9.033,9.033,0,0,1-5.318-3.883,17.16,17.16,0,0,0-3.211-3.987,16.732,16.732,0,0,1-5.46-9.889c-.321-1.853-.268-3.748-.6-5.558-.59-3.188,1.748-5.177,2.68-7.728a.921.921,0,0,1,.472-.421,5.521,5.521,0,0,0,2.251-2.409c1.654-2.6,4.292-3.19,7.128-3.322-1.162.824-2.485,1.355-3.6,2.236-1.573,1.236-2.171,1.973-2.426,3.2,4.454-3.739,7.637-5.276,10.526-4.942a11.925,11.925,0,0,0-4.9,3.25,5.6,5.6,0,0,1-2.179,1.308,3.571,3.571,0,0,0-1.792.962c.341.515,1,.041,1.362.63-.8.869-1.671,1.733-2.447,2.674a8.729,8.729,0,0,0-2.1,3.078c.771.26,1.136-.718,1.864-.4-.477,1.591-1.753,2.826-1.764,4.659.862-.477,1.048-1.481,2-1.883a33.161,33.161,0,0,0-.16,5.17c.117,1.664-.295,3.347.027,5.1a1.18,1.18,0,0,0,.6-.665c.137-.274.205-.6.66-.8.615,2.737.659,5.627,2.086,8.15.6-.351.162-.96.687-1.205C992.063,1288.875,993.551,1290.994,994.858,1293.19Z" fill="#c92c27"/>
        <path id="Path_1143" data-name="Path 1143" d="M999.23,1240.955c-1.558.6-3.228.759-4.73,1.438a.5.5,0,0,1-.455-.047c-.447-.463-.678-.314-.892.217-.131.326-.4.261-.656.086-.234-.161-.312-.614-.745-.412-.425.653-.523,1.51-1.2,1.99-.449-.182-.561-.741-1.163-.726a3.338,3.338,0,0,1-2.447,2.964,3.792,3.792,0,0,0-1.906,1.667,3.59,3.59,0,0,1-3.31,1.864c-.247-.006-.528-.025-.688.246.337.533,1.25.314,1.45,1.1-.65.559-1.574.347-2.245.908a5.136,5.136,0,0,1,.48.427c.584.663.551.772-.3,1-.459.124-.923.231-1.422.355.9,1.083.927,1.1.272,2.071a16.146,16.146,0,0,0-1.51,2.647,2.891,2.891,0,0,1-2.784,2.025c-.07,0-.139.121-.2.18.01.422.641.45.544.918-.467.578-1.335.374-1.825.923.055.45.66.551.658,1.2-1.361.418-1.5,1.7-1.737,2.912a29.559,29.559,0,0,0-.212,3.845c-.095,1.456-.242,2.908-.4,4.71a5.294,5.294,0,0,1-1.522-4.056,16.168,16.168,0,0,0-.251-4.471,4.516,4.516,0,0,1,.081-2.386,5.233,5.233,0,0,0,.2-2.377,8.227,8.227,0,0,1,1.473-5.778,18.362,18.362,0,0,1,2.6-3.254,4.058,4.058,0,0,0,1.245-1.443c.643-2.056,2.124-3.368,3.708-4.643a15.008,15.008,0,0,0,1.344-1.381c.7-.735,1.382-1.5,2.114-2.2a15.829,15.829,0,0,1,9.6-3.408c1.866.144,3.734.279,5.6.43C998.426,1240.527,998.882,1240.478,999.23,1240.955Z" fill="#c92c27"/>
        <path id="Path_1144" data-name="Path 1144" d="M1006.037,1235.995c-.011-1.173,1.026-1.555.953-2.5-1.444.565-2.373,1.774-3.71,2.323-.332-.6.535-1.112.05-1.686a1.707,1.707,0,0,0-1,.761c-.979,1.3-2.115,1.454-3.633.935a13.533,13.533,0,0,0-4.63-.724c1.148.93,2.37,1.059,3.529,1.946-2.9-.13-5.371-1.127-7.991-1.116.123.7.932.464,1.153,1.045a6.272,6.272,0,0,1-.624.213,15.944,15.944,0,0,0-6.546,2.882,6.62,6.62,0,0,1-1.1.654,16.873,16.873,0,0,0-5.273,4.123q-2.387,2.813-4.769,5.63a3.769,3.769,0,0,1-1.205,1.189c-.262-.332-.047-.555.036-.795a41.825,41.825,0,0,1,2.153-4.3c2.549-5.3,6.771-8.856,11.864-11.523,1.136-.595,2.306-1.132,3.415-1.772a6.6,6.6,0,0,1,3.367-.862c1.07-.008,2.115.235,3.2.128a19.094,19.094,0,0,0,5.18-1.614,12.233,12.233,0,0,1,9.367-.244c1.943.766,3.822,1.655,5.687,2.583.256.128.641.193.522.8A19.915,19.915,0,0,0,1006.037,1235.995Z" fill="#c92c27"/>
        <path id="Path_1145" data-name="Path 1145" d="M988.909,1255.133l-.252-.365c1.416-1.427,2.768-2.928,4.282-4.244.593-.516,1.2-.836,1.481-1.687a1.981,1.981,0,0,1,1.748-1.249,2.886,2.886,0,0,0,1.853-.822,1.619,1.619,0,0,1,2.068-.229c1.612.943,2.97.447,4.185-.758a3.109,3.109,0,0,1,1.8-.986c2.871-.34,5.755-.762,8.472.736a9.527,9.527,0,0,0,2.452.73,2.706,2.706,0,0,1,1.793.97,6.706,6.706,0,0,0,3.045,2.261,7.253,7.253,0,0,1,3.984,3.98,6.651,6.651,0,0,0,1.269,2.033,4.574,4.574,0,0,1,1.043,3.961c-.829-1.516-1.369-2.965-2.477-3.936s-2.191-1.967-3.273-3.046c-.272.442-.011.887-.409,1.177-.925-.363-.943-1.531-1.647-2.1-.337.338.017.915-.451,1.025-.446.106-.583-.37-.788-.664-.317-.454-.429-1.07-.985-1.337-.339.278-.08.881-.577.94-.458.054-.559-.414-.76-.706s-.27-.705-.619-.907c-.424.15-.24,1.308-1.051.716-1.659-1.209-3.588-1.04-5.422-1.034-3.943.011-7.844.94-11.754.557a.345.345,0,0,0,.054.485c.171.195.441.365.295.672s-.437.235-.7.195a2.932,2.932,0,0,0-1.421,0c-.095.462.782.535.432,1.028-.241.339-.692.148-1.05.172-.731.049-1.644-.231-1.648,1.022,0,.081-.358.216-.556.231A10.36,10.36,0,0,0,988.909,1255.133Z" fill="#c92c27"/>
        <path id="Path_1146" data-name="Path 1146" d="M1002.743,1298.383a32.736,32.736,0,0,1,3.657-.351,25.389,25.389,0,0,0,10.067-2.406c3.843-1.859,7.08-4.591,10.433-7.157a17.3,17.3,0,0,0,3.009-3.107c.206-.261.257-.752.708-.685.385.761-.009,1.647.549,2.372a13.673,13.673,0,0,0,.947-5.607,7.042,7.042,0,0,1,.042-1.919,33.286,33.286,0,0,0,.936-6c0-.054.154-.1.242-.156.423.117.506.524.649.844a19.2,19.2,0,0,1,1.675,7.938,9.2,9.2,0,0,1-.438,2.68,12.444,12.444,0,0,1-6.062,7.368c-1.35.765-2.663,1.594-4.019,2.342-4.89,2.695-9.924,5.01-15.591,5.548a13.728,13.728,0,0,1-5.072-.519A2.606,2.606,0,0,1,1002.743,1298.383Z" fill="#c92c27"/>
        <path id="Path_1147" data-name="Path 1147" d="M985.824,1299.807a6.366,6.366,0,0,0-2.18-1.45c-2.428-.89-3.939-2.888-5.453-4.8a23.026,23.026,0,0,0-1.982-2.686,3.906,3.906,0,0,1-1.253-2.71,18.269,18.269,0,0,0-.536-3.149,2.976,2.976,0,0,1-.151-1.262,6.855,6.855,0,0,0-.414-3.446c-.556-2.071-1.05-4.157-.182-6.282a2.209,2.209,0,0,0,.139-.941c-.169-2.694.9-5.018,2.2-7.255a13.139,13.139,0,0,1,2.843-3.8,1.827,1.827,0,0,1,.093,1.192c-.2,2.872-.508,5.742-.584,8.617a11.51,11.51,0,0,1-1.444,5.829,2.789,2.789,0,0,0-.653,1.7c.913-.149,1.167-1.306,2.176-1.247-.216,1.112-1.177,1.766-1.391,2.822.655-.016.9-.739,1.569-.564-.468.937-.908,1.821-1.406,2.819.977-.062,1.282-1.012,2.1-1.2-.188,1.672-1.164,2.933-1.629,4.43.89-.046,1.041-1.133,1.939-1.1-.165.928-.863,1.571-.89,2.5.505,0,.691-.559,1.129-.483.043.042.1.072.111.115a.918.918,0,0,1,.051.313,10.886,10.886,0,0,0,2.66,7.96,13.173,13.173,0,0,0,2.2,2.1A1.94,1.94,0,0,1,985.824,1299.807Z" fill="#c92c27"/>
        <path id="Path_1148" data-name="Path 1148" d="M988.477,1277a2.633,2.633,0,0,1-.737-1.753,18.086,18.086,0,0,1,3.183-12.322,6.232,6.232,0,0,1,1.682-1.712,7.469,7.469,0,0,0,2.089-1.962,1.649,1.649,0,0,1,1.621-.848,4.439,4.439,0,0,0,3.159-.94,4.931,4.931,0,0,1,2.539-.886c1.711-.086,3.429-.2,5.137-.132a9.3,9.3,0,0,1,7.289,3.776c1.52,1.964,1.752,4.25,1.786,6.527a12.761,12.761,0,0,1-2.3,7.047,3.608,3.608,0,0,1-1.667,1.683c.832-1.647,1.512-3.325,2.183-5.008a7.3,7.3,0,0,0,.456-3.93c-.516-3.238-2.479-5.494-5.032-7.33a1.283,1.283,0,0,0-1.2-.4,8.337,8.337,0,0,1,2.274,2.785,14.572,14.572,0,0,1-2.816-1.176,6.47,6.47,0,0,0-2.625-.882c.23.7.987.846,1.065,1.535-1.272.216-2.121-1.159-3.375-.967-.064.587.7.733.515,1.356-.994-.126-1.773-.88-2.752-.985-.008.519.522.665.438,1.167a11.4,11.4,0,0,0-1.549-.15c-2.738.092-5.354.613-7.26,2.793a14.063,14.063,0,0,0-3.679,8.035C988.761,1273.769,988.719,1275.246,988.477,1277Z" fill="#c92c27"/>
        <path id="Path_1149" data-name="Path 1149" d="M993.966,1303.967a57.208,57.208,0,0,0,15.791.623c5.3-.672,10.007-3.088,14.976-5.314a4.463,4.463,0,0,1-1.172,2.284,15.056,15.056,0,0,1-9.352,5.125c-3.04.565-6.132.859-9.2,1.236a13.729,13.729,0,0,1-6.77-.857A9.538,9.538,0,0,1,993.966,1303.967Z" fill="#c92c27"/>
        <path id="Path_1150" data-name="Path 1150" d="M1005.1,1265.556a1.309,1.309,0,0,1-.589,1.271,13.565,13.565,0,0,0-4.02,4.086,5.076,5.076,0,0,0-.231,4.761,1.848,1.848,0,0,0,1.727,1.231,3.31,3.31,0,0,0,2.606-1.38.771.771,0,0,0-.409-1.279,3.079,3.079,0,0,0-2.2.093c-.253.094-.524.248-.715-.018a.746.746,0,0,1,.058-.761,3.764,3.764,0,0,1,4.145-1.657,2.766,2.766,0,0,1,.882,4.438,5.388,5.388,0,0,1-3.167,1.758c-2.33.509-3.83-.429-4.493-2.708a9.254,9.254,0,0,1,.779-7.282,8.467,8.467,0,0,1,8.7-4.78,6.023,6.023,0,0,1,5.36,3.762c.253.643.041.952-.63.822a6.994,6.994,0,0,1-3.411-1.274c-.651-.551-1.375-1.016-2.066-1.52-.111-.08-.2-.074-.272.019-.187.5.575.733.363,1.269C1006.66,1266.277,1006.048,1265.508,1005.1,1265.556Z" fill="#c92c27"/>
        <path id="Path_1151" data-name="Path 1151" d="M1039.342,1288.492c-1.744-.631-1.765-.644-.966-1.986.718-1.2,1.464-2.38,1.182-3.888a.5.5,0,0,1,.234-.556c.311-.165.51.056.671.256a11.9,11.9,0,0,1,2.478,5.486,1.972,1.972,0,0,1-.125.781,8.345,8.345,0,0,1-2.976,4.647c-.929.722-1.915,1.37-2.883,2.04a12.084,12.084,0,0,1-5.914,1.8c-.2.02-.435.025-.448-.389,1.069-.6,2.217-1.162,3.283-1.855a15.579,15.579,0,0,0,3.252-2.21c-1.072-.3-1.9.424-3.011.1C1035.627,1290.85,1037.787,1290.154,1039.342,1288.492Z" fill="#c92c27"/>
        <path id="Path_1152" data-name="Path 1152" d="M1018.086,1288.218a5.053,5.053,0,0,1-1.234,1.519,12.333,12.333,0,0,1-6.017,2.823c-1.587.269-3.187.321-4.783.439-4.709.348-8.512-1.544-11.74-4.814-.164-.166-.369-.379-.236-.674.344-.169.619.033.917.137,1.613.558,3.217,1.147,4.848,1.649a23.5,23.5,0,0,0,17.188-.953C1017.3,1288.22,1017.536,1287.913,1018.086,1288.218Z" fill="#c92c27"/>
        <path id="Path_1153" data-name="Path 1153" d="M1001.51,1244.448c-.443.568-.9.476-1.3.531a14.573,14.573,0,0,0-7.764,3.158,53.763,53.763,0,0,0-9.827,10.745,8.759,8.759,0,0,1-1.636,2.135,17.2,17.2,0,0,1,1.652-4.342,33.845,33.845,0,0,0,4.126-7.749c.147-.446.372-.763.875-.8a3.813,3.813,0,0,0,2.863-1.525,3.775,3.775,0,0,1,1.335-.87,19.8,19.8,0,0,1,4.846-1.631A8.215,8.215,0,0,1,1001.51,1244.448Z" fill="#c92c27"/>
        <path id="Path_1154" data-name="Path 1154" d="M1000.217,1285.058a11.455,11.455,0,0,1,2.782-.532,19.42,19.42,0,0,0,12.645-5.89c.344-.334.721-.635,1.093-.938.162-.131.352-.294.575-.173.312.171.189.433.1.69a9.3,9.3,0,0,1-4.007,5.236,17.483,17.483,0,0,1-11.37,2.508A2.016,2.016,0,0,1,1000.217,1285.058Z" fill="#c92c27"/>
        <path id="Path_1155" data-name="Path 1155" d="M992.675,1275.158a3.556,3.556,0,0,1-1.117-2.006,9.243,9.243,0,0,1,2.053-7.787,5,5,0,0,1,5-1.544c-1.277.376-2.567.53-3.484,1.5.426.487,1.07-.214,1.42.4-.709.7-1.795.782-2.378,1.6.18.336.621.01.826.374-.724.957-1.819,1.719-2.062,3.29.992-.745,1.476-1.715,2.539-2.146-.145,1.007-.576,1.86-.665,2.807-.09.966.43,1.914.182,2.922-.9-.231-.905-1.178-1.654-1.486Z" fill="#c92c27"/>
        <path id="Path_1156" data-name="Path 1156" d="M1002.533,1270.252a7.625,7.625,0,0,1,2.2-1.894,2.45,2.45,0,0,1,2.449-.144,20.269,20.269,0,0,1,3.611,2.842,1.354,1.354,0,0,1,.316.723,6.072,6.072,0,0,1-.382,4.212c-.149.3-.267.733-.774.656-.06-2.933-.128-3.191-1.157-4.405-.228.157-.039.556-.379.651-.762-.848-.942-2.149-2.2-2.632C1005.042,1269.807,1003.916,1270.581,1002.533,1270.252Z" fill="#af1f24"/>
        <path id="Path_1157" data-name="Path 1157" d="M1007.94,1278.425c-.057.72-.527,1-.928,1.352-2.785,2.415-6.73,1.934-9.934.277a8.189,8.189,0,0,1-1.664-1.25,2.56,2.56,0,0,1-1.032-1.949,1.169,1.169,0,0,1,1.162.294,21.392,21.392,0,0,0,5.249,2.352,6.8,6.8,0,0,0,5.433-.4C1006.731,1278.848,1007.159,1278.375,1007.94,1278.425Z" fill="#af1f24"/>
        <path id="Path_1158" data-name="Path 1158" d="M1017.63,1265.632c1.646,1.974.951,7.245-1.1,8.505-.113-1.52.64-2.813.9-4.2S1017.383,1267.11,1017.63,1265.632Z" fill="#c92c27"/>
      </g>
      <path id="Path_1159" data-name="Path 1159" d="M1065.384,1282.589c-.592,1.729-1.535,3.3-2.262,4.963-1.59,3.64-3.7,7.008-5.625,10.468a50.414,50.414,0,0,1-7.468,10.614,64.3,64.3,0,0,1-8.3,7.326,13.813,13.813,0,0,0-2.939,2.713c-1.487,1.959-2.993,3.906-4.412,5.914a10.13,10.13,0,0,1-3.445,3.067,26.438,26.438,0,0,1-3.76,1.8c-4.2,1.506-8.417,1.945-12.625-.1-1.826-.887-3.736-1.6-5.585-2.444a2.3,2.3,0,0,0-2.813.277,3.046,3.046,0,0,1-2.552.708,15.736,15.736,0,0,1-2.219-.341q-7.1-1.987-14.183-4.049a7.9,7.9,0,0,1-2.04-.922c-2.693-1.737-5.538-3.284-7.774-5.636a6.251,6.251,0,0,0-4.866-2.3c-2.368.033-4.242-1.407-6.021-2.77-3.314-2.539-6.589-5.129-9.73-7.89a21.438,21.438,0,0,1-6.981-12.341,13.139,13.139,0,0,1,.287-6.023,15.649,15.649,0,0,0,.652-4.584,7.794,7.794,0,0,1,.8-4.206,5.618,5.618,0,0,0,.741-3.552,6.526,6.526,0,0,1,2.02-5.515c1.854-1.994,3.579-4.1,5.281-6.236a23.023,23.023,0,0,1,6.888-6.185,3.8,3.8,0,0,0,1.683-1.86c1.148-2.477,2.48-4.883,3.429-7.433a17.486,17.486,0,0,1,6.394-8.058,72.021,72.021,0,0,1,10.565-6.682,5.584,5.584,0,0,1,3.555-.673,10.578,10.578,0,0,0,6.876-.839,11.321,11.321,0,0,1,4.38-1.5,17.847,17.847,0,0,1,9.333,1.85c1.325.7,2.62,1.453,3.942,2.159a5.582,5.582,0,0,0,3.073.771,4.789,4.789,0,0,1,3.321.949,3.6,3.6,0,0,0,2.105.683,7.378,7.378,0,0,1,4.187,1.409,26.955,26.955,0,0,0,2.8,1.568,1.408,1.408,0,0,0,1.228.179c2.365-.914,4.842-.764,7.3-.741a13.867,13.867,0,0,1,11.167,5.063,52.932,52.932,0,0,1,6.2,8.745c.3.566.707,1.074.992,1.646,1.005,2.01,2.382,3.809,3.306,5.866a38.583,38.583,0,0,1,3.623,17.446C1065.836,1278.134,1066.132,1280.4,1065.384,1282.589Zm-55.337-27.544c.379-.383-.3-.683.049-1.125,1.684,1.443,3.167,3.089,4.717,4.635.53-.337.051-.866.4-1.253,1.039,1.071.957,2.681,1.835,3.8.449-.238.059-.775.492-1.024a21.392,21.392,0,0,1,1.865,4.063,37.285,37.285,0,0,1,2.457,8.453,11.982,11.982,0,0,1-1.429,7.583c-.184.324-.368.65-.528.987-.035.073.034.2.065.341.953-.082,1.441-.825,1.949-1.454,1.131-1.4,1.984-2.892,1.586-4.844a7.59,7.59,0,0,1,.372-3.647,6.009,6.009,0,0,0-.247-4.223c-.315-.737-.545-1.51-.855-2.25a1.768,1.768,0,0,1,.437-2.06c.28.744-.029,1.464.284,2.059.7.09.538-.806,1.172-.8.132.975-.2,1.982.065,3.014.68.01.787-.884,1.5-.854-.511,2.748-1.716,5.351-1.817,8.2.831.07.857-.767,1.606-.908-1.772,4.347-3.481,8.624-3.865,13.632,1.764-1.282,3.329-2.279,4.718-3.478a6.027,6.027,0,0,0,1.539-3.47c.4-1.825.709-3.67,1.024-5.513a5.91,5.91,0,0,0-.118-3.018c-.087-.246-.266-.508-.118-.762.778-1.327.023-2.539-.427-3.666-.393-.982-.793-1.942-1.107-2.964a19.9,19.9,0,0,0-2.524-5.358,11.5,11.5,0,0,1-1.126-1.755c-1.088-2.49-3.4-2.81-5.617-3.318.936,1.292,2.666,1.471,3.71,2.645-.668.439-1.252-.4-1.987.077l2.6,2.109c-.86.384-1.364-.481-2.118-.233l2.159,2.373c-1.391-.089-2.4-.369-3.02-1.459-.712-1.257-1.439-2.508-2.123-3.78a3,3,0,0,0-2.033-1.648,22.423,22.423,0,0,1-4.486-1.719,10.122,10.122,0,0,0-6.546-.951c-1.414.267-2.869.309-4.306.452a4.314,4.314,0,0,0-2.467,1.056,7.412,7.412,0,0,1-1.611,1.049,2.454,2.454,0,0,0-1.384,1.319c3.016-.846,5.844.114,8.716.063-.07-.772-.828-.755-1.073-1.276.562-.3,1.046-.036,1.535.073.36.081.661.2.854-.345.157-.441.56-.12.773.053,1.172.95,1.228.96,2.45.009l-.032.028C1008.856,1254.005,1009.295,1254.841,1010.047,1255.045Zm36.708-7.139c-.254,1.786-.436,3.217-.669,4.64a9.354,9.354,0,0,0-.2,2.391c.056.579.408.729.894.383.738-.525,1.217-1.363,2.21-1.8a15.965,15.965,0,0,1-1,2.985c-.1.352-.325.734.074,1.018.3.214.634.04.9-.114.689-.4,1.355-.829,2.286-1.405-.53,1.714-1.616,2.864-2.129,4.336.968.391,1.795-.475,2.747-.151-.613,1.372-1.746,2.45-2.078,4.1,1.216-.087,1.822-1.5,3.082-1.188-.133,1.29-1.223,2.257-1.212,3.742a7.3,7.3,0,0,0,2.556-1.871c.8-.661,1.356-1.626,2.7-2.091-1.024,2.485-2.528,4.432-3.545,6.678a3.416,3.416,0,0,0,2.407-.06c.415-.1.886-.2,1.208.173.36.414-.022.815-.168,1.186a12.51,12.51,0,0,1-1.421,2.131c-.335.513-.16.775.46.812s1.239-.341,1.888-.146a2.274,2.274,0,0,1-.588,1.483c-.218.367-.522.685-.726,1.059s-.827.78-.381,1.224c.41.409.878-.127,1.291-.313.437-.2.841-.467,1.259-.708a.583.583,0,0,1,.667-.076,9.4,9.4,0,0,1-1.228,3.358c-.524,1.054-1.152,2.055-1.714,3.09-.141.261-.411.558-.093.865.28.27.612.145.9.006.621-.3,1.225-.635,1.953-1.016a3.242,3.242,0,0,1-.822,1.923c-1.381,2.176-3.162,4.05-4.677,6.126a35.176,35.176,0,0,0-2.3,3.291c-.185.325-.434.674-.072,1.008a.807.807,0,0,0,1.045,0c2.2-1.5,4.684-2.63,6.3-4.89.5-.7,1.064-1.344,1.624-1.992a16.777,16.777,0,0,0,4.26-10.18,41.31,41.31,0,0,0-.149-9.131,28.22,28.22,0,0,0-1.274-4.471,44.051,44.051,0,0,0-5.827-11.751,110.256,110.256,0,0,0-7.8-10c-1.651-1.811-3.424-3.385-5.95-3.845a16.054,16.054,0,0,0-7.773.453c-1.038.324-1.095.693-.3,1.4q.965.851,1.974,1.646a21.892,21.892,0,0,1,7.106,9.084C1045.494,1250.305,1045.77,1249.1,1046.755,1247.906Zm-43.9,71.08c-2.706-.792-4.557-2.565-6.812-4.209.261,1.8,1.6,2.65,2.2,4.168a6.772,6.772,0,0,1-2.095-1.237,35.989,35.989,0,0,1-3.26-2.606,6.264,6.264,0,0,0-3.73-1.624,22.805,22.805,0,0,1-4.8-1.288,14.271,14.271,0,0,1-5.793-4.189c-1.3-1.49-2.71-2.892-4.08-4.323-.249-.26-.494-.642-.934-.458s-.336.626-.307.984a16.227,16.227,0,0,0,1.72,6.3,24.055,24.055,0,0,0,8,8.612c3.287,2.277,7,3.389,10.706,4.6,1.321.433,2.691.714,4.012,1.148a24.55,24.55,0,0,0,6.824.849,1.994,1.994,0,0,0,1.553-.667c.968-.932,1.011-.91,2.188-.258a55.335,55.335,0,0,0,8.377,3.635c3.357,1.192,6.659.667,9.879-.581,3.922-1.521,6.643-4.407,8.766-7.929.428-.71.166-1.091-.7-1.043a7.263,7.263,0,0,0-1.414.269,40.172,40.172,0,0,1-15.777.62,55.945,55.945,0,0,1-12.22-3.24,16.814,16.814,0,0,0-5.006-1.172C1000.916,1316.8,1002.038,1317.607,1002.851,1318.986Zm-39.2-59.669a30.361,30.361,0,0,0-5.37,6.771,14.073,14.073,0,0,1-1.94,2.549c-.494.563-.952,1.161-1.48,1.689a4.5,4.5,0,0,0-1.148,4.86,2.069,2.069,0,0,1-.171,1.808,8.357,8.357,0,0,0-1.171,5.385,5.664,5.664,0,0,1-.209,2.383c-1.1,3.768-.4,7.411.811,11.013.017.051.043.1.057.15,1.055,3.859,3.935,6.251,6.873,8.616,2.541,2.046,5.047,4.137,7.553,6.227a13.81,13.81,0,0,0,2.982,1.87,2.882,2.882,0,0,0,2.091.252c-1.684-2.077-2.113-4.7-4.148-6.428a12.164,12.164,0,0,0,1.327-2.7c.092-.342.414-.715.127-1.053s-.685-.12-1.033.019a.6.6,0,0,1-.7-.046c.11-1.356,1.1-2.523,1.372-4.08-1.694.477-2.439,1.989-3.917,2.579.028-2.13,1.486-3.809,1.605-6.134-1.485.917-2.142,2.423-3.539,3.265-.089-1.8,1.25-3.26.853-5.066-1.2.185-1.35,1.5-2.421,2.036.264-1.463.526-2.782.733-4.11a4.313,4.313,0,0,0-.512-3.385,3.245,3.245,0,0,1-.537-2.458,22.8,22.8,0,0,0-.064-6.07,17.978,17.978,0,0,1,.967-7.731,55.4,55.4,0,0,0,1.615-5.705,27.263,27.263,0,0,1,3.12-7.531,3.674,3.674,0,0,0,.777-1.845A10.083,10.083,0,0,0,963.647,1259.317Zm68.679,42.714c-2.64,2.821-6.189,4.186-9.326,6.145a35.516,35.516,0,0,1-10.209,4.005.746.746,0,0,0,.665.59c3.386.625,6.758,1.01,10.151-.057,2.5-.786,5.085-1.3,7.547-2.172a18.942,18.942,0,0,0,8.7-6.055,12.028,12.028,0,0,1,3.616-3.582,5.024,5.024,0,0,0,1.847-2.181,15.915,15.915,0,0,0,.922-1.87,20.2,20.2,0,0,1,4.063-6.847,14.534,14.534,0,0,0,2.779-5.025,6.042,6.042,0,0,0,.24-3.166,25.264,25.264,0,0,0-1.679-6.978,11.444,11.444,0,0,0-3.051-4.069c-1.269-1.041-2.429-2.217-3.635-3.331-.45.421,0,.619.1.865.168.447.472.85.6,1.3,1.038,3.538,2.068,7.088,1.8,10.837a24.2,24.2,0,0,1-2.094,7.038,22.383,22.383,0,0,1-4.154,6.83,18.858,18.858,0,0,1-8.1,5.306,17.4,17.4,0,0,0-3.523,1.535C1030.514,1301.846,1031.449,1301.619,1032.326,1302.031Zm-61.269-17.785a4.729,4.729,0,0,1-.6-2.8,54.382,54.382,0,0,0-1.435-9.337,29.018,29.018,0,0,1-.566-5.412c-.006-.391.187-.963-.4-1.073-.49-.092-.71.387-.933.753a24.6,24.6,0,0,0-2.541,5.528,15.788,15.788,0,0,0-.738,5.377,13.263,13.263,0,0,1-.179,2.715c-.5,3.055.606,5.711,2.332,8.108a13.194,13.194,0,0,1,2.411,4.288,5.733,5.733,0,0,0,2.144,2.949,15.836,15.836,0,0,1,3.183,3.59,46.24,46.24,0,0,0,4.655,5.093,3.063,3.063,0,0,0,.771.572,43.93,43.93,0,0,1,5.154,3.545c3.084,2.289,6.379,1.788,9.77.694-.179-.666-.637-.735-1-.9a31.637,31.637,0,0,1-6.23-3.932c-1.308-1.014-2.748-1.858-4.123-2.785a7.268,7.268,0,0,1-1.294-.944c-2.785-2.981-5.418-6.061-6.991-9.915-.844-2.069-.842-4.291-1.394-6.411a9.85,9.85,0,0,0-1.267-2.806C971.01,1282.079,971.643,1283.212,971.057,1284.246Zm41.088-41.909c.89-.112.7-1.17.978-1.817a1.9,1.9,0,0,1,.131-.205c.679.368.419,1.285.988,1.689.541.049.475-.677.928-.756.53.326.263,1.117.835,1.446.707-.288.5-1.078.835-1.606.708.555.372,1.617,1.179,2.1.638-.593.424-1.653,1.29-2.26.389,1.152.217,2.308.7,3.385,1.3-.342,1.415-1.995,2.718-2.432-.088,1.173-.975,2.13-.861,3.373.8-.04.989-.988,1.708-1.028.078,1.106.081,1.131,1.137,1.018a20.541,20.541,0,0,1,6.509.657,9.871,9.871,0,0,1,1.31.473c-.408.724-1.3.245-1.764.944,1.084.707,2.4.857,3.435,1.611.112.473-.65.362-.573.79.063.352.409.5.683.634,2.832,1.386,4.774,3.737,6.689,6.121a25.485,25.485,0,0,0,3.225,3.315,7,7,0,0,0-.738-3.241,50.4,50.4,0,0,0-6.856-11.164,32.678,32.678,0,0,0-6.788-6.04,8.079,8.079,0,0,1-1.645-1.516,1.88,1.88,0,0,0-2.121-.743,3.773,3.773,0,0,1-3.815-1.083,3.6,3.6,0,0,0-3.7-.831,12.441,12.441,0,0,1-3.159.41,7.1,7.1,0,0,0-4.381,1.3,4.655,4.655,0,0,1-1.939.721,23.986,23.986,0,0,0-4.873,1.57,7.664,7.664,0,0,0-3.3,2.719c-.352.5-.219.773.4.835a8.551,8.551,0,0,0,4.357-.848c.607-.267,1.227-.767,1.856.027.2.25.525.1.7-.107.6-.729,1-.158,1.4.2.65-.144.542-.927,1.121-1.172C1011.388,1241.285,1011.342,1242.438,1012.145,1242.337Zm22.078,27.889c1.033,4.128,2.856,7.631,3.3,11.511.659,0,.75-.478.92-.828a16.727,16.727,0,0,0,1.674-5.811,18.822,18.822,0,0,1,.806-3.916,12.363,12.363,0,0,0,.558-3.148,5.454,5.454,0,0,1,.446-2.651.824.824,0,0,0,.075-.471c-.314-3.209-.6-6.423-3.4-8.669-1.041-.835-2-1.77-3-2.652a23.913,23.913,0,0,0-7.295-3.928,18.006,18.006,0,0,0-3.272-.521c.041.867.1,1.581.9,1.911a.547.547,0,0,1,.4.581c-.006.548.07.958.8.813.364-.073.348.3.425.542.125.4-.059.851.224,1.218.663.114.625-.672,1.077-.8.134-.022.231.027.231.146.013,2.62.989,4.649,3.532,5.6-.092.666-.7.321-.933.761,1.176,1.562,2.831,2.73,4.34,4.35-1.2.008-1.909-.682-2.964-.883.7,1.754,2.172,2.912,2.989,4.807l-1.909-1.025,2.54,4.991-.217.14Zm-43.706,16.541c-.525.245-.09.854-.687,1.205-1.427-2.523-1.471-5.413-2.086-8.15-.455.194-.523.525-.66.8a1.18,1.18,0,0,1-.6.665c-.322-1.758.09-3.441-.027-5.1a33.161,33.161,0,0,1,.16-5.17c-.952.4-1.138,1.406-2,1.883.011-1.833,1.287-3.068,1.764-4.659-.728-.316-1.093.662-1.864.4a8.729,8.729,0,0,1,2.1-3.078c.776-.941,1.645-1.8,2.447-2.674-.36-.589-1.021-.115-1.362-.63a3.571,3.571,0,0,1,1.792-.962,5.6,5.6,0,0,0,2.179-1.308,11.925,11.925,0,0,1,4.9-3.25c-2.889-.334-6.072,1.2-10.526,4.942.255-1.227.853-1.964,2.426-3.2,1.12-.881,2.443-1.412,3.6-2.236-2.836.132-5.474.721-7.128,3.322a5.521,5.521,0,0,1-2.251,2.409.921.921,0,0,0-.472.421c-.932,2.551-3.27,4.54-2.68,7.728.334,1.81.281,3.705.6,5.558a16.732,16.732,0,0,0,5.46,9.889,17.16,17.16,0,0,1,3.211,3.987,9.033,9.033,0,0,0,5.318,3.883c.218.07.418.042.725-.248C993.551,1290.994,992.063,1288.875,990.517,1286.767Zm7.494-46.274c-1.866-.151-3.734-.286-5.6-.43a15.829,15.829,0,0,0-9.6,3.408c-.732.705-1.41,1.466-2.114,2.2a15.008,15.008,0,0,1-1.344,1.381c-1.584,1.275-3.065,2.587-3.708,4.643a4.058,4.058,0,0,1-1.245,1.443,18.362,18.362,0,0,0-2.6,3.254,8.227,8.227,0,0,0-1.473,5.778,5.233,5.233,0,0,1-.2,2.377,4.516,4.516,0,0,0-.081,2.386,16.168,16.168,0,0,1,.251,4.471,5.294,5.294,0,0,0,1.522,4.056c.154-1.8.3-3.254.4-4.71a29.559,29.559,0,0,1,.212-3.845c.24-1.207.376-2.494,1.737-2.912,0-.649-.6-.75-.658-1.2.49-.549,1.358-.345,1.825-.923.1-.468-.534-.5-.544-.918.064-.059.133-.179.2-.18a2.891,2.891,0,0,0,2.784-2.025,16.146,16.146,0,0,1,1.51-2.647c.655-.972.631-.988-.272-2.071.5-.124.963-.231,1.422-.355.848-.231.881-.34.3-1a5.136,5.136,0,0,0-.48-.427c.671-.561,1.595-.349,2.245-.908-.2-.781-1.113-.562-1.45-1.1.16-.271.441-.252.688-.246a3.59,3.59,0,0,0,3.31-1.864,3.792,3.792,0,0,1,1.906-1.667,3.338,3.338,0,0,0,2.447-2.964c.6-.015.714.544,1.163.726.673-.48.771-1.337,1.2-1.99.433-.2.511.251.745.412.255.175.525.24.656-.086.214-.531.445-.68.892-.217a.5.5,0,0,0,.455.047c1.5-.679,3.172-.835,4.73-1.438C998.882,1240.478,998.426,1240.527,998.011,1240.493Zm18.02-6.416c.119-.611-.266-.676-.522-.8-1.865-.928-3.744-1.817-5.687-2.583a12.233,12.233,0,0,0-9.367.244,19.094,19.094,0,0,1-5.18,1.614c-1.085.107-2.13-.136-3.2-.128a6.6,6.6,0,0,0-3.367.862c-1.109.64-2.279,1.177-3.415,1.772-5.093,2.667-9.315,6.224-11.864,11.523a41.825,41.825,0,0,0-2.153,4.3c-.083.24-.3.463-.036.795a3.769,3.769,0,0,0,1.205-1.189q2.385-2.814,4.769-5.63a16.873,16.873,0,0,1,5.273-4.123,6.62,6.62,0,0,0,1.1-.654,15.944,15.944,0,0,1,6.546-2.882,6.272,6.272,0,0,0,.624-.213c-.221-.581-1.03-.346-1.153-1.045,2.62-.011,5.089.986,7.991,1.116-1.159-.887-2.381-1.016-3.529-1.946a13.533,13.533,0,0,1,4.63.724c1.518.519,2.654.362,3.633-.935a1.707,1.707,0,0,1,1-.761c.485.574-.382,1.089-.05,1.686,1.337-.549,2.266-1.758,3.71-2.323.073.946-.964,1.328-.953,2.5A19.915,19.915,0,0,1,1016.031,1234.077Zm-22.706,19.872c.2-.015.555-.15.556-.231,0-1.253.917-.973,1.648-1.022.358-.024.809.167,1.05-.172.35-.493-.527-.566-.432-1.028a2.932,2.932,0,0,1,1.421,0c.263.04.556.108.7-.195s-.124-.477-.295-.672a.345.345,0,0,1-.054-.485c3.91.383,7.811-.546,11.754-.557,1.834-.006,3.763-.175,5.422,1.034.811.592.627-.566,1.051-.716.349.2.411.6.619.907s.3.76.76.706c.5-.059.238-.662.577-.94.556.267.668.883.985,1.337.205.294.342.77.788.664.468-.11.114-.687.451-1.025.7.57.722,1.738,1.647,2.1.4-.29.137-.735.409-1.177,1.082,1.079,2.168,2.077,3.273,3.046s1.648,2.42,2.477,3.936a4.574,4.574,0,0,0-1.043-3.961,6.651,6.651,0,0,1-1.269-2.033,7.253,7.253,0,0,0-3.984-3.98,6.706,6.706,0,0,1-3.045-2.261,2.706,2.706,0,0,0-1.793-.97,9.527,9.527,0,0,1-2.452-.73c-2.717-1.5-5.6-1.076-8.472-.736a3.109,3.109,0,0,0-1.8.986c-1.215,1.2-2.573,1.7-4.185.758a1.619,1.619,0,0,0-2.068.229,2.886,2.886,0,0,1-1.853.822,1.981,1.981,0,0,0-1.748,1.249c-.281.851-.888,1.171-1.481,1.687-1.514,1.316-2.866,2.817-4.282,4.244l.252.365A10.36,10.36,0,0,1,993.325,1253.949Zm-8.435,43.874a13.173,13.173,0,0,1-2.2-2.1,10.886,10.886,0,0,1-2.66-7.96.918.918,0,0,0-.051-.313c-.012-.043-.068-.073-.111-.115-.438-.076-.624.484-1.129.483.027-.927.725-1.57.89-2.5-.9-.032-1.049,1.055-1.939,1.1.465-1.5,1.441-2.758,1.629-4.43-.823.193-1.128,1.143-2.1,1.2.5-1,.938-1.882,1.406-2.819-.673-.175-.914.548-1.569.564.214-1.056,1.175-1.71,1.391-2.822-1.009-.059-1.263,1.1-2.176,1.247a2.789,2.789,0,0,1,.653-1.7,11.51,11.51,0,0,0,1.444-5.829c.076-2.875.386-5.745.584-8.617a1.827,1.827,0,0,0-.093-1.192,13.139,13.139,0,0,0-2.843,3.8c-1.3,2.237-2.365,4.561-2.2,7.255a2.209,2.209,0,0,1-.139.941c-.868,2.125-.374,4.211.182,6.282a6.855,6.855,0,0,1,.414,3.446,2.976,2.976,0,0,0,.151,1.262,18.269,18.269,0,0,1,.536,3.149,3.906,3.906,0,0,0,1.253,2.71,23.026,23.026,0,0,1,1.982,2.686c1.514,1.909,3.025,3.907,5.453,4.8a6.366,6.366,0,0,1,2.18,1.45A1.94,1.94,0,0,0,984.89,1297.823Zm4.012-25.51a14.063,14.063,0,0,1,3.679-8.035c1.906-2.18,4.522-2.7,7.26-2.793a11.4,11.4,0,0,1,1.549.15c.084-.5-.446-.648-.438-1.167.979.1,1.758.859,2.752.985.186-.623-.579-.769-.515-1.356,1.254-.192,2.1,1.183,3.375.967-.078-.689-.835-.833-1.065-1.535a6.47,6.47,0,0,1,2.625.882,14.572,14.572,0,0,0,2.816,1.176,8.337,8.337,0,0,0-2.274-2.785,1.283,1.283,0,0,1,1.2.4c2.553,1.836,4.516,4.092,5.032,7.33a7.3,7.3,0,0,1-.456,3.93c-.671,1.683-1.351,3.361-2.183,5.008a3.608,3.608,0,0,0,1.667-1.683,12.761,12.761,0,0,0,2.3-7.047c-.034-2.277-.266-4.563-1.786-6.527a9.3,9.3,0,0,0-7.289-3.776c-1.708-.073-3.426.046-5.137.132a4.931,4.931,0,0,0-2.539.886,4.439,4.439,0,0,1-3.159.94,1.649,1.649,0,0,0-1.621.848,7.469,7.469,0,0,1-2.089,1.962,6.232,6.232,0,0,0-1.682,1.712,18.086,18.086,0,0,0-3.183,12.322,2.633,2.633,0,0,0,.737,1.753C988.719,1275.246,988.761,1273.769,988.9,1272.313Zm9.332,34.751a13.729,13.729,0,0,0,6.77.857c3.073-.377,6.165-.671,9.2-1.236a15.056,15.056,0,0,0,9.352-5.125,4.463,4.463,0,0,0,1.172-2.284c-4.969,2.226-9.675,4.642-14.976,5.314a57.208,57.208,0,0,1-15.791-.623A9.538,9.538,0,0,0,998.234,1307.064Zm9.287-40.657c.212-.536-.55-.771-.363-1.269.071-.093.161-.1.272-.019.691.5,1.415.969,2.066,1.52a6.994,6.994,0,0,0,3.411,1.274c.671.13.883-.179.63-.822a6.023,6.023,0,0,0-5.36-3.762,8.467,8.467,0,0,0-8.7,4.78,9.254,9.254,0,0,0-.779,7.282c.663,2.279,2.163,3.217,4.493,2.708a5.388,5.388,0,0,0,3.167-1.758,2.766,2.766,0,0,0-.882-4.438,3.764,3.764,0,0,0-4.145,1.657.746.746,0,0,0-.058.761c.191.266.462.112.715.018a3.079,3.079,0,0,1,2.2-.093.771.771,0,0,1,.409,1.279,3.31,3.31,0,0,1-2.606,1.38,1.848,1.848,0,0,1-1.727-1.231,5.076,5.076,0,0,1,.231-4.761,13.565,13.565,0,0,1,4.02-4.086,1.309,1.309,0,0,0,.589-1.271C1006.048,1265.508,1006.66,1266.277,1007.521,1266.407Zm9.508,21.937a23.5,23.5,0,0,1-17.188.953c-1.631-.5-3.235-1.091-4.848-1.649-.3-.1-.573-.306-.917-.137-.133.3.072.508.236.674,3.228,3.27,7.031,5.162,11.74,4.814,1.6-.118,3.2-.17,4.783-.439a12.333,12.333,0,0,0,6.017-2.823,5.053,5.053,0,0,0,1.234-1.519C1017.536,1287.913,1017.3,1288.22,1017.029,1288.344ZM996.675,1244.1a19.8,19.8,0,0,0-4.846,1.631,3.775,3.775,0,0,0-1.335.87,3.813,3.813,0,0,1-2.863,1.525c-.5.037-.728.354-.875.8a33.845,33.845,0,0,1-4.126,7.749,17.2,17.2,0,0,0-1.652,4.342,8.759,8.759,0,0,0,1.636-2.135,53.763,53.763,0,0,1,9.827-10.745,14.573,14.573,0,0,1,7.764-3.158c.407-.055.862.037,1.3-.531A8.215,8.215,0,0,0,996.675,1244.1Zm5.365,41.859a17.483,17.483,0,0,0,11.37-2.508,9.3,9.3,0,0,0,4.007-5.236c.084-.257.207-.519-.1-.69-.223-.121-.413.042-.575.173-.372.3-.749.6-1.093.938a19.42,19.42,0,0,1-12.645,5.89,11.455,11.455,0,0,0-2.782.532A2.016,2.016,0,0,0,1002.04,1285.959Zm-8.7-12.881c.749.308.75,1.255,1.654,1.486.248-1.008-.272-1.956-.182-2.922.089-.947.52-1.8.665-2.807-1.063.431-1.547,1.4-2.539,2.146.243-1.571,1.338-2.333,2.062-3.29-.205-.364-.646-.038-.826-.374.583-.815,1.669-.9,2.378-1.6-.35-.611-.994.09-1.42-.4.917-.972,2.207-1.126,3.484-1.5a5,5,0,0,0-5,1.544,9.243,9.243,0,0,0-2.053,7.787,3.556,3.556,0,0,0,1.117,2.006Zm12.884-2.817c1.259.483,1.439,1.784,2.2,2.632.34-.095.151-.494.379-.651,1.029,1.214,1.1,1.472,1.157,4.405.507.077.625-.354.774-.656a6.072,6.072,0,0,0,.382-4.212,1.354,1.354,0,0,0-.316-.723,20.269,20.269,0,0,0-3.611-2.842,2.45,2.45,0,0,0-2.449.144,7.625,7.625,0,0,0-2.2,1.894C1003.916,1270.581,1005.042,1269.807,1006.221,1270.261Zm.005,8.839a6.8,6.8,0,0,1-5.433.4,21.392,21.392,0,0,1-5.249-2.352,1.169,1.169,0,0,0-1.162-.294,2.56,2.56,0,0,0,1.032,1.949,8.189,8.189,0,0,0,1.664,1.25c3.2,1.657,7.149,2.138,9.934-.277.4-.348.871-.632.928-1.352C1007.159,1278.375,1006.731,1278.848,1006.226,1279.1Zm11.21-9.166c-.263,1.39-1.016,2.683-.9,4.2,2.048-1.26,2.743-6.531,1.1-8.505C1017.383,1267.11,1017.7,1268.533,1017.436,1269.934Z" fill="#3b122e"/>
      <path id="Path_1160" data-name="Path 1160" d="M1014.568,1238.239c2.713.3,2.411,1.055,4.973,1.055s6.931,1.055,8.589,2.411,7.232,4.219,7.232,5.123-.452,1.808.754,2.411,6.63,6.479,7.232,7.986c.25.623.576,1.607.873,2.547,0,.008,0,.014,0,.021a25.485,25.485,0,0,1-3.225-3.315c-1.915-2.384-3.857-4.735-6.689-6.121-.274-.135-.62-.282-.683-.634-.077-.428.685-.317.573-.79-1.031-.754-2.351-.9-3.435-1.611.465-.7,1.356-.22,1.764-.944a9.871,9.871,0,0,0-1.31-.473,20.541,20.541,0,0,0-6.509-.657c-1.056.113-1.059.088-1.137-1.018-.719.04-.907.988-1.708,1.028-.114-1.243.773-2.2.861-3.373-1.3.437-1.413,2.09-2.718,2.432-.48-1.077-.308-2.233-.7-3.385-.866.607-.652,1.667-1.29,2.26-.807-.487-.471-1.549-1.179-2.1-.335.528-.127,1.318-.835,1.606-.572-.329-.3-1.12-.835-1.446-.453.079-.387.8-.928.756-.569-.4-.309-1.321-.988-1.689a1.9,1.9,0,0,0-.131.205c-.278.647-.088,1.7-.978,1.817-.8.1-.757-1.052-1.4-1.5-.579.245-.471,1.028-1.121,1.172-.406-.362-.805-.933-1.4-.2-.174.212-.5.357-.7.107-.63-.794-1.249-.294-1.856-.027a8.551,8.551,0,0,1-4.357.848c-.295-.03-.477-.108-.551-.236C1003.269,1241.49,1012.242,1237.981,1014.568,1238.239Z" fill="#af1f24"/>
      <path id="Path_1161" data-name="Path 1161" d="M994.3,1261.594c2.787-2.034,4.746-1.28,5.2-1.657s-.6-.377-.075-.9,3.918-.151,4.144-.377-1.206-.753.6-.829a19.425,19.425,0,0,1,5.019.97.952.952,0,0,0-.524.005,8.337,8.337,0,0,1,2.274,2.785,14.572,14.572,0,0,1-2.816-1.176,6.47,6.47,0,0,0-2.625-.882c.23.7.987.846,1.065,1.535-1.272.216-2.121-1.159-3.375-.967-.064.587.7.733.515,1.356-.994-.126-1.773-.88-2.752-.985-.008.519.522.665.438,1.167a11.4,11.4,0,0,0-1.549-.15c-2.738.092-5.354.613-7.26,2.793a14.47,14.47,0,0,0-3.47,6.686A13.2,13.2,0,0,1,994.3,1261.594Z" fill="#af1f24"/>
      <path id="Path_1162" data-name="Path 1162" d="M992.188,1259.483c-.175.165-.348.333-.52.5a5.061,5.061,0,0,1-.484.421,5.808,5.808,0,0,1-1.7.887,3.577,3.577,0,0,0-1.792.961h0a.615.615,0,0,0,.486.271,2.292,2.292,0,0,1,.559.086.632.632,0,0,1,.317.274c-.4.435-.819.868-1.233,1.31s-.826.894-1.214,1.364c-.2.238-.4.47-.609.7q-.154.176-.306.354a8.66,8.66,0,0,0-.569.74,4.727,4.727,0,0,0-.453.823,3.938,3.938,0,0,0-.159.458.8.8,0,0,0,.271.045.846.846,0,0,0,.243-.042,1.3,1.3,0,0,0,.222-.1c.144-.078.28-.174.421-.249a.857.857,0,0,1,.449-.12.725.725,0,0,1,.258.063,7.078,7.078,0,0,1-.475,1.141c-.143.282-.3.561-.445.841-.1.18-.188.363-.277.547q-.1.213-.192.432a4.467,4.467,0,0,0-.375,1.7h0c.862-.477,1.048-1.481,2-1.883-.1,1.128-.174,2.2-.194,3.266-.013.637-.01,1.271.034,1.9.015.208.021.416.022.625,0,.825-.087,1.658-.113,2.5-.007.223-.01.446-.006.671a8.23,8.23,0,0,0,.124,1.306,1.145,1.145,0,0,0,.6-.665c.034-.069.064-.141.1-.213a1.009,1.009,0,0,1,.563-.586c.615,2.737.658,5.627,2.086,8.15h0a.756.756,0,0,0,.371-.642,1.207,1.207,0,0,1,.071-.32.467.467,0,0,1,.245-.243q.933,1.271,1.823,2.553l.082.117q.9,1.306,1.745,2.638h0a4.486,4.486,0,0,1-1.447-.646,29.882,29.882,0,0,1-3.692-3.239,33.891,33.891,0,0,1-5.048-8.891c-1.13-3.465-.828-7.76-1.054-8.438s-1.206.678-.9-.9,1.054-5.575,4.02-8.28h0c4.448-3.734,7.628-5.271,10.514-4.943h.012c-.261.081-.511.171-.753.27a9.729,9.729,0,0,0-1.963,1.09A15.653,15.653,0,0,0,992.188,1259.483Z" fill="#af1f24"/>
      <path id="Path_1163" data-name="Path 1163" d="M994.679,1251.876c.6-.151.15-.452.226-1.131s.979-.753,2.184-1.431,1.507-.452,3.089-.6a76.4,76.4,0,0,1,7.986-.753,22.563,22.563,0,0,1,5.35.527,2.061,2.061,0,0,0,1.958-.3c.679-.377,1.658,1.281,2.185,1.507s.226-.754.9-.9,3.821,3.7,3.821,3.7c-.272.442-.011.887-.409,1.177-.925-.363-.943-1.531-1.647-2.1-.337.338.017.915-.451,1.025-.446.106-.583-.37-.788-.664-.317-.454-.429-1.07-.985-1.336-.339.277-.08.88-.577.939-.458.054-.559-.414-.76-.706s-.27-.705-.619-.907c-.424.15-.24,1.308-1.051.716-1.659-1.209-3.588-1.04-5.422-1.034-3.943.011-7.844.94-11.754.557a.345.345,0,0,0,.055.485c.17.195.44.365.294.672s-.437.235-.7.195a2.932,2.932,0,0,0-1.421,0c-.095.462.782.535.432,1.028-.241.339-.692.148-1.05.172-.731.049-1.644-.231-1.648,1.022,0,.081-.358.216-.556.232a10.345,10.345,0,0,0-4.416,1.183,23.063,23.063,0,0,1,3.509-2.2C993.7,1252.4,994.076,1252.026,994.679,1251.876Z" fill="#af1f24"/>
      <path id="Path_1164" data-name="Path 1164" d="M1036.477,1272.293l.217-.14-2.54-4.991,1.909,1.025c-.817-1.9-2.289-3.053-2.989-4.807,1.055.2,1.764.891,2.964.883-1.509-1.62-3.164-2.788-4.34-4.35.228-.44.841-.095.933-.761-2.543-.954-3.519-2.983-3.532-5.6,0-.119-.1-.168-.231-.146-.452.132-.414.918-1.077.8-.283-.367-.1-.823-.224-1.218-.077-.245-.061-.615-.425-.542-.733.145-.809-.265-.8-.813a.547.547,0,0,0-.4-.581c-.806-.33-.861-1.044-.9-1.911a18.006,18.006,0,0,1,3.272.521c.77.307,1.537.615,2.293.942a8.968,8.968,0,0,1,1.9,2.853,14.835,14.835,0,0,0,2.411,4.9c.829.9,4.9,5.65,4.219,6.027s-1.507.226-1.507.678,1.733,2.788,1.206,3.466-1.13.075-1.206.678.377,3.089.452,4.671-.551,7.862-.551,7.862c-.444-3.88-2.267-7.383-3.3-11.511Z" fill="#af1f24"/>
      <path id="Path_1165" data-name="Path 1165" d="M1026.024,1273.731c-.749.141-.775.978-1.606.908.1-2.844,1.306-5.447,1.817-8.2,0,0,.463-.028.538,1.78s-.678,3.315-.226,3.692.98-.829,1.131.452a22.236,22.236,0,0,1-.6,5.123,53.286,53.286,0,0,1-3.014,7.459,18.515,18.515,0,0,1-1.7,2.27l-.2.143C1022.543,1282.355,1024.252,1278.078,1026.024,1273.731Z" fill="#af1f24"/>
      <path id="Path_1166" data-name="Path 1166" d="M994.044,1242.346c-.446-.464-.677-.314-.891.217-.131.326-.4.261-.656.086-.234-.161-.312-.614-.745-.412-.425.653-.523,1.51-1.2,1.989-.449-.181-.561-.74-1.163-.725a3.339,3.339,0,0,1-2.447,2.964,3.786,3.786,0,0,0-1.9,1.667,3.593,3.593,0,0,1-3.312,1.864c-.246-.006-.527-.025-.686.246.336.533,1.249.314,1.449,1.1-.65.559-1.574.347-2.245.908a5.136,5.136,0,0,1,.48.427c.584.663.551.772-.3,1-.459.124-.923.231-1.422.355.9,1.083.927,1.1.272,2.071a16.146,16.146,0,0,0-1.51,2.647,2.891,2.891,0,0,1-2.784,2.025c-.07,0-.139.121-.2.18.01.422.641.45.544.918-.467.578-1.335.374-1.825.923.055.45.659.551.658,1.2-1.362.419-1.5,1.706-1.737,2.913a29.559,29.559,0,0,0-.212,3.845c-.095,1.456-.242,2.908-.4,4.71-.067-.077-.123-.153-.185-.229-.39-2.8-.4-10.294.145-12.733.6-2.713,3.843-5.124,4.37-6.254s.3-2.712.753-4.595,4.521-3.918,4.973-4.445a4.543,4.543,0,0,1,2.034-1.884c1.2-.452,2.486-.527,2.938-.829a16.1,16.1,0,0,0,1.658-2.185,4.592,4.592,0,0,1,2.712-1.28c1.055-.226,8.017-.072,8.017-.072-1.558.6-3.228.759-4.73,1.438A.5.5,0,0,1,994.044,1242.346Z" fill="#af1f24"/>
      <path id="Path_1167" data-name="Path 1167" d="M977.953,1309.661c-1.8-2.431-3.516-5.079-4.385-6.447.426-.162.669.209.913.464,1.371,1.431,2.776,2.833,4.08,4.323a14.271,14.271,0,0,0,5.793,4.189,22.805,22.805,0,0,0,4.8,1.288,6.267,6.267,0,0,1,3.73,1.624,35.989,35.989,0,0,0,3.26,2.606,6.772,6.772,0,0,0,2.095,1.237c-.6-1.518-1.937-2.369-2.2-4.168,2.255,1.644,4.106,3.417,6.812,4.209-.813-1.379-1.935-2.191-2.706-3.64a16.814,16.814,0,0,1,5.006,1.172,55.945,55.945,0,0,0,12.22,3.24,40.172,40.172,0,0,0,15.777-.62,7.336,7.336,0,0,1,1.414-.269c.867-.048,1.129.334.7,1.043-.052.086-.109.167-.161.252-2.222,1.2-7.574,3.946-10.739,4.415-4.069.6-17.63-6.781-17.63-5.425s1.205,3.315-.753,3.014-4.069-1.507-4.822-1.055,1.055,1.507-.9,1.507-11.753-6.479-14.315-7.685S980.515,1313.127,977.953,1309.661Z" fill="#af1f24"/>
      <path id="Path_1168" data-name="Path 1168" d="M972.525,1312.89c-.606-.086-5.571-5.64-7.078-7.448s-6.329-7.232-6.781-9.944-.3-7.082-.6-10.1-1.205-9.342.9-15.671,9.183-13.287,9.183-13.287a3.665,3.665,0,0,1-.777,1.845,27.263,27.263,0,0,0-3.12,7.531,55.156,55.156,0,0,1-1.615,5.705,17.976,17.976,0,0,0-.967,7.731,22.8,22.8,0,0,1,.064,6.07,3.245,3.245,0,0,0,.537,2.458,4.313,4.313,0,0,1,.512,3.385c-.207,1.328-.469,2.647-.733,4.11,1.071-.532,1.22-1.851,2.421-2.036.4,1.806-.942,3.266-.853,5.066,1.4-.842,2.054-2.348,3.539-3.265-.12,2.325-1.577,4-1.605,6.134,1.478-.59,2.223-2.1,3.917-2.579-.27,1.557-1.262,2.724-1.372,4.079a.6.6,0,0,0,.7.047c.348-.139.734-.37,1.033-.019s-.035.711-.127,1.053a12.164,12.164,0,0,1-1.327,2.7C970.411,1308.193,970.841,1310.813,972.525,1312.89Z" fill="#af1f24"/>
      <path id="Path_1169" data-name="Path 1169" d="M1032.326,1302.031c-.877-.412-1.812-.185-2.733-.878a17.4,17.4,0,0,1,3.523-1.535,18.858,18.858,0,0,0,8.1-5.306,22.383,22.383,0,0,0,4.154-6.83,24.2,24.2,0,0,0,2.094-7.038c.271-3.749-.759-7.3-1.8-10.837-.133-.454-.437-.857-.6-1.3-.093-.246-.546-.444-.1-.865.938.866,1.849,1.768,2.8,2.616a20.067,20.067,0,0,1,2.213,10.677c-.753,8.137-3.616,11.6-6.931,14.767s-4.37,3.465-5.123,5.725-3.918,3.767-6.178,5.123a97.064,97.064,0,0,1-9.794,4.822,63.958,63.958,0,0,1-8.308,1.635l-.188-.032a.746.746,0,0,1-.665-.59,35.516,35.516,0,0,0,10.209-4.005C1026.137,1306.217,1029.686,1304.852,1032.326,1302.031Z" fill="#af1f24"/>
      <path id="Path_1170" data-name="Path 1170" d="M1037.355,1242.2q-1.007-.8-1.974-1.646c-.7-.616-.742-.975-.048-1.272,1.152.61,5.688,3.026,7.262,4.075,1.808,1.206,3.164-1.808,3.767-.9s.6,4.521,1.959,5.877,2.863.3,3.164,1.205.452,4.37,2.562,6.329,4.068.6,4.52,3.616-.753,7.534,0,8.739,2.26.3,2.26,2.11,0,6.931-.151,8.287,1.357.452,1.206,3.014c-.107,1.818-3.854,7.729-6.022,11.011-1.165.821-2.421,1.523-3.6,2.327a.807.807,0,0,1-1.045,0c-.362-.334-.113-.683.072-1.008a35.176,35.176,0,0,1,2.3-3.291c1.515-2.076,3.3-3.95,4.677-6.126a3.242,3.242,0,0,0,.822-1.923c-.728.381-1.332.716-1.953,1.017-.285.138-.617.263-.9-.007-.318-.307-.048-.6.093-.865.562-1.035,1.19-2.037,1.714-3.09a9.4,9.4,0,0,0,1.228-3.358.583.583,0,0,0-.667.076c-.418.241-.822.51-1.259.708-.413.186-.881.722-1.291.313-.446-.444.171-.839.381-1.224s.508-.692.726-1.059a2.274,2.274,0,0,0,.588-1.483c-.649-.195-1.257.184-1.888.146s-.795-.3-.46-.812a12.51,12.51,0,0,0,1.421-2.131c.146-.371.528-.772.168-1.186-.322-.369-.793-.276-1.208-.173a3.416,3.416,0,0,1-2.407.06c1.017-2.246,2.521-4.193,3.545-6.678-1.341.465-1.9,1.43-2.7,2.091a7.292,7.292,0,0,1-2.556,1.871c-.011-1.485,1.079-2.452,1.212-3.742-1.26-.308-1.866,1.1-3.082,1.189.332-1.651,1.465-2.729,2.078-4.1-.952-.324-1.779.542-2.747.151.513-1.472,1.6-2.622,2.129-4.336-.931.576-1.6,1.01-2.286,1.405-.269.154-.6.328-.9.114-.4-.284-.177-.666-.074-1.018a15.965,15.965,0,0,0,1-2.985c-.993.439-1.472,1.277-2.21,1.8-.486.346-.838.2-.894-.383a9.354,9.354,0,0,1,.2-2.391c.233-1.423.415-2.854.669-4.64-.985,1.2-1.261,2.4-2.294,3.383A21.892,21.892,0,0,0,1037.355,1242.2Z" fill="#af1f24"/>
    </g>
  </g>
</svg>
