<svg xmlns="http://www.w3.org/2000/svg" width="1498.417" height="1043.211" viewBox="0 0 1498.417 1043.211">
  <g id="Group_493" data-name="Group 493" opacity="0.099">
    <path id="Path_953" data-name="Path 953" d="M777.186,1043.211H722.76c.026-6.986.2-13.978.03-20.964a119.142,119.142,0,0,0-1.1-13.669c-2.7-19.374-10.861-36.848-24.284-52.446a163.894,163.894,0,0,0-33.68-29.116c-17.691-11.8-37-21.175-57.263-29.1-25.312-9.9-51.632-17.217-78.422-23.312-33.921-7.718-68.325-13.411-102.858-18.53-24.079-3.571-48.2-6.943-72.3-10.369-22.138-3.146-44.223-6.538-66.143-10.7a298.784,298.784,0,0,1-33.749-8.073,83.378,83.378,0,0,1-15.423-6.286,27.809,27.809,0,0,1-7.019-5.179c-3.719-3.988-4.136-8.258-1.25-12.732a25.941,25.941,0,0,1,6.632-6.651,72.318,72.318,0,0,1,11.872-6.922,183.185,183.185,0,0,1,20.558-8.134c16.075-5.4,32.582-9.62,49.126-13.726,28.215-7,56.489-13.816,84.641-21A1575.679,1575.679,0,0,0,594.266,684.2c40.7-16.173,81.127-32.843,121.5-49.623,24-9.976,47.989-19.984,71.374-31.05,20.564-9.736,40.659-20.149,59.352-32.482a619.972,619.972,0,0,0,76.68-59.2,300.257,300.257,0,0,0,41.678-46.127c13.033-18.1,22.932-37.395,28.823-58.2a209.322,209.322,0,0,0,7.128-37.742,161.6,161.6,0,0,0-.112-34.622,90.1,90.1,0,0,0-17.923-44c-4.225-5.607-8.758-11.055-13.486-16.346-8.523-9.531-17.318-18.877-25.967-28.321-9.9-10.812-19.467-21.84-28.35-33.317-16.455-21.262-29.924-43.817-39.006-68.306a258.747,258.747,0,0,0-11.641-26.308c-8.18-16.257-17.665-31.932-27.481-47.463-4.982-7.88-9.968-15.762-14.812-23.706A147.835,147.835,0,0,1,810.8,25.308c-3.27-8.2-5.4-16.54-4.1-25.308h73.8a6.708,6.708,0,0,0,1.455.833c6.559,1.871,13.109,3.782,19.708,5.535,14.841,3.938,29.8,7.446,45.328,8.634,10.51.8,20.872.3,30.9-2.8,8.077-2.5,15.222-6.281,20.69-12.2h34.133a76.9,76.9,0,0,1-16.967,26.577,64.492,64.492,0,0,1-25.269,15.774,93.7,93.7,0,0,1-19.586,4.4c-9.763,1.188-19.592,1.434-29.432,1.651-5.372.119-10.748.419-16.1.853a40.451,40.451,0,0,0-12,2.692c-6.146,2.5-9.459,6.752-9.8,12.634a33.1,33.1,0,0,0,.5,7.218,55.023,55.023,0,0,0,4.529,13.507,215.381,215.381,0,0,0,11.869,21.835c6.477,10.841,12.818,21.736,18.521,32.913,7.915,15.5,14.329,31.432,18.214,48.111a145.417,145.417,0,0,0,6.847,21.745c4.807,11.847,11.486,22.876,19.047,33.511,5.763,8.1,11.8,16.057,17.529,24.18,3.627,5.141,7.108,10.378,10.305,15.736a92.847,92.847,0,0,1,12.395,37.739c1.326,11.818.757,23.645-.222,35.448a369.642,369.642,0,0,1-5.171,38.829,266.81,266.81,0,0,1-8.884,34.995c-9.872,29.46-25.616,56.378-46.114,81.209C941.843,537.095,917.14,559.693,889.669,580c-18.141,13.414-38.014,24.625-58.681,34.8-22.237,10.953-45.212,20.62-68.477,29.766q-48.328,18.994-96.742,37.825c-34.493,13.484-68.894,27.15-103.5,40.411-36.017,13.8-72.825,25.9-109.56,38.146-17.506,5.835-35.012,11.679-52.122,18.379a213.967,213.967,0,0,0-23.775,10.647,56.466,56.466,0,0,0-10.616,7.067,16.956,16.956,0,0,0-4.235,5.231,6.511,6.511,0,0,0,.661,7.3,18.124,18.124,0,0,0,3.994,3.849,37.766,37.766,0,0,0,6.989,3.863c4.453,1.8,8.993,3.481,13.631,4.869,12.954,3.878,26.294,6.515,39.687,8.9,24.532,4.361,49.1,8.551,73.635,12.888,26.046,4.6,51.923,9.84,77.474,16.245,27.352,6.856,54.109,15.141,79.857,25.8,19.067,7.9,37.393,16.9,54.35,27.945,13.509,8.793,25.768,18.715,36.107,30.391q23.919,27.01,27.633,61.011c.721,6.544.8,13.151,1.005,19.733C777.176,1031.115,777.13,1037.165,777.186,1043.211Z" transform="translate(355.929)" fill="#1a0414"/>
    <path id="Path_955" data-name="Path 955" d="M835.251,0c-.162,1.59.965,2.8,1.68,4.1,6.044,11.026,12.292,21.971,18.19,33.057,6.867,12.911,13.873,25.788,20.055,38.956,12.1,25.764,27.924,49.638,46.283,72.311a896.388,896.388,0,0,0,72.884,79.089c16.683,16.17,33.667,32.1,50.5,48.157,7.171,6.839,14.187,13.8,20.561,21.225,8.077,9.412,14.749,19.49,18.948,30.735a98.1,98.1,0,0,1,5.789,41.353,147.154,147.154,0,0,1-8.024,39.179,148.9,148.9,0,0,1-23.312,41.894c-11.426,14.762-24.829,28.046-39.42,40.448-14.455,12.289-29.762,23.732-45.549,34.676-12.527,8.684-25.213,17.191-37.912,25.681C915,564.846,892.732,577.022,869.737,588.21,841,602.191,811.681,615.186,782.25,627.99c-39.472,17.17-79.249,33.777-119.809,48.9a1230.921,1230.921,0,0,1-186.369,53c-22.148,4.479-44.455,8.282-66.861,11.665-18.762,2.837-37.525,5.7-56.241,8.773-17.222,2.825-34.222,6.448-50.6,12.032a160.717,160.717,0,0,0-31.4,14.3,94.767,94.767,0,0,0-16.752,12.59,43.228,43.228,0,0,0-9.833,13.067c-1.61,3.534-2.6,7.171-1.964,11.023a19.244,19.244,0,0,0,6.242,11.02,48.267,48.267,0,0,0,12.98,8.273,141.923,141.923,0,0,0,24.009,8.151c13.122,3.4,26.492,5.861,39.939,8.021,21.3,3.424,42.7,6.307,64.13,9.06q27.583,3.544,55.134,7.246c23.07,3.134,46.148,6.226,69.165,9.632,32.714,4.841,65.214,10.618,97.188,18.469a494.285,494.285,0,0,1,62.91,19.466c19.417,7.625,37.833,16.737,54.459,28.451a146.226,146.226,0,0,1,29.038,26.346q18.6,22.615,21.543,50.352c.909,8.461.585,16.922.75,25.383H726.4c-.251-5.639-.4-11.283-.78-16.916a82.913,82.913,0,0,0-7.915-30.108c-6.7-14.154-16.947-26.126-29.643-36.562-12.864-10.575-27.458-18.984-43.023-26.158-19.632-9.051-40.269-15.953-61.405-21.739C548.093,902,511.719,895.4,475.07,889.891c-15.741-2.368-31.518-4.566-47.3-6.706q-20.72-2.806-41.492-5.292c-13.089-1.564-26.211-2.918-39.32-4.358q-24.236-2.668-48.472-5.324c-16.005-1.747-31.967-3.762-47.781-6.57a238.077,238.077,0,0,1-36.315-8.938,90.876,90.876,0,0,1-19.1-8.828,42.6,42.6,0,0,1-9.36-7.724q-8.5-9.651-5.9-21.641a46.6,46.6,0,0,1,7.27-16.028A116.385,116.385,0,0,1,203.931,779.2c17.764-16.962,38.008-31.313,60.238-43.551a229.577,229.577,0,0,1,33.892-15.407,142.791,142.791,0,0,1,45.189-8.739c7.677-.156,15.364-.113,23.044.023,20.594.362,41.178.839,61.759-.575q20.923-1.44,41.625-4.358c21.837-3.114,43.427-7.29,64.811-12.258a986.716,986.716,0,0,0,124.742-37.97c59.018-22.24,116.384-47.411,172.35-75.026C853,570.771,874.118,559.75,894.117,547.2q32.4-20.338,64.563-40.969a553.516,553.516,0,0,0,47.645-33.734,238.2,238.2,0,0,0,33.277-31.776c16.253-19.241,26.231-40.575,28.562-64.553a80.729,80.729,0,0,0-1.9-27.254c-3-12.24-8.794-23.445-16.633-33.878a161.742,161.742,0,0,0-21.07-22.91q-19.093-17.233-38.576-34.133c-28.83-24.984-57.663-49.962-85.451-75.842-27.051-25.2-53.428-50.91-77.966-78.031A458.666,458.666,0,0,1,788.644,57c-11.568-16.786-20.7-34.486-26.439-53.469-.347-1.151-.506-2.351-.751-3.528Z" transform="translate(245.284)" fill="#1a0414"/>
    <path id="Path_957" data-name="Path 957" d="M0,581.162V530.425c1.468-.443,2.936-.9,4.407-1.332a36.389,36.389,0,0,1,28.552,2.863,57.91,57.91,0,0,1,12.854,9.667,118.127,118.127,0,0,1,15.179,18.508,247.277,247.277,0,0,1,16.6,28.707c7.684,15.4,15.241,30.86,23.795,45.8a275.7,275.7,0,0,0,29.114,42c9.1,10.686,19.02,20.508,30.546,28.6a89.6,89.6,0,0,0,25.368,12.884q39.089,11.887,67.195-17.837a80.677,80.677,0,0,0,14-21.024c5.961-12.517,8.943-25.788,10.021-39.532.77-9.809,1.111-19.635,1.16-29.481.033-6.6.311-13.211.648-19.807a135.679,135.679,0,0,1,9.866-43.86c7.35-18.3,17.989-34.573,30.658-49.583,13.241-15.691,28.314-29.455,44.422-42.127,23.011-18.1,47.688-33.654,73.215-47.9,29.8-16.633,60.629-31.19,91.713-45.228,23.094-10.424,46.2-20.812,69.215-31.419a317.1,317.1,0,0,0,38.861-21.087,137.36,137.36,0,0,0,18.389-13.856c5.716-5.207,10.785-10.957,14.379-17.87a41.292,41.292,0,0,0,4.49-25.881,62.347,62.347,0,0,0-5.518-17.509,121.413,121.413,0,0,0-14.9-23.236A240.738,240.738,0,0,0,620.9,177.158a417.3,417.3,0,0,0-46.885-34.229c-15.318-9.694-30.883-18.994-46.366-28.423-11.029-6.712-22-13.506-32.281-21.348A135.312,135.312,0,0,1,477.2,76.865a63.26,63.26,0,0,1-16.818-41.836,102.885,102.885,0,0,1,1.2-19.3C462.4,10.438,463.059,5.082,464.93,0h31.362a65.716,65.716,0,0,0,11.393,31.25A92.98,92.98,0,0,0,525.1,50.207,163.906,163.906,0,0,0,546.48,65.442c12.372,7.449,24.78,14.841,37.327,21.986,24.456,13.922,48.4,28.648,71.268,45.056,33.769,24.221,65.518,50.922,96.325,78.766a236.467,236.467,0,0,1,23.616,24.6,127.465,127.465,0,0,1,13.2,18.862,65.073,65.073,0,0,1,6.351,15.278,38.6,38.6,0,0,1,.932,16.888,39.421,39.421,0,0,1-9.628,19.1,76.545,76.545,0,0,1-15,12.878,165.016,165.016,0,0,1-23.8,13.1c-17.467,8.034-35.561,14.441-53.8,20.412-26.555,8.689-53.193,17.126-79.741,25.834a1012.429,1012.429,0,0,0-95.152,36.054c-27.7,12.286-54.6,26.079-80.122,42.481-18.528,11.912-36.123,25.034-52.059,40.3-12.712,12.17-24.079,25.444-33.23,40.534a132.678,132.678,0,0,0-17.506,45.3c-1.908,10.447-3.045,20.981-4.182,31.518a285.6,285.6,0,0,1-7.723,42.58c-7.68,28.972-21.755,54.367-43.069,75.589a99.089,99.089,0,0,1-25.56,18.713,78.413,78.413,0,0,1-49.275,7.3,105.5,105.5,0,0,1-37.981-14.739A157.448,157.448,0,0,1,140.611,722.4c-13.287-12.9-24.72-27.349-35.412-42.418-10.233-14.425-19.417-29.521-28.463-44.706-6.447-10.828-12.937-21.632-20.32-31.862a90.865,90.865,0,0,0-14.392-16.137,48.537,48.537,0,0,0-13.211-8.3,30.246,30.246,0,0,0-23.768-.046C3.346,579.638,1.68,580.418,0,581.162Z" fill="#1a0414"/>
    <path id="Path_960" data-name="Path 960" d="M637.7,1043.211c-.01-10.352.119-20.7-.066-31.053a144.34,144.34,0,0,0-5.128-36.735c-5.991-21.265-17.9-39.607-35.26-55.317-12.14-10.988-25.878-20.23-40.544-28.454C537,880.6,516.117,871.494,494.686,863.323a843.538,843.538,0,0,0-87.042-27.433c-17.5-4.58-35.042-9.048-52.482-13.807-7.608-2.079-15.043-4.664-22.472-7.209a83.757,83.757,0,0,1-9.469-4.135,39.545,39.545,0,0,1-5.69-3.418c-7.822-5.627-8.523-11.555-2.109-18.5a40.279,40.279,0,0,1,6.13-5.445,127.6,127.6,0,0,1,11.819-7.7c6.725-3.762,13.575-7.376,20.555-10.763,21.9-10.624,44.385-20.262,66.917-29.813,48.931-20.745,98.623-40.006,148.893-58.136,25.557-9.219,50.849-18.975,75.539-29.879q23.467-10.362,45.731-22.584a301.3,301.3,0,0,0,82.383-66.224q47.619-54.509,64.781-121.391a360.239,360.239,0,0,0,8.13-41.694q3.06-22.815,5.634-45.685c1.058-9.49,2.013-19.012,2.354-28.538a122.718,122.718,0,0,0-13.142-60.077c-3.382-6.769-6.629-13.591-9.862-20.418a97.876,97.876,0,0,1-9.161-32.343c-1.736-17.318-7.393-33.737-15.116-49.646-4.443-9.149-9.2-18.183-13.856-27.251-3.273-6.379-6.546-12.755-8.2-19.646a29.521,29.521,0,0,1-.833-10.407,19.718,19.718,0,0,1,6.136-12.356,69.336,69.336,0,0,1,8.457-6.81c4.1-2.822,8.421-5.407,12.709-8.021,18.789-11.46,32.43-26.539,41.354-44.936,1.26-2.594,2.47-5.211,3.607-7.851A180.281,180.281,0,0,0,863.708,0H884c-.638,2.2-1.365,4.381-1.9,6.6-4.477,18.454-10.543,36.478-19.44,53.686-4.43,8.565-9.462,16.89-14.144,25.357-2.605,4.713-5.287,9.415-7.531,14.262a36.943,36.943,0,0,0-.774,30.721c1.974,4.8,4.209,9.522,6.371,14.262,4.271,9.357,8.778,18.634,12.808,28.069a95.5,95.5,0,0,1,7.846,39.089,117.211,117.211,0,0,0,3.329,27.213c3.352,14.906,6.464,29.821,7.343,45.052a216.982,216.982,0,0,1-.952,35.842c-1.051,9.762-2.714,19.472-3.882,29.229-1.98,16.572-3.726,33.167-5.68,49.742-1.4,11.9-2.84,23.789-4.51,35.657A356.323,356.323,0,0,1,851.676,485.8a298.907,298.907,0,0,1-36.761,79.757,239.345,239.345,0,0,1-61.9,64.5,395.5,395.5,0,0,1-44.927,27.47,671.2,671.2,0,0,1-67.436,30.64c-24.36,9.6-48.888,18.871-73.351,28.28-20.247,7.787-40.418,15.716-59.9,24.917a318.005,318.005,0,0,0-35.273,19.05,105.964,105.964,0,0,0-15.1,11.2,52.748,52.748,0,0,0-5.6,5.876,28.435,28.435,0,0,0-3.686,6.012,13.366,13.366,0,0,0,1.362,13.562,34.9,34.9,0,0,0,9.707,9.074,123.033,123.033,0,0,0,17.569,9.6c12.229,5.662,24.9,10.505,37.555,15.36,19.553,7.5,39.148,14.909,58.225,23.315,18.686,8.232,36.864,17.214,53.874,27.916,13.145,8.273,25.325,17.477,35.846,28.309,16.531,17.017,25.91,36.64,28.489,58.825a233.491,233.491,0,0,1,1.418,28.589c-.093,14.386-.271,28.769-.423,43.155-.007.668-.1,1.339-.155,2.007Z" transform="translate(548.918)" fill="#1a0414"/>
    <path id="Path_961" data-name="Path 961" d="M770.788,0c-.314,1.457.721,2.576,1.316,3.776a239.57,239.57,0,0,0,19.52,31.981c12.048,16.925,25.788,32.762,40.365,48.062,22.456,23.57,46.491,45.873,71.086,67.725,27.937,24.816,56.674,48.915,85.745,72.71q35.181,28.8,70.4,57.57a377.977,377.977,0,0,1,30.218,27.155c8.236,8.4,15.579,17.327,21.249,27.251a79.828,79.828,0,0,1,8.831,21.982,67.638,67.638,0,0,1-.532,30.831,92.87,92.87,0,0,1-16.726,34.7,167.891,167.891,0,0,1-27.2,27.844,348.4,348.4,0,0,1-38.57,27.5c-14.888,9.288-29.98,18.324-44.984,27.468-13.489,8.224-27.111,16.291-40.441,24.706a869.425,869.425,0,0,1-78.1,43.522A1457.673,1457.673,0,0,1,725.12,638.556a806.689,806.689,0,0,1-90.48,27.369,514.448,514.448,0,0,1-52.671,9.866A286.588,286.588,0,0,1,541.1,678.5a155.031,155.031,0,0,1-24.257-2.212,95.313,95.313,0,0,1-25.788-8.42c-3.888-1.9-7.746-3.849-11.615-5.783-9.654-4.826-20.019-5.723-30.794-4.2a138.7,138.7,0,0,0-25.6,6.518,374.981,374.981,0,0,0-48.247,20.935A667.1,667.1,0,0,0,273.557,749.1c-12.428,9.43-24.621,19.082-35.9,29.576a177.948,177.948,0,0,0-23.765,26.684A87.106,87.106,0,0,0,203,824.878a36.448,36.448,0,0,0-2.6,14.253c.2,6.344,2.87,11.757,7.836,16.335a47.578,47.578,0,0,0,12.649,7.99,128.45,128.45,0,0,0,20.554,7.056,443.487,443.487,0,0,0,59.293,11.532c15.823,1.964,31.69,3.545,47.6,4.844s31.822,2.559,47.708,4.066c18.323,1.738,36.655,3.484,54.919,5.653,39.122,4.65,78,10.56,116.463,18.423,25.593,5.234,50.823,11.543,75.258,20.1,16.293,5.705,32.037,12.362,46.749,20.791a154.714,154.714,0,0,1,27.1,19.328c14.1,12.772,23.742,27.661,27.878,45.136a83.639,83.639,0,0,1,2.394,22.827H692.376c.364-5.167-.952-10.164-2.225-15.132-4.143-16.182-13.383-29.92-26.555-41.724-10.609-9.508-22.832-17.144-35.961-23.723a317.16,317.16,0,0,0-47.391-18.712c-30.437-9.531-61.739-16.248-93.406-21.7-15.215-2.62-30.523-4.849-45.84-6.983-10.464-1.457-21-2.521-31.528-3.609-9.611-.992-19.245-1.83-28.879-2.64-9.485-.8-18.977-1.489-28.473-2.192-8.88-.656-17.771-1.229-26.651-1.9-8.573-.651-17.142-1.324-25.7-2.094-9.323-.836-18.644-1.7-27.944-2.721-15.241-1.674-30.45-3.565-45.695-5.208-10.828-1.165-21.649-2.354-32.357-4.19-9.214-1.576-18.273-3.615-26.81-7.151a42.884,42.884,0,0,1-12.451-7.518,21.129,21.129,0,0,1-7.168-12.382,28.593,28.593,0,0,1,.436-11.231c1.521-6.518,4.5-12.55,8.008-18.4a164.705,164.705,0,0,1,15.036-20.765A401.991,401.991,0,0,1,225.7,759.458c12.944-10.543,26.638-20.325,40.253-30.189a944.8,944.8,0,0,1,134.71-81.689c23.666-11.74,47.738-22.78,72.68-32.314,10.7-4.092,21.513-7.929,32.88-10.407a72.535,72.535,0,0,1,16.382-2.027c9.271.107,16.247,3.519,20.439,10.9.956,1.686,1.875,3.386,2.78,5.092,1.1,2.07,2.176,4.152,3.263,6.229,5.055,9.681,13.588,15.739,25.263,18.489,2.073.486,4.186.862,6.3,1.189,10.385,1.616,20.842,1.342,31.26.5a308.271,308.271,0,0,0,41.668-6.6,627.728,627.728,0,0,0,72.511-21.063,1102.792,1102.792,0,0,0,104.085-43.033,870.6,870.6,0,0,0,95.889-52.052c12.193-7.724,24.71-15.065,37.237-22.372,15.344-8.947,30.883-17.633,46.283-26.5,12.841-7.4,25.438-15.1,37.376-23.59,10.758-7.654,20.832-15.924,29.5-25.435a91.716,91.716,0,0,0,16.571-24.556c7.819-17.688,7.531-35.168-1.637-52.454a121.39,121.39,0,0,0-15.589-22.32,228.6,228.6,0,0,0-28.182-27.144q-19.668-16.148-39.74-31.918c-36.523-28.821-73.278-57.416-109.642-86.387-30.807-24.538-60.7-49.921-89.26-76.475-20.875-19.409-40.725-39.569-58.741-61.08a347.011,347.011,0,0,1-28.469-38.6c-.721-1.154-1.858-2.18-1.723-3.652Z" transform="translate(170.454)" fill="#1a0414"/>
    <path id="Path_965" data-name="Path 965" d="M748.991,0c18.184,25.542,39.79,48.788,62.559,71.247,27.871,27.494,57.607,53.377,88.361,78.386,34.123,27.748,69.3,54.452,104.531,81.1q38.2,28.887,76.273,57.9A429.589,429.589,0,0,1,1115.589,318a185.407,185.407,0,0,1,19.331,21.051,91.308,91.308,0,0,1,11.036,17.653c6.193,13.492,6.087,26.985.03,40.477a72.471,72.471,0,0,1-10.285,16.167,127.726,127.726,0,0,1-18.452,17.98,241.783,241.783,0,0,1-32.784,22.193q-22.208,12.652-44.742,24.865c-22.591,12.272-44.852,24.969-66.467,38.531-28.777,18.058-59.289,33.624-90.777,47.741A753.282,753.282,0,0,1,797.3,597.319a401.535,401.535,0,0,1-45.1,11.416,193.23,193.23,0,0,1-27.838,3.242,79.679,79.679,0,0,1-18.333-1.229A48.606,48.606,0,0,1,699,608.876q-10.315-3.652-14.683-12.68a49.62,49.62,0,0,1-3.488-10.841c-.926-4.086-1.756-8.189-2.83-12.243a28.046,28.046,0,0,0-2.3-5.685c-2.972-5.705-8.173-8.869-15.165-9.988a55.482,55.482,0,0,0-17.417.451c-11.228,1.741-22.042,4.8-32.774,8.085-25.428,7.773-49.85,17.555-73.751,28.355a1150.5,1150.5,0,0,0-189.44,107.757c-17.238,12.145-34.411,24.368-51.312,36.865-22.69,16.783-43.41,35.365-63.525,54.464-12.087,11.474-23.867,23.179-34.89,35.454a218.453,218.453,0,0,0-17.01,21.074,86.644,86.644,0,0,0-8.5,14.736,35.937,35.937,0,0,0-3.412,14.929c.1,6.521,2.807,12.035,7.971,16.667a44.447,44.447,0,0,0,12.015,7.388,102.425,102.425,0,0,0,21.312,6.362,237.72,237.72,0,0,0,34.2,4.158c18.872.928,37.763,1.53,56.628,2.547,13.492.729,26.955,1.885,40.425,2.906,11.175.85,22.336,1.813,33.511,2.669,13.162,1.009,26.334,1.958,39.5,2.932,8.573.636,17.159,1.174,25.719,1.929q14.674,1.3,29.306,2.926c9.294,1.032,18.584,2.122,27.831,3.444,41.331,5.9,81.867,14.447,120.824,28.15a253.672,253.672,0,0,1,43.744,19.75,138.578,138.578,0,0,1,26.03,19.186c12,11.431,20.184,24.628,24.1,39.8.235.914.317,1.856.473,2.785H653.052a8.747,8.747,0,0,0-.413-2.7c-1.461-2.958-2.942-5.922-4.682-8.759-7.376-12.035-17.642-21.942-29.782-30.42a199.748,199.748,0,0,0-33.885-18.645,369.984,369.984,0,0,0-53.937-18.59,541.163,541.163,0,0,0-54.145-11.436c-14.207-2.284-28.473-4.2-42.825-5.627-8.7-.864-17.4-1.723-26.112-2.5-11.466-1.024-22.935-1.984-34.407-2.944-11.013-.925-22.026-1.853-33.045-2.709-9.793-.758-19.586-1.7-29.4-2.053-14.739-.532-29.5-.752-44.25-.867-23.513-.185-47.037.185-70.5-1.654a266.567,266.567,0,0,1-36.365-5.069,113.418,113.418,0,0,1-22.462-7.16,49.865,49.865,0,0,1-14.736-9.545q-9.646-9.5-7.164-22.049a47.422,47.422,0,0,1,6.5-15.436,120.389,120.389,0,0,1,11.906-15.814A372.468,372.468,0,0,1,160.681,831.4c25.55-23.842,52-46.911,78.614-69.839,15.992-13.779,32.295-27.28,49.622-39.774,22.77-16.419,45.542-32.843,68.649-48.895a1305.445,1305.445,0,0,1,158.1-93.964,689.946,689.946,0,0,1,91.621-38.667c26.023-8.692,52.548-15.835,80.191-19.409,6.688-.865,13.4-1.42,20.194-.468,9.535,1.336,16.528,5.517,20.369,13.38a46.619,46.619,0,0,1,2.42,6.081c.754,2.322,1.293,4.7,1.9,7.058,1.24,4.849,2.278,9.739,4.5,14.36q4.87,10.137,16.871,13.261a52.894,52.894,0,0,0,11.8,1.637,131.283,131.283,0,0,0,29.236-2.854,318.889,318.889,0,0,0,43.873-12.13A605.755,605.755,0,0,0,956.665,505.2c14.349-8.8,28.926-17.289,43.929-25.212,15.651-8.264,31.379-16.424,47.043-24.668,13.569-7.142,26.9-14.6,39.376-23.165,9.214-6.33,17.81-13.226,25.044-21.334a64.934,64.934,0,0,0,11.125-16.65,38.967,38.967,0,0,0,2.086-27.3,53.256,53.256,0,0,0-6.635-14.129,123.964,123.964,0,0,0-11.876-15.346,276.638,276.638,0,0,0-30.724-28.937c-15.212-12.555-31.138-24.4-47.1-36.206-35.568-26.3-71.248-52.48-106.73-78.866-45.225-33.635-89-68.65-130.574-105.738-19.054-16.994-37.763-34.269-55.392-52.414C726.678,25.394,717.4,15.36,708.887,4.8c-1.223-1.515-2.175-3.2-3.253-4.8Z" transform="translate(162.831)" fill="#1a0414"/>
    <path id="Path_967" data-name="Path 967" d="M124.9,1043.211c-.05-.382.069-.934-.172-1.11a13.469,13.469,0,0,0-2.328-1.278,146.512,146.512,0,0,1-54.631-43C56.584,983.71,48.057,968.4,41,952.425a348.647,348.647,0,0,1-18.316-54.047,558.611,558.611,0,0,1-11.367-56.343C8.9,826.044,7.074,810,5.715,793.915a510.1,510.1,0,0,1-1.438-64.481c.612-14.516,2.189-28.965,6.308-43.109a60.246,60.246,0,0,1,6.464-15.485,44.064,44.064,0,0,1,5.594-7.356c5.759-5.948,13.1-7.628,21.619-5.468A39.236,39.236,0,0,1,54.7,662.21c4.824,2.868,9.707,5.711,14.164,8.987,8.117,5.963,15.969,12.206,23.874,18.391,9.512,7.44,19.1,14.8,29.293,21.528a202.826,202.826,0,0,0,44.514,22.589,151.445,151.445,0,0,0,59.537,8.464,163.535,163.535,0,0,0,53.573-12.405,239.259,239.259,0,0,0,53.2-30.929,419.5,419.5,0,0,0,56.307-52.1c16.491-18.11,31.237-37.3,45.728-56.641A565.389,565.389,0,0,0,466.5,542.3q10.2-16.942,21.044-33.581A226.055,226.055,0,0,1,516.545,472.9c16.005-16.06,34.791-29.185,55.55-40.211,21.08-11.2,43.43-20.065,66.477-27.653a774.782,774.782,0,0,1,81.97-21.629q42.546-9,85.683-15.554,34.725-5.266,69.512-10.219c17.88-2.576,35.816-4.864,53.672-7.567,18.462-2.8,36.824-6.044,54.711-11.069a183.969,183.969,0,0,0,21.88-7.437c4.414-1.865,8.709-3.99,12.871-6.257a46.52,46.52,0,0,0,7.2-5.005c7.994-6.578,10.381-14.655,7.968-23.917a50.364,50.364,0,0,0-6.553-14.149,130.184,130.184,0,0,0-14.084-17.928c-11.264-12.307-23.841-23.547-36.89-34.387a761.936,761.936,0,0,0-88.728-62.96q-28.873-17.71-58.175-34.885a449.691,449.691,0,0,1-69.846-49.962c-11.833-10.367-23.378-21-34.788-31.724C706.964,33.459,688.836,16.63,669.736.622A6.05,6.05,0,0,1,669.161,0H719.9c3.382,4.317,6.718,8.663,10.16,12.949,10.953,13.643,22.059,27.193,34.007,40.2a344.434,344.434,0,0,0,80.489,65.3c10.1,5.89,20.118,11.9,30.2,17.818a1233.823,1233.823,0,0,1,111.613,73.413c24.019,17.862,47.582,36.16,69.681,55.852a296.941,296.941,0,0,1,27.117,26.921,104.19,104.19,0,0,1,11.482,15.566,41.171,41.171,0,0,1,4.781,11.309c1.861,7.952-.579,14.632-7.793,19.842a37.758,37.758,0,0,1-4.906,3,52.538,52.538,0,0,1-6.963,3.117c-5.154,1.735-10.342,3.43-15.625,4.823-11.919,3.14-24.112,5.329-36.266,7.651-15.311,2.926-30.691,5.537-46.194,7.533-14.59,1.874-29.223,3.49-43.846,5.167-15.843,1.816-31.71,3.484-47.543,5.37s-31.657,3.794-47.434,5.983q-29.126,4.043-57.967,9.482c-25.385,4.765-50.591,10.144-75.377,16.942-24.515,6.723-48.442,14.733-71.331,25.01-26.172,11.749-49.986,26.34-70.613,44.786a317.056,317.056,0,0,0-31.1,32.418c-11.307,13.432-21.738,27.384-32.189,41.324-9.859,13.16-19.83,26.25-30.708,38.788-18.961,21.852-38.365,43.4-58.536,64.408a563.766,563.766,0,0,1-63.211,56.982c-17.972,13.807-37.274,25.944-58.661,35.411-24.714,10.936-50.743,17.59-78.571,18.506a180.666,180.666,0,0,1-56.7-7.131C143.546,754.577,130,748.86,116.74,742.6c-7.3-3.447-14.531-7.012-21.917-10.317-4.774-2.137-9.723-4-14.686-5.8a40.927,40.927,0,0,0-12.1-2.334c-6.721-.3-12.349,1.68-16.861,6.061a31.662,31.662,0,0,0-5.918,8.131,65.073,65.073,0,0,0-5.313,14.562c-2.972,11.734-3.977,23.671-4.295,35.634-.235,8.73.05,17.474.37,26.2.255,6.983.727,13.972,1.435,20.93,1.24,12.182,2.933,24.321,5.158,36.4a360.024,360.024,0,0,0,13.165,51.491c5.921,17.3,13.39,34.046,23.709,49.75a146.928,146.928,0,0,0,27.977,31.895c15.651,13.226,34.073,22.355,54.611,28.393a285.762,285.762,0,0,0,37.551,8.033c1.673.257,3.382.347,4.6,1.573Z" transform="translate(8.862)" fill="#1a0414"/>
    <path id="Path_969" data-name="Path 969" d="M741.345,0c.661,1.345,1.213,2.738,2,4.022,5.991,9.785,13.717,18.466,22.257,26.626,14.124,13.489,28.741,26.563,43.668,39.37q85.165,73.047,177.1,139.524,51.209,36.977,102.25,74.13c13.952,10.141,27.682,20.51,40.838,31.447a264.115,264.115,0,0,1,29.947,28.465,96.452,96.452,0,0,1,11.31,15.184A39.761,39.761,0,0,1,1176,373.694a33.5,33.5,0,0,1-2.615,17.413,53.139,53.139,0,0,1-9.314,14.311,109.552,109.552,0,0,1-18.415,16.338,223.567,223.567,0,0,1-27.861,17.182q-21.37,11.152-43.02,21.9c-22.31,11.107-44.276,22.679-65.667,35.107a394.012,394.012,0,0,1-71.744,32.8,194.485,194.485,0,0,1-35.822,8.924c-7,.966-14,1.5-21.107.532-8.689-1.18-15.641-4.658-20.386-11.2a71.179,71.179,0,0,1-4.387-7.079c-1.561-2.77-2.893-5.642-4.437-8.42a73.486,73.486,0,0,0-3.918-6.388c-6-8.62-14.934-13.247-26.241-14.666a95.109,95.109,0,0,0-18.392-.341c-49.507,3.366-96.636,14.982-142.344,31.449-30.764,11.087-59.875,24.972-88.04,40.408a1461.142,1461.142,0,0,0-125.955,78.083c-22.839,15.713-45.05,32.091-67.307,48.426-11.773,8.64-23.633,17.2-35.274,25.978-17.119,12.911-33.4,26.632-49.629,40.379-31.812,26.933-64.193,53.339-96.735,79.6q-17.283,13.945-34.07,28.361c-4.929,4.222-9.376,8.889-13.853,13.5a62.707,62.707,0,0,0-9.168,12.07,38.9,38.9,0,0,0-4.348,10.583c-1.722,7.191-.294,13.889,3.832,20.2a43.777,43.777,0,0,0,11.466,11.477c7.829,5.589,16.709,9.519,26.112,12.6a210.659,210.659,0,0,0,36.563,8.074c24.052,3.377,48.3,4.236,72.6,4.222,17.83-.009,35.664-.208,53.5-.234,9.68-.011,19.374,0,29.048.3,13.82.431,27.613,1.3,41.354,2.764,11.744,1.252,23.513,2.287,35.257,3.534,24.7,2.628,49.4,5.3,73.81,9.652,24.733,4.407,48.961,10.288,72.137,19.189,17.526,6.732,34.08,14.883,48.822,25.666a110.046,110.046,0,0,1,21.064,19.669c1.848,2.3,3.415,4.771,5.111,7.163H600.208c-.572-1.94-2.344-3.123-3.809-4.468a144.1,144.1,0,0,0-29.5-20.536,232.425,232.425,0,0,0-39.056-16.225c-21.7-6.963-44.117-11.532-66.791-15.184-22.2-3.577-44.488-6.746-66.894-9.233-13.122-1.457-26.294-2.409-39.5-2.776-13.36-.37-26.74-.373-40.114-.393-21.824-.032-43.648.266-65.472-.422-18.9-.6-37.73-1.776-56.479-4.048a259,259,0,0,1-66.527-16.951,151.122,151.122,0,0,1-22.178-10.667A57.644,57.644,0,0,1,90.1,931.1c-7.416-8.585-9.671-18.1-6.659-28.564a50.237,50.237,0,0,1,9.181-17.043,107.421,107.421,0,0,1,17.814-17.376,305.049,305.049,0,0,1,27.084-18.781c21.173-13.4,42.071-27.106,62.11-41.8,31.349-22.991,61.319-47.307,90.8-72.094,20.948-17.61,42.131-34.992,64.318-51.419,13.254-9.817,26.38-19.77,39.486-29.737,32.711-24.883,65.839-49.326,100.3-72.357,24.8-16.572,50.036-32.6,76.465-47.148a531.843,531.843,0,0,1,99.883-42.895A615.32,615.32,0,0,1,744.1,474.323c13.552-2.42,27.157-4.551,40.868-6.087,10.814-1.212,21.688-2.01,32.549-2.895a245.03,245.03,0,0,1,33.161-.57c12.626.688,24.023,4.3,33.69,11.593,3.138,2.368,6.054,4.959,9.056,7.466,2.777,2.319,5.439,4.754,8.315,6.977,7.568,5.858,16.468,8.66,26.575,8.689a96.871,96.871,0,0,0,25.342-3.739,203.714,203.714,0,0,0,37.875-14.588q31.9-15.762,64.391-30.579,14.283-6.55,28.413-13.354a289.472,289.472,0,0,0,33.8-18.824,118.015,118.015,0,0,0,16.792-13.183,56.394,56.394,0,0,0,10.487-13.2c5.422-9.8,5.69-19.712.3-29.541a80.769,80.769,0,0,0-7.247-10.74,184.853,184.853,0,0,0-21.9-22.841,470.2,470.2,0,0,0-38.276-30.9c-26.549-19.385-53.256-38.6-79.907-57.876-29.375-21.248-59.009-42.226-88.086-63.778-48.2-35.726-95.241-72.618-142-109.775-9.667-7.683-19.245-15.47-28.526-23.506C725.511,30.726,714.5,16.424,707.215,0Z" transform="translate(109.547)" fill="#1a0414"/>
    <path id="Path_973" data-name="Path 973" d="M553.241,1043.211c-.218-12.229-.625-24.469.744-36.663,1.008-8.955,2.384-17.882,3.567-26.823,1.544-11.639,2.41-23.3,1.17-35a89.266,89.266,0,0,0-16.065-42.068,139.776,139.776,0,0,0-25.028-26.777,236.2,236.2,0,0,0-32.639-22.989c-10.966-6.443-22.168-12.578-33.263-18.853-8.9-5.034-17.847-10.014-26.687-15.129a134.655,134.655,0,0,1-17.073-11.642,49.505,49.505,0,0,1-9.307-9.441,20.466,20.466,0,0,1-3.967-8.952,17.77,17.77,0,0,1,2.218-11.364,36.488,36.488,0,0,1,8.619-10.4c3.875-3.25,7.872-6.422,12.091-9.32a267.019,267.019,0,0,1,31.59-18.11c16.66-8.348,33.422-16.546,50.125-24.828,21.662-10.742,43-21.933,63.316-34.567a372.9,372.9,0,0,0,41.694-29.871c26.35-21.93,46.157-47.689,59.716-77.2a318.54,318.54,0,0,0,21.189-62.907,400,400,0,0,0,7.069-40.63q1.954-16.231,3.1-32.534c1.127-15.693,1.812-31.406,2.883-47.1a529.872,529.872,0,0,1,6.91-58.515c1.9-10.485,3.065-21.054,4.116-31.634,2.013-20.25,2.139-40.541,1.97-60.84-.086-10.222.152-20.432.78-30.634.2-3.221.572-6.434.734-9.655a85.757,85.757,0,0,0-6.8-37.585c-2.833-6.81-6.136-13.475-9.214-20.21-2.394-5.237-4.791-10.473-7.145-15.728-5.022-11.22-5.554-22.751-3.121-34.5,2.361-11.384,5.958-22.5,9.3-33.676C701.4,38.47,706.271,19.75,709.99.8c.049-.263.049-.535.073-.8h19.374a18.849,18.849,0,0,0-.9,2.663c-1.7,9.288-3.329,18.582-5.025,27.87-2.377,13-4.8,26-5.683,39.17a69.437,69.437,0,0,0,1.9,21.635c2.179,8.7,5.951,16.933,9.869,25.12,2.906,6.072,5.938,12.107,8.546,18.278a96.527,96.527,0,0,1,7.488,42.759c-.479,9.947-2.407,19.77-3.68,29.648-1.5,11.616-2.913,23.243-4.179,34.879-.886,8.16-1.359,16.355-2.212,24.518-1.319,12.579-2.651,25.16-4.265,37.71q-2.217,17.22-5.072,34.379a313.357,313.357,0,0,0-4.1,36.9q-1.051,22.568-.754,45.161c.261,22.049.162,44.094-1,66.129-.711,13.568-1.908,27.092-3.729,40.581a348.594,348.594,0,0,1-9.419,46.81,222.07,222.07,0,0,1-29.66,65.319,279.925,279.925,0,0,1-37.624,44.262c-13.6,13.2-28.344,25.389-43.2,37.487Q581.9,733.367,567.282,745.68a135.984,135.984,0,0,0-14.693,14.458,67.093,67.093,0,0,0-8.15,11.214,34.247,34.247,0,0,0-4.232,11.457,30.178,30.178,0,0,0,3.4,18.859,62.039,62.039,0,0,0,9.366,13.38q6.9,7.564,14.213,14.831c6.08,6.064,12.418,11.931,18.5,17.992a155.307,155.307,0,0,1,23.024,28.636,96.684,96.684,0,0,1,14.349,42.2,112.2,112.2,0,0,1-2.159,34.532c-2.215,10.022-4.748,19.993-7.26,29.96a231.317,231.317,0,0,0-6.05,33.416,247.175,247.175,0,0,0-.85,26.6Z" transform="translate(741.308)" fill="#1a0414"/>
    <path id="Path_974" data-name="Path 974" d="M746.779,0a12.95,12.95,0,0,0,.575,2.683A196.487,196.487,0,0,0,810.307,81.53c7.836,5.858,16.061,11.272,24.459,16.488,33.716,20.941,67.029,42.357,99.142,65.151q46.181,32.787,91.912,66.059c24.509,17.746,48.862,35.657,72.587,54.209,15.017,11.74,29.789,23.706,43.559,36.582a185.1,185.1,0,0,1,18.468,19.585,74.374,74.374,0,0,1,9.1,13.993,27.267,27.267,0,0,1,2.708,8.507,15.836,15.836,0,0,1-4.711,13.472,38.29,38.29,0,0,1-10.745,7.515,85.327,85.327,0,0,1-18.349,6.417,177.672,177.672,0,0,1-29.045,4.236c-15.483,1.079-31.008,1.232-46.518,1.7-12.593.382-25.177.966-37.723,2.056-14.524,1.264-29.065,2.391-43.6,3.6-15.906,1.327-31.818,2.617-47.711,4.043-17.119,1.535-34.235,3.088-51.322,4.858-20.746,2.146-41.443,4.618-62.007,7.891-40.434,6.437-80.016,15.548-118.232,28.934-30.685,10.745-59.448,24.483-85.719,42.1a434.746,434.746,0,0,0-41.853,32.227C557.633,535.9,541.445,551.373,525.447,567,507.3,584.731,489.2,602.5,470.3,619.622c-10.785,9.768-21.741,19.391-32.543,29.145-15.608,14.1-31.114,28.292-46.726,42.394a826.418,826.418,0,0,1-75.777,61.308c-30.6,21.7-64.507,38.236-101.39,50.248-23.778,7.747-48.1,13.857-72.64,19.417-9.955,2.255-19.844,4.742-29.7,7.29a87.8,87.8,0,0,0-15.268,5.616c-11.906,5.578-20.111,13.946-24.707,25.044a61.741,61.741,0,0,0-4.563,18.874q-2.931,37.519,17.053,70.868c13.876,23.191,35.214,38.994,63.141,48.137a232.082,232.082,0,0,0,38.216,8.929c16.045,2.383,32.152,4.456,48.24,6.622,15.635,2.108,31.161,4.739,46.683,7.4,10.543,1.8,21.166,3.288,31.8,4.647,11.092,1.42,22.227,2.611,33.366,3.73,10.223,1.029,20.482,1.807,30.718,2.735,10.391.943,20.789,1.854,31.161,2.932,10.216,1.058,20.429,2.192,30.605,3.513,6.831.888,13.6,2.151,20.392,3.259,1.055.171,2.159.327,2.453,1.484H292c-.4-1.053-1.418-1.322-2.5-1.518-9.171-1.663-18.336-3.351-27.514-4.985-15.966-2.842-32.09-4.8-48.244-6.613-14.927-1.677-29.845-3.479-44.719-5.5a255.164,255.164,0,0,1-40.19-8.7c-30.394-9.265-53.722-26.077-70.408-50.071a170.9,170.9,0,0,1-20.984-42A233.2,233.2,0,0,1,26.172,874.1a204.949,204.949,0,0,1-1.5-30.192c.324-10.095,1.359-20.126,4.417-29.92A49.321,49.321,0,0,1,34.894,801.3c5.25-7.961,12.97-12.68,23.47-13.981a70.554,70.554,0,0,1,13.79-.431c6.735.486,13.466,1.107,20.161,1.9,19.381,2.3,38.814,3.7,58.377,2.669a281.736,281.736,0,0,0,60.5-10.06,298.771,298.771,0,0,0,88.556-41.371,552.581,552.581,0,0,0,47.695-36.808c15.1-12.856,29.491-26.3,43.529-40.038,15.572-15.239,31.071-30.53,46.653-45.76,20.617-20.152,39.853-41.292,58.77-62.664,13.932-15.736,28.106-31.3,43.37-46.075a323,323,0,0,1,48.68-39.367c21.087-13.692,43.956-24.611,68.091-33.569,24.224-8.993,49.232-15.933,74.643-21.82,26-6.023,52.28-10.849,78.816-14.675,17.281-2.493,34.6-4.7,52.006-6.434q20.145-2.013,40.292-4.017c15.112-1.509,30.235-2.926,45.328-4.569,18.749-2.039,37.466-4.3,56.2-6.408,10.818-1.217,21.659-2.287,32.48-3.479,14.474-1.6,28.992-2.964,43.3-5.569a100.021,100.021,0,0,0,18.515-4.791,55.748,55.748,0,0,0,8.467-4.043c7.089-4.265,9.522-10.3,7.994-17.6a36.214,36.214,0,0,0-4.057-10.257,88.113,88.113,0,0,0-9.158-13.038,245.915,245.915,0,0,0-24.281-24.79c-15.364-13.961-31.64-27.08-48.2-39.936-40.706-31.606-82.353-62.222-125.516-91.243-25.967-17.46-52.836-33.815-79.847-49.993-11.162-6.685-22.267-13.432-32.7-20.982a255.928,255.928,0,0,1-54.324-53.466,324.2,324.2,0,0,1-23.9-36.782c-.337-.6-.575-1.238-.86-1.859Z" transform="translate(56.7)" fill="#1a0414"/>
    <path id="Path_975" data-name="Path 975" d="M510.911,1043.211c-.42-1.394-1.858-1.726-3.108-2.16-6.278-2.18-12.527-4.442-18.885-6.431a408.386,408.386,0,0,0-61.273-14.53c-9.833-1.481-19.748-2.6-29.66-3.614-17.559-1.8-35.214-2.539-52.869-3.314-16.114-.708-32.229-1.463-48.326-2.435-17.936-1.084-35.836-2.571-53.639-4.806-11.555-1.449-22.984-3.516-34.411-5.616-13.671-2.513-27.4-4.812-41.109-7.157-16.432-2.811-32.853-5.636-48.74-10.39a136.074,136.074,0,0,1-27.878-11.442c-18.6-10.471-31.223-24.845-37.042-43.62a58.712,58.712,0,0,1-1.792-27.968c2.086-11.8,8.166-21.869,17.5-30.5a105.777,105.777,0,0,1,17.671-12.894,301.743,301.743,0,0,1,36.041-17.9c16.683-7.157,33.488-14.1,50.247-21.123,21.788-9.126,42.914-19.252,62.741-31.383,14.881-9.1,29.025-19.018,42.831-29.315,21.536-16.063,42.045-33.089,62.143-50.505,15.288-13.247,30.529-26.539,45.956-39.662,11.9-10.121,24.171-19.912,36.077-30.027,16.759-14.238,33.293-28.679,50-42.964,17.586-15.036,35.125-30.119,52.945-44.945a611.7,611.7,0,0,1,52.958-39.5c35.31-23.442,74.187-41,115.931-53.845A613.069,613.069,0,0,1,776.172,436.4c17.668-2.9,35.412-5.35,53.256-7.244,14.792-1.57,29.584-3.163,44.4-4.5,12.226-1.1,24.489-1.882,36.742-2.727,10.877-.749,21.755-1.486,32.645-2.053,14.114-.734,28.231-1.437,42.388-1.113,9.231.211,18.389,1.1,27.544,2.053,10.071,1.05,20.138,2.065,30.308,2.16a173.346,173.346,0,0,0,38.778-4.089,196.772,196.772,0,0,0,41.664-13.842,96.142,96.142,0,0,0,18.971-11.367,44.028,44.028,0,0,0,8.682-8.845c5.092-7.139,5.792-14.591,2.023-22.335a67.618,67.618,0,0,0-7.515-11.546,186.687,186.687,0,0,0-22.647-23.868c-14.323-12.975-29.746-24.917-45.311-36.721-26.251-19.909-53.19-39.092-80.006-58.408q-48.764-35.125-97.4-70.388Q844.021,120.552,785.36,81.738a218.222,218.222,0,0,1-31.448-24.825,157.282,157.282,0,0,1-36.93-55.34A10.053,10.053,0,0,1,716.624,0h30.44a127.879,127.879,0,0,0,26.043,41.917,168.783,168.783,0,0,0,24.552,21.814c13.985,10.314,28.119,20.473,42.114,30.776q50.981,37.536,101.88,75.156c36.715,27.2,74.068,53.729,111.372,80.306,24.436,17.411,48.819,34.873,72.584,52.978,14.147,10.78,28.02,21.814,40.543,34.075a149.551,149.551,0,0,1,16.438,18.425,63.382,63.382,0,0,1,5.746,9.169c3.653,7.42,3.428,14.9-.321,22.3a45.416,45.416,0,0,1-9.545,12.286,93.539,93.539,0,0,1-12.7,9.941,169.837,169.837,0,0,1-19.659,11.257,554.369,554.369,0,0,1-89.372,34.139,130.1,130.1,0,0,1-19.265,3.924,66.809,66.809,0,0,1-28.618-2.357c-5.353-1.651-10.606-3.56-15.846-5.477a150.6,150.6,0,0,0-24.869-7.246,120.011,120.011,0,0,0-19.652-2.044c-10.143-.162-20.287-.153-30.42.515-10.881.714-21.788,1.142-32.655,1.961-9.948.749-19.873,1.752-29.782,2.828-9.757,1.058-19.5,2.224-29.213,3.557-43.519,5.974-86.149,14.84-126.983,29.662a512.686,512.686,0,0,0-101.906,50.713c-22.961,14.707-45.007,30.42-66.388,46.83-20.333,15.609-40.375,31.507-60.483,47.339-19.539,15.381-38.9,30.929-58.516,46.24-21.457,16.748-42.114,34.228-62.758,51.728-24.733,20.97-50.046,41.373-76.587,60.6a569.545,569.545,0,0,1-77.044,47.015q-17.953,9.087-35.545,18.706a207.278,207.278,0,0,0-31.23,20.64,101.227,101.227,0,0,0-16.971,16.956c-4.83,6.315-8.47,13.076-10.051,20.617C99.584,918.611,101.9,929.168,109,938.9a60.184,60.184,0,0,0,17.728,15.667,121.527,121.527,0,0,0,22.8,10.482,274.447,274.447,0,0,0,28.863,8.3c15.271,3.58,30.532,7.215,45.88,10.546a340.64,340.64,0,0,0,36.781,5.4c12.673,1.336,25.385,2.227,38.12,2.825,12.12.57,24.264.879,36.4,1.139,18.9.408,37.809.57,56.707,1.047,13.826.35,27.64,1.047,41.393,2.391,16.194,1.588,32.238,3.973,48.161,7.012,18.306,3.5,36.54,7.238,54.419,12.182,16.59,4.589,32.724,10.138,47.758,17.9,4.361,2.25,8.513,4.812,12.749,7.249.893.515,1.832,1.047,1.789,2.172Z" transform="translate(118.22)" fill="#1a0414"/>
    <path id="Path_976" data-name="Path 976" d="M442.789,0a49.546,49.546,0,0,1-1.465,4.761c-4.417,10.643-8.537,21.391-11.876,32.43A154.334,154.334,0,0,0,423.7,63.254c-2.033,16.792.374,32.754,8.979,47.579a119.577,119.577,0,0,0,20.4,26.053c8.4,8.11,17.129,15.873,25.765,23.738,7.611,6.93,15.364,13.711,22.918,20.7A163.543,163.543,0,0,1,521.9,203.472a86.413,86.413,0,0,1,9.717,16.164,56.5,56.5,0,0,1,4.506,15.423,45.79,45.79,0,0,1-2.589,22.2,72.911,72.911,0,0,1-12.031,20.607,145.752,145.752,0,0,1-18.713,19.05,350.029,350.029,0,0,1-31.59,23.92c-19.778,13.552-40.17,26.148-60.47,38.887-20.69,12.99-41.38,25.977-61.382,40.018-17.761,12.464-34.781,25.841-50.33,41.026-20.958,20.465-38.424,43.479-51.265,69.9a209.877,209.877,0,0,0-18.822,60c-1.789,11.555-2.334,23.226-2.982,34.887q-.729,13.112-1.868,26.2a60.109,60.109,0,0,1-3.713,16.118,39.022,39.022,0,0,1-9.075,14.283,32.18,32.18,0,0,1-22.336,9.482,45.533,45.533,0,0,1-19.682-4.08,77.359,77.359,0,0,1-17.582-10.884,137.643,137.643,0,0,1-25.527-27.726c-9.056-12.676-16.379-26.344-22.918-40.438-5.558-11.982-10.867-24.079-16.405-36.067-5.091-11.019-10.5-21.883-16.531-32.424a143.126,143.126,0,0,0-14.746-21.7,68.621,68.621,0,0,0-10.229-9.945c-11.244-8.728-23.748-10.96-37.4-7.254-2.655.721-5.293,1.5-7.938,2.261V440.021c1.673.453,2.972-.565,4.348-1.164a74.646,74.646,0,0,1,18.934-5.581,44.358,44.358,0,0,1,33.944,8.408,63.523,63.523,0,0,1,10.953,10.51,116.81,116.81,0,0,1,12.752,19.156c5.24,9.578,9.614,19.569,13.965,29.574,6.675,15.354,13.314,30.721,20.158,46a164.033,164.033,0,0,0,13.926,25.441,72.256,72.256,0,0,0,11.307,13.327,30.434,30.434,0,0,0,9.674,6.133c5.548,2.066,10.643,1.2,15.027-2.718a30.461,30.461,0,0,0,5.416-6.229,92.774,92.774,0,0,0,5.9-10.93,138.706,138.706,0,0,0,7.323-21.331c3.425-12.435,6.553-24.958,10.216-37.32a333.864,333.864,0,0,1,49.394-101.443,354.028,354.028,0,0,1,51.927-57.276c12.742-11.34,25.808-22.313,38.758-33.422,11.086-9.509,22.039-19.159,32.133-29.742a164.767,164.767,0,0,0,21.936-27.825c8.665-14.223,12.663-29.514,10.755-46.233A113.826,113.826,0,0,0,394.3,196.2c-2.615-8.351-5.442-16.64-8.193-24.948a125.057,125.057,0,0,1-5.882-27.428A143.08,143.08,0,0,1,385.232,90.9a256.71,256.71,0,0,1,17.5-44.537C409.7,32.338,417.1,18.518,424.271,4.586c.754-1.465,2.01-2.754,1.914-4.586Z" fill="#1a0414"/>
    <path id="Path_977" data-name="Path 977" d="M0,636.51c1.213.212,1.984-.579,2.87-1.194a61.573,61.573,0,0,1,6.143-4.053,24.9,24.9,0,0,1,21.374-1.273,42.125,42.125,0,0,1,9.661,5.32,82.327,82.327,0,0,1,11.628,10.484,218.587,218.587,0,0,1,16.58,20.376c8.55,11.648,17,23.365,25.583,34.989A427.507,427.507,0,0,0,126.6,741.051a204.818,204.818,0,0,0,31.845,27.914c13.231,9.2,27.461,16.273,43.172,20.184q36.694,9.13,70.164-8.461c14.012-7.35,26.281-17.066,37.429-28.2,23.583-23.543,41.436-50.925,54.258-81.639a391.873,391.873,0,0,0,19.4-60.486c2.628-11.059,5.591-22.026,9.032-32.87a149.353,149.353,0,0,1,32.113-55.4,259.11,259.11,0,0,1,42.2-37.032c22.72-16.217,47.083-29.551,72.4-41.2,31.584-14.544,64.272-26.119,97.545-36.12,29.713-8.933,59.782-16.528,89.908-23.9,26.4-6.464,52.836-12.742,78.965-20.25,16.392-4.708,32.642-9.829,48.283-16.706a126.234,126.234,0,0,0,20.234-10.953,60.723,60.723,0,0,0,12.441-10.917c7.693-9.092,10.067-19.46,7.455-31.028a63.458,63.458,0,0,0-6.622-16.647,130.665,130.665,0,0,0-15.483-21.748c-11.641-13.588-24.806-25.6-38.457-37.1q-18.518-15.607-38.133-29.822c-26.039-18.839-51.113-38.91-76.138-59.058q-22.262-17.933-44.964-35.317c-20.68-15.747-42.593-29.7-64.675-43.39q-13.32-8.252-26.413-16.878A148.27,148.27,0,0,1,558.8,15.066c-3.891-3.915-7.436-8.183-11.076-12.342A16.783,16.783,0,0,1,546.106,0h66.418a29.837,29.837,0,0,0,2.585,2.549c7.766,6.034,15.43,12.216,23.378,18a974.7,974.7,0,0,1,85.127,69.916c19.146,17.566,38.633,34.748,59.045,50.849,10.986,8.665,22.343,16.825,33.9,24.7,22.865,15.582,45.536,31.438,67.406,48.4,17.748,13.764,34.973,28.139,50.836,44.081a245.26,245.26,0,0,1,20.478,23.113,119.685,119.685,0,0,1,13.79,21.768,53.811,53.811,0,0,1,5.207,17.113c1.124,10.12-1.931,18.8-8.732,26.244a54.442,54.442,0,0,1-10.213,8.576,113.282,113.282,0,0,1-21.8,10.907c-12.907,5.022-26.238,8.659-39.661,11.972-19.688,4.857-39.558,8.867-59.428,12.871-38.391,7.73-76.842,15.165-115,24.009-36.381,8.434-72.339,18.323-107.358,31.4-26.962,10.071-53.084,21.93-77.758,36.837a301.591,301.591,0,0,0-37.558,26.664A182.383,182.383,0,0,0,450.016,569.3a417.709,417.709,0,0,0-17.46,40.633,542.646,542.646,0,0,1-39.912,84,370.127,370.127,0,0,1-53.461,70.884c-15.129,15.688-31.852,29.372-50.892,40.094A123.879,123.879,0,0,1,249.6,819.265a116.344,116.344,0,0,1-59.094-4.324c-15.582-5.267-29.719-13.221-42.888-22.978a257.029,257.029,0,0,1-37.928-34.94C99.1,745.253,88.88,733.156,78.376,721.31c-5.6-6.325-11.377-12.511-17.235-18.6a81.451,81.451,0,0,0-14.914-12.3A36.282,36.282,0,0,0,34.014,685.2a21.363,21.363,0,0,0-16.293,3.187,28.787,28.787,0,0,0-8.328,7.882c-2.45,3.521-4.589,7.26-6.821,10.93-.711,1.17-1.117,2.562-2.572,3.1Z" fill="#1a0414"/>
    <path id="Path_980" data-name="Path 980" d="M0,59.961V0H309.953c1.812,1.141,3.676,2.205,5.425,3.435C321.9,8.017,325.2,14.21,324.844,22.3a38.265,38.265,0,0,1-2.536,11.654,86.608,86.608,0,0,1-9.234,17.486,200.5,200.5,0,0,1-16.637,21.5,443.566,443.566,0,0,1-33.058,33.429c-12.071,11.175-24.218,22.26-36.239,33.485-12.7,11.856-25.127,23.99-36.937,36.745a237.3,237.3,0,0,0-32.073,43.228c-3.131,5.465-6.232,10.957-9.558,16.3s-6.741,10.652-10.431,15.747a65.451,65.451,0,0,1-22.072,19.229,94.734,94.734,0,0,1-9.505,4.668c-8.54,3.452-17.1,6.85-25.752,10.018C53.745,295.7,27.818,307.9,3.6,323.618c-1.154.747-2.4,1.349-3.6,2.017V284.122a32.489,32.489,0,0,0,3.243-1.7q25.664-17.169,51.292-34.4c9.307-6.262,18.425-12.792,27.117-19.9a360.172,360.172,0,0,0,42.309-41.049c18.277-20.783,37.274-40.874,56.588-60.685,6.645-6.817,12.94-13.985,19.239-21.13a73.452,73.452,0,0,0,9.925-13.83A46,46,0,0,0,213.344,83c2.123-7.135.007-12.534-6.169-16.759a36.922,36.922,0,0,0-9.571-4.46A111.1,111.1,0,0,0,173.65,57.3c-17.476-1.689-35-1.412-52.512-.684-15.2.631-30.38,1.627-45.579,2.252-15.658.648-31.326,1.207-46.994,1.491C19.047,60.529,9.522,60.113,0,59.961Z" fill="#1a0414"/>
    <path id="Path_981" data-name="Path 981" d="M409.581,0c-1.121,1.835-2.232,3.67-3.359,5.5-11.211,18.171-22.35,36.384-33.657,54.492-15.622,25.031-30.357,50.551-43.579,76.948-9.386,18.733-17.285,38.024-22.664,58.284-5.224,19.678-14.041,37.624-25.408,54.42-8.358,12.352-17.506,24.112-26.562,35.948-6.444,8.418-12.851,16.861-19.1,25.424-16.108,22.065-28.985,45.962-39.767,71.01-6.553,15.235-12.848,30.579-19.47,45.781-3.065,7.032-6.44,13.945-10.034,20.72a98.286,98.286,0,0,1-7.763,11.965,35.1,35.1,0,0,1-6.054,6.278c-6.609,5.412-13.416,5.458-20.141.112a39.3,39.3,0,0,1-6.464-6.523c-3.019-3.868-5.822-7.922-8.484-12.044-3.749-5.806-7.264-11.763-10.92-17.628A165.846,165.846,0,0,0,93.145,412.25a85.147,85.147,0,0,0-14.154-13.81c-12.573-9.475-26.694-12.656-42.177-10.487-11.4,1.6-21.943,5.673-32.136,10.834-1.471.744-2.8,1.994-4.678,1.57v-36.9c1.653-.77,3.379-1.422,4.953-2.331,14.98-8.639,30.6-15.694,47.632-19.232a99.087,99.087,0,0,1,31.607-1.736,159.774,159.774,0,0,1,22.568,4.46c6.53,1.723,13.013,3.63,19.708,4.665,10.58,1.63,19.827-.992,27.454-8.609a58.781,58.781,0,0,0,6.285-7.34,91.942,91.942,0,0,0,6.619-10.52c3-5.7,5.918-11.479,8.391-17.427q7.255-17.437,13.955-35.1a255.866,255.866,0,0,1,29.319-55.21q15.527-22.356,32.794-43.384c14.326-17.48,29.481-34.239,44.567-51.054C316.384,97.744,336.2,74.26,354.335,49.4,365.761,33.743,376.513,17.665,384.673,0Z" fill="#1a0414"/>
    <path id="Path_982" data-name="Path 982" d="M477.14,966.909q.377-9.666.757-19.335c.615-14.937,3.029-29.623,6.183-44.207,3.022-13.972,7.24-27.62,11.155-41.35a284.175,284.175,0,0,0,8.477-38.669c3.911-28.066,1.313-55.484-8.632-82.082-3.118-8.338-6.6-16.541-9.978-24.783a207.05,207.05,0,0,1-8.107-23.011,81.109,81.109,0,0,1,1.63-49.4,148.058,148.058,0,0,1,10.239-23.15q9.021-16.336,18.445-32.447c9.271-15.936,18.415-31.931,26.443-48.548a329.673,329.673,0,0,0,27.025-79.606c2.238-11.3,3.845-22.7,5.088-34.163,3.108-28.628,3.534-57.339,2.8-86.086-.314-12.286-.658-24.575-1.2-36.851-.638-14.273-1.56-28.532-2.275-42.8-1.114-22.257-2.079-44.524-1.1-66.808.383-8.735,1.309-17.457,2.242-26.158,1.263-11.757,2.79-23.487,4.159-35.234.82-7.016,1.61-14.038,2.314-21.067.291-2.9.271-5.832.5-8.742.119-1.5.466-2.985.708-4.48V595.15a6.925,6.925,0,0,0-.81,1.567c-.473,2.093-.817,4.212-1.276,6.308-1.9,8.7-4.047,17.341-5.7,26.082a191.4,191.4,0,0,0-2.1,54.608c1.041,10.54,2.377,21.054,3.686,31.567a262.114,262.114,0,0,1-4.437,92.024c-3.23,14.709-7.518,29.124-12.025,43.479-8.474,26.992-15.754,54.254-18.438,82.535a275.861,275.861,0,0,0-1.333,33.588Z" transform="translate(924.416 76.302)" fill="#1a0414"/>
    <path id="Path_986" data-name="Path 986" d="M0,39.957c1.071-.023,2.146-.129,3.21-.056a184.776,184.776,0,0,1,28.251,3.842,91.384,91.384,0,0,1,9.261,2.724,32.574,32.574,0,0,1,5.419,2.506c8.037,4.553,11.234,11.334,9.727,20.488a49.889,49.889,0,0,1-3.792,12.282,95.081,95.081,0,0,1-8.451,14.772,153.039,153.039,0,0,1-18.2,21.963c-7.174,7.155-14.6,14.051-21.94,21.037-.975.926-1.861,2.126-3.488,1.911Z" transform="translate(0 91.959)" fill="#1a0414"/>
  </g>
</svg>
